%TF.GenerationSoftware,KiCad,Pcbnew,9.0.6*%
%TF.CreationDate,2026-05-08T01:12:57+02:00*%
%TF.ProjectId,alarm_btn,616c6172-6d5f-4627-946e-2e6b69636164,rev?*%
%TF.SameCoordinates,Original*%
%TF.FileFunction,Legend,Top*%
%TF.FilePolarity,Positive*%
%FSLAX46Y46*%
G04 Gerber Fmt 4.6, Leading zero omitted, Abs format (unit mm)*
G04 Created by KiCad (PCBNEW 9.0.6) date 2026-05-08 01:12:57*
%MOMM*%
%LPD*%
G01*
G04 APERTURE LIST*
G04 Aperture macros list*
%AMRoundRect*
0 Rectangle with rounded corners*
0 $1 Rounding radius*
0 $2 $3 $4 $5 $6 $7 $8 $9 X,Y pos of 4 corners*
0 Add a 4 corners polygon primitive as box body*
4,1,4,$2,$3,$4,$5,$6,$7,$8,$9,$2,$3,0*
0 Add four circle primitives for the rounded corners*
1,1,$1+$1,$2,$3*
1,1,$1+$1,$4,$5*
1,1,$1+$1,$6,$7*
1,1,$1+$1,$8,$9*
0 Add four rect primitives between the rounded corners*
20,1,$1+$1,$2,$3,$4,$5,0*
20,1,$1+$1,$4,$5,$6,$7,0*
20,1,$1+$1,$6,$7,$8,$9,0*
20,1,$1+$1,$8,$9,$2,$3,0*%
G04 Aperture macros list end*
%ADD10C,0.100000*%
%ADD11C,0.200000*%
%ADD12C,0.150000*%
%ADD13C,0.120000*%
%ADD14C,0.127000*%
%ADD15C,0.000000*%
%ADD16C,2.000000*%
%ADD17RoundRect,0.225000X-0.250000X0.225000X-0.250000X-0.225000X0.250000X-0.225000X0.250000X0.225000X0*%
%ADD18RoundRect,0.075000X-0.075000X0.437500X-0.075000X-0.437500X0.075000X-0.437500X0.075000X0.437500X0*%
%ADD19RoundRect,0.075000X-0.437500X0.075000X-0.437500X-0.075000X0.437500X-0.075000X0.437500X0.075000X0*%
%ADD20R,4.250000X4.250000*%
%ADD21RoundRect,0.150000X0.150000X0.750000X-0.150000X0.750000X-0.150000X-0.750000X0.150000X-0.750000X0*%
%ADD22RoundRect,0.250000X1.050000X1.250000X-1.050000X1.250000X-1.050000X-1.250000X1.050000X-1.250000X0*%
%ADD23RoundRect,0.225000X0.250000X-0.225000X0.250000X0.225000X-0.250000X0.225000X-0.250000X-0.225000X0*%
%ADD24RoundRect,0.200000X-0.200000X-0.275000X0.200000X-0.275000X0.200000X0.275000X-0.200000X0.275000X0*%
%ADD25RoundRect,0.200000X0.200000X0.275000X-0.200000X0.275000X-0.200000X-0.275000X0.200000X-0.275000X0*%
%ADD26RoundRect,0.091750X0.275250X-0.365250X0.275250X0.365250X-0.275250X0.365250X-0.275250X-0.365250X0*%
%ADD27RoundRect,0.225000X0.225000X0.250000X-0.225000X0.250000X-0.225000X-0.250000X0.225000X-0.250000X0*%
%ADD28RoundRect,0.250000X-0.475000X0.250000X-0.475000X-0.250000X0.475000X-0.250000X0.475000X0.250000X0*%
%ADD29RoundRect,0.150000X-0.750000X0.150000X-0.750000X-0.150000X0.750000X-0.150000X0.750000X0.150000X0*%
%ADD30RoundRect,0.250000X-1.250000X1.050000X-1.250000X-1.050000X1.250000X-1.050000X1.250000X1.050000X0*%
%ADD31C,1.300000*%
%ADD32R,2.000000X1.100000*%
%ADD33R,1.000000X2.000000*%
%ADD34R,2.000000X2.000000*%
%ADD35R,2.000000X3.200000*%
%ADD36RoundRect,0.200000X0.275000X-0.200000X0.275000X0.200000X-0.275000X0.200000X-0.275000X-0.200000X0*%
%ADD37C,0.650000*%
%ADD38R,1.450000X0.600000*%
%ADD39R,1.450000X0.300000*%
%ADD40O,2.100000X1.000000*%
%ADD41O,1.600000X1.000000*%
%ADD42C,1.700000*%
%ADD43C,4.000000*%
%ADD44C,2.200000*%
%ADD45R,1.700000X1.700000*%
G04 APERTURE END LIST*
D10*
X81087500Y-90500000D02*
X81087500Y-84300000D01*
X16350000Y-37300000D02*
X16600000Y-14550000D01*
X16600000Y-14550000D02*
X39350000Y-14425000D01*
X81087500Y-84300000D02*
X53400000Y-84200000D01*
X13600000Y-65800000D02*
X13400000Y-112200000D01*
X29300000Y-44550000D02*
X24799996Y-44500592D01*
X52770000Y-84150000D02*
X42230000Y-70050000D01*
X46900000Y-78500000D02*
X37700000Y-65800000D01*
X112487500Y-90500000D02*
X81087500Y-90500000D01*
X24850000Y-37300000D02*
X24800000Y-44500000D01*
X42387500Y-84200000D02*
X42387500Y-84100000D01*
X47100000Y-112100000D02*
X46900000Y-78500000D01*
D11*
X54004081Y-86216073D02*
X80004081Y-86216073D01*
X80004081Y-108416073D01*
X54004081Y-108416073D01*
X54004081Y-86216073D01*
D10*
X42087500Y-13800000D02*
X112387500Y-13300000D01*
X52807376Y-84200000D02*
X53400000Y-84200000D01*
X24850000Y-37300000D02*
X16350000Y-37300000D01*
X13400000Y-112200000D02*
X47100000Y-112100000D01*
X42230000Y-70050000D02*
X42087500Y-13800000D01*
X39350000Y-14425000D02*
X39350000Y-37175000D01*
X39350000Y-37175000D02*
X29100000Y-37300000D01*
X37700000Y-65800000D02*
X13600000Y-65800000D01*
X112387500Y-13300000D02*
X112487500Y-90500000D01*
X29300000Y-37100000D02*
X29300000Y-44550000D01*
D12*
X95807200Y-21183332D02*
X95854819Y-21040475D01*
X95854819Y-21040475D02*
X95854819Y-20802380D01*
X95854819Y-20802380D02*
X95807200Y-20707142D01*
X95807200Y-20707142D02*
X95759580Y-20659523D01*
X95759580Y-20659523D02*
X95664342Y-20611904D01*
X95664342Y-20611904D02*
X95569104Y-20611904D01*
X95569104Y-20611904D02*
X95473866Y-20659523D01*
X95473866Y-20659523D02*
X95426247Y-20707142D01*
X95426247Y-20707142D02*
X95378628Y-20802380D01*
X95378628Y-20802380D02*
X95331009Y-20992856D01*
X95331009Y-20992856D02*
X95283390Y-21088094D01*
X95283390Y-21088094D02*
X95235771Y-21135713D01*
X95235771Y-21135713D02*
X95140533Y-21183332D01*
X95140533Y-21183332D02*
X95045295Y-21183332D01*
X95045295Y-21183332D02*
X94950057Y-21135713D01*
X94950057Y-21135713D02*
X94902438Y-21088094D01*
X94902438Y-21088094D02*
X94854819Y-20992856D01*
X94854819Y-20992856D02*
X94854819Y-20754761D01*
X94854819Y-20754761D02*
X94902438Y-20611904D01*
X94854819Y-20278570D02*
X95854819Y-20040475D01*
X95854819Y-20040475D02*
X95140533Y-19849999D01*
X95140533Y-19849999D02*
X95854819Y-19659523D01*
X95854819Y-19659523D02*
X94854819Y-19421428D01*
X95283390Y-18897618D02*
X95235771Y-18992856D01*
X95235771Y-18992856D02*
X95188152Y-19040475D01*
X95188152Y-19040475D02*
X95092914Y-19088094D01*
X95092914Y-19088094D02*
X95045295Y-19088094D01*
X95045295Y-19088094D02*
X94950057Y-19040475D01*
X94950057Y-19040475D02*
X94902438Y-18992856D01*
X94902438Y-18992856D02*
X94854819Y-18897618D01*
X94854819Y-18897618D02*
X94854819Y-18707142D01*
X94854819Y-18707142D02*
X94902438Y-18611904D01*
X94902438Y-18611904D02*
X94950057Y-18564285D01*
X94950057Y-18564285D02*
X95045295Y-18516666D01*
X95045295Y-18516666D02*
X95092914Y-18516666D01*
X95092914Y-18516666D02*
X95188152Y-18564285D01*
X95188152Y-18564285D02*
X95235771Y-18611904D01*
X95235771Y-18611904D02*
X95283390Y-18707142D01*
X95283390Y-18707142D02*
X95283390Y-18897618D01*
X95283390Y-18897618D02*
X95331009Y-18992856D01*
X95331009Y-18992856D02*
X95378628Y-19040475D01*
X95378628Y-19040475D02*
X95473866Y-19088094D01*
X95473866Y-19088094D02*
X95664342Y-19088094D01*
X95664342Y-19088094D02*
X95759580Y-19040475D01*
X95759580Y-19040475D02*
X95807200Y-18992856D01*
X95807200Y-18992856D02*
X95854819Y-18897618D01*
X95854819Y-18897618D02*
X95854819Y-18707142D01*
X95854819Y-18707142D02*
X95807200Y-18611904D01*
X95807200Y-18611904D02*
X95759580Y-18564285D01*
X95759580Y-18564285D02*
X95664342Y-18516666D01*
X95664342Y-18516666D02*
X95473866Y-18516666D01*
X95473866Y-18516666D02*
X95378628Y-18564285D01*
X95378628Y-18564285D02*
X95331009Y-18611904D01*
X95331009Y-18611904D02*
X95283390Y-18707142D01*
X97759580Y-35742857D02*
X97807200Y-35790476D01*
X97807200Y-35790476D02*
X97854819Y-35933333D01*
X97854819Y-35933333D02*
X97854819Y-36028571D01*
X97854819Y-36028571D02*
X97807200Y-36171428D01*
X97807200Y-36171428D02*
X97711961Y-36266666D01*
X97711961Y-36266666D02*
X97616723Y-36314285D01*
X97616723Y-36314285D02*
X97426247Y-36361904D01*
X97426247Y-36361904D02*
X97283390Y-36361904D01*
X97283390Y-36361904D02*
X97092914Y-36314285D01*
X97092914Y-36314285D02*
X96997676Y-36266666D01*
X96997676Y-36266666D02*
X96902438Y-36171428D01*
X96902438Y-36171428D02*
X96854819Y-36028571D01*
X96854819Y-36028571D02*
X96854819Y-35933333D01*
X96854819Y-35933333D02*
X96902438Y-35790476D01*
X96902438Y-35790476D02*
X96950057Y-35742857D01*
X96854819Y-35409523D02*
X96854819Y-34790476D01*
X96854819Y-34790476D02*
X97235771Y-35123809D01*
X97235771Y-35123809D02*
X97235771Y-34980952D01*
X97235771Y-34980952D02*
X97283390Y-34885714D01*
X97283390Y-34885714D02*
X97331009Y-34838095D01*
X97331009Y-34838095D02*
X97426247Y-34790476D01*
X97426247Y-34790476D02*
X97664342Y-34790476D01*
X97664342Y-34790476D02*
X97759580Y-34838095D01*
X97759580Y-34838095D02*
X97807200Y-34885714D01*
X97807200Y-34885714D02*
X97854819Y-34980952D01*
X97854819Y-34980952D02*
X97854819Y-35266666D01*
X97854819Y-35266666D02*
X97807200Y-35361904D01*
X97807200Y-35361904D02*
X97759580Y-35409523D01*
X96854819Y-34171428D02*
X96854819Y-34076190D01*
X96854819Y-34076190D02*
X96902438Y-33980952D01*
X96902438Y-33980952D02*
X96950057Y-33933333D01*
X96950057Y-33933333D02*
X97045295Y-33885714D01*
X97045295Y-33885714D02*
X97235771Y-33838095D01*
X97235771Y-33838095D02*
X97473866Y-33838095D01*
X97473866Y-33838095D02*
X97664342Y-33885714D01*
X97664342Y-33885714D02*
X97759580Y-33933333D01*
X97759580Y-33933333D02*
X97807200Y-33980952D01*
X97807200Y-33980952D02*
X97854819Y-34076190D01*
X97854819Y-34076190D02*
X97854819Y-34171428D01*
X97854819Y-34171428D02*
X97807200Y-34266666D01*
X97807200Y-34266666D02*
X97759580Y-34314285D01*
X97759580Y-34314285D02*
X97664342Y-34361904D01*
X97664342Y-34361904D02*
X97473866Y-34409523D01*
X97473866Y-34409523D02*
X97235771Y-34409523D01*
X97235771Y-34409523D02*
X97045295Y-34361904D01*
X97045295Y-34361904D02*
X96950057Y-34314285D01*
X96950057Y-34314285D02*
X96902438Y-34266666D01*
X96902438Y-34266666D02*
X96854819Y-34171428D01*
X85759580Y-23742857D02*
X85807200Y-23790476D01*
X85807200Y-23790476D02*
X85854819Y-23933333D01*
X85854819Y-23933333D02*
X85854819Y-24028571D01*
X85854819Y-24028571D02*
X85807200Y-24171428D01*
X85807200Y-24171428D02*
X85711961Y-24266666D01*
X85711961Y-24266666D02*
X85616723Y-24314285D01*
X85616723Y-24314285D02*
X85426247Y-24361904D01*
X85426247Y-24361904D02*
X85283390Y-24361904D01*
X85283390Y-24361904D02*
X85092914Y-24314285D01*
X85092914Y-24314285D02*
X84997676Y-24266666D01*
X84997676Y-24266666D02*
X84902438Y-24171428D01*
X84902438Y-24171428D02*
X84854819Y-24028571D01*
X84854819Y-24028571D02*
X84854819Y-23933333D01*
X84854819Y-23933333D02*
X84902438Y-23790476D01*
X84902438Y-23790476D02*
X84950057Y-23742857D01*
X84854819Y-23409523D02*
X84854819Y-22790476D01*
X84854819Y-22790476D02*
X85235771Y-23123809D01*
X85235771Y-23123809D02*
X85235771Y-22980952D01*
X85235771Y-22980952D02*
X85283390Y-22885714D01*
X85283390Y-22885714D02*
X85331009Y-22838095D01*
X85331009Y-22838095D02*
X85426247Y-22790476D01*
X85426247Y-22790476D02*
X85664342Y-22790476D01*
X85664342Y-22790476D02*
X85759580Y-22838095D01*
X85759580Y-22838095D02*
X85807200Y-22885714D01*
X85807200Y-22885714D02*
X85854819Y-22980952D01*
X85854819Y-22980952D02*
X85854819Y-23266666D01*
X85854819Y-23266666D02*
X85807200Y-23361904D01*
X85807200Y-23361904D02*
X85759580Y-23409523D01*
X84854819Y-22457142D02*
X84854819Y-21838095D01*
X84854819Y-21838095D02*
X85235771Y-22171428D01*
X85235771Y-22171428D02*
X85235771Y-22028571D01*
X85235771Y-22028571D02*
X85283390Y-21933333D01*
X85283390Y-21933333D02*
X85331009Y-21885714D01*
X85331009Y-21885714D02*
X85426247Y-21838095D01*
X85426247Y-21838095D02*
X85664342Y-21838095D01*
X85664342Y-21838095D02*
X85759580Y-21885714D01*
X85759580Y-21885714D02*
X85807200Y-21933333D01*
X85807200Y-21933333D02*
X85854819Y-22028571D01*
X85854819Y-22028571D02*
X85854819Y-22314285D01*
X85854819Y-22314285D02*
X85807200Y-22409523D01*
X85807200Y-22409523D02*
X85759580Y-22457142D01*
X61734819Y-64881904D02*
X62544342Y-64881904D01*
X62544342Y-64881904D02*
X62639580Y-64834285D01*
X62639580Y-64834285D02*
X62687200Y-64786666D01*
X62687200Y-64786666D02*
X62734819Y-64691428D01*
X62734819Y-64691428D02*
X62734819Y-64500952D01*
X62734819Y-64500952D02*
X62687200Y-64405714D01*
X62687200Y-64405714D02*
X62639580Y-64358095D01*
X62639580Y-64358095D02*
X62544342Y-64310476D01*
X62544342Y-64310476D02*
X61734819Y-64310476D01*
X62734819Y-63786666D02*
X62734819Y-63596190D01*
X62734819Y-63596190D02*
X62687200Y-63500952D01*
X62687200Y-63500952D02*
X62639580Y-63453333D01*
X62639580Y-63453333D02*
X62496723Y-63358095D01*
X62496723Y-63358095D02*
X62306247Y-63310476D01*
X62306247Y-63310476D02*
X61925295Y-63310476D01*
X61925295Y-63310476D02*
X61830057Y-63358095D01*
X61830057Y-63358095D02*
X61782438Y-63405714D01*
X61782438Y-63405714D02*
X61734819Y-63500952D01*
X61734819Y-63500952D02*
X61734819Y-63691428D01*
X61734819Y-63691428D02*
X61782438Y-63786666D01*
X61782438Y-63786666D02*
X61830057Y-63834285D01*
X61830057Y-63834285D02*
X61925295Y-63881904D01*
X61925295Y-63881904D02*
X62163390Y-63881904D01*
X62163390Y-63881904D02*
X62258628Y-63834285D01*
X62258628Y-63834285D02*
X62306247Y-63786666D01*
X62306247Y-63786666D02*
X62353866Y-63691428D01*
X62353866Y-63691428D02*
X62353866Y-63500952D01*
X62353866Y-63500952D02*
X62306247Y-63405714D01*
X62306247Y-63405714D02*
X62258628Y-63358095D01*
X62258628Y-63358095D02*
X62163390Y-63310476D01*
X95807200Y-69659523D02*
X95854819Y-69516666D01*
X95854819Y-69516666D02*
X95854819Y-69278571D01*
X95854819Y-69278571D02*
X95807200Y-69183333D01*
X95807200Y-69183333D02*
X95759580Y-69135714D01*
X95759580Y-69135714D02*
X95664342Y-69088095D01*
X95664342Y-69088095D02*
X95569104Y-69088095D01*
X95569104Y-69088095D02*
X95473866Y-69135714D01*
X95473866Y-69135714D02*
X95426247Y-69183333D01*
X95426247Y-69183333D02*
X95378628Y-69278571D01*
X95378628Y-69278571D02*
X95331009Y-69469047D01*
X95331009Y-69469047D02*
X95283390Y-69564285D01*
X95283390Y-69564285D02*
X95235771Y-69611904D01*
X95235771Y-69611904D02*
X95140533Y-69659523D01*
X95140533Y-69659523D02*
X95045295Y-69659523D01*
X95045295Y-69659523D02*
X94950057Y-69611904D01*
X94950057Y-69611904D02*
X94902438Y-69564285D01*
X94902438Y-69564285D02*
X94854819Y-69469047D01*
X94854819Y-69469047D02*
X94854819Y-69230952D01*
X94854819Y-69230952D02*
X94902438Y-69088095D01*
X94854819Y-68754761D02*
X95854819Y-68516666D01*
X95854819Y-68516666D02*
X95140533Y-68326190D01*
X95140533Y-68326190D02*
X95854819Y-68135714D01*
X95854819Y-68135714D02*
X94854819Y-67897619D01*
X95854819Y-66992857D02*
X95854819Y-67564285D01*
X95854819Y-67278571D02*
X94854819Y-67278571D01*
X94854819Y-67278571D02*
X94997676Y-67373809D01*
X94997676Y-67373809D02*
X95092914Y-67469047D01*
X95092914Y-67469047D02*
X95140533Y-67564285D01*
X94950057Y-66611904D02*
X94902438Y-66564285D01*
X94902438Y-66564285D02*
X94854819Y-66469047D01*
X94854819Y-66469047D02*
X94854819Y-66230952D01*
X94854819Y-66230952D02*
X94902438Y-66135714D01*
X94902438Y-66135714D02*
X94950057Y-66088095D01*
X94950057Y-66088095D02*
X95045295Y-66040476D01*
X95045295Y-66040476D02*
X95140533Y-66040476D01*
X95140533Y-66040476D02*
X95283390Y-66088095D01*
X95283390Y-66088095D02*
X95854819Y-66659523D01*
X95854819Y-66659523D02*
X95854819Y-66040476D01*
X26590476Y-76754819D02*
X26590476Y-77469104D01*
X26590476Y-77469104D02*
X26542857Y-77611961D01*
X26542857Y-77611961D02*
X26447619Y-77707200D01*
X26447619Y-77707200D02*
X26304762Y-77754819D01*
X26304762Y-77754819D02*
X26209524Y-77754819D01*
X27590476Y-77754819D02*
X27019048Y-77754819D01*
X27304762Y-77754819D02*
X27304762Y-76754819D01*
X27304762Y-76754819D02*
X27209524Y-76897676D01*
X27209524Y-76897676D02*
X27114286Y-76992914D01*
X27114286Y-76992914D02*
X27019048Y-77040533D01*
X28542857Y-77754819D02*
X27971429Y-77754819D01*
X28257143Y-77754819D02*
X28257143Y-76754819D01*
X28257143Y-76754819D02*
X28161905Y-76897676D01*
X28161905Y-76897676D02*
X28066667Y-76992914D01*
X28066667Y-76992914D02*
X27971429Y-77040533D01*
X85759580Y-35742857D02*
X85807200Y-35790476D01*
X85807200Y-35790476D02*
X85854819Y-35933333D01*
X85854819Y-35933333D02*
X85854819Y-36028571D01*
X85854819Y-36028571D02*
X85807200Y-36171428D01*
X85807200Y-36171428D02*
X85711961Y-36266666D01*
X85711961Y-36266666D02*
X85616723Y-36314285D01*
X85616723Y-36314285D02*
X85426247Y-36361904D01*
X85426247Y-36361904D02*
X85283390Y-36361904D01*
X85283390Y-36361904D02*
X85092914Y-36314285D01*
X85092914Y-36314285D02*
X84997676Y-36266666D01*
X84997676Y-36266666D02*
X84902438Y-36171428D01*
X84902438Y-36171428D02*
X84854819Y-36028571D01*
X84854819Y-36028571D02*
X84854819Y-35933333D01*
X84854819Y-35933333D02*
X84902438Y-35790476D01*
X84902438Y-35790476D02*
X84950057Y-35742857D01*
X84950057Y-35361904D02*
X84902438Y-35314285D01*
X84902438Y-35314285D02*
X84854819Y-35219047D01*
X84854819Y-35219047D02*
X84854819Y-34980952D01*
X84854819Y-34980952D02*
X84902438Y-34885714D01*
X84902438Y-34885714D02*
X84950057Y-34838095D01*
X84950057Y-34838095D02*
X85045295Y-34790476D01*
X85045295Y-34790476D02*
X85140533Y-34790476D01*
X85140533Y-34790476D02*
X85283390Y-34838095D01*
X85283390Y-34838095D02*
X85854819Y-35409523D01*
X85854819Y-35409523D02*
X85854819Y-34790476D01*
X84854819Y-33933333D02*
X84854819Y-34123809D01*
X84854819Y-34123809D02*
X84902438Y-34219047D01*
X84902438Y-34219047D02*
X84950057Y-34266666D01*
X84950057Y-34266666D02*
X85092914Y-34361904D01*
X85092914Y-34361904D02*
X85283390Y-34409523D01*
X85283390Y-34409523D02*
X85664342Y-34409523D01*
X85664342Y-34409523D02*
X85759580Y-34361904D01*
X85759580Y-34361904D02*
X85807200Y-34314285D01*
X85807200Y-34314285D02*
X85854819Y-34219047D01*
X85854819Y-34219047D02*
X85854819Y-34028571D01*
X85854819Y-34028571D02*
X85807200Y-33933333D01*
X85807200Y-33933333D02*
X85759580Y-33885714D01*
X85759580Y-33885714D02*
X85664342Y-33838095D01*
X85664342Y-33838095D02*
X85426247Y-33838095D01*
X85426247Y-33838095D02*
X85331009Y-33885714D01*
X85331009Y-33885714D02*
X85283390Y-33933333D01*
X85283390Y-33933333D02*
X85235771Y-34028571D01*
X85235771Y-34028571D02*
X85235771Y-34219047D01*
X85235771Y-34219047D02*
X85283390Y-34314285D01*
X85283390Y-34314285D02*
X85331009Y-34361904D01*
X85331009Y-34361904D02*
X85426247Y-34409523D01*
X60493507Y-58971938D02*
X60541127Y-59019557D01*
X60541127Y-59019557D02*
X60588746Y-59162414D01*
X60588746Y-59162414D02*
X60588746Y-59257652D01*
X60588746Y-59257652D02*
X60541127Y-59400509D01*
X60541127Y-59400509D02*
X60445888Y-59495747D01*
X60445888Y-59495747D02*
X60350650Y-59543366D01*
X60350650Y-59543366D02*
X60160174Y-59590985D01*
X60160174Y-59590985D02*
X60017317Y-59590985D01*
X60017317Y-59590985D02*
X59826841Y-59543366D01*
X59826841Y-59543366D02*
X59731603Y-59495747D01*
X59731603Y-59495747D02*
X59636365Y-59400509D01*
X59636365Y-59400509D02*
X59588746Y-59257652D01*
X59588746Y-59257652D02*
X59588746Y-59162414D01*
X59588746Y-59162414D02*
X59636365Y-59019557D01*
X59636365Y-59019557D02*
X59683984Y-58971938D01*
X59683984Y-58590985D02*
X59636365Y-58543366D01*
X59636365Y-58543366D02*
X59588746Y-58448128D01*
X59588746Y-58448128D02*
X59588746Y-58210033D01*
X59588746Y-58210033D02*
X59636365Y-58114795D01*
X59636365Y-58114795D02*
X59683984Y-58067176D01*
X59683984Y-58067176D02*
X59779222Y-58019557D01*
X59779222Y-58019557D02*
X59874460Y-58019557D01*
X59874460Y-58019557D02*
X60017317Y-58067176D01*
X60017317Y-58067176D02*
X60588746Y-58638604D01*
X60588746Y-58638604D02*
X60588746Y-58019557D01*
X59683984Y-57638604D02*
X59636365Y-57590985D01*
X59636365Y-57590985D02*
X59588746Y-57495747D01*
X59588746Y-57495747D02*
X59588746Y-57257652D01*
X59588746Y-57257652D02*
X59636365Y-57162414D01*
X59636365Y-57162414D02*
X59683984Y-57114795D01*
X59683984Y-57114795D02*
X59779222Y-57067176D01*
X59779222Y-57067176D02*
X59874460Y-57067176D01*
X59874460Y-57067176D02*
X60017317Y-57114795D01*
X60017317Y-57114795D02*
X60588746Y-57686223D01*
X60588746Y-57686223D02*
X60588746Y-57067176D01*
X37957142Y-78954819D02*
X37623809Y-78478628D01*
X37385714Y-78954819D02*
X37385714Y-77954819D01*
X37385714Y-77954819D02*
X37766666Y-77954819D01*
X37766666Y-77954819D02*
X37861904Y-78002438D01*
X37861904Y-78002438D02*
X37909523Y-78050057D01*
X37909523Y-78050057D02*
X37957142Y-78145295D01*
X37957142Y-78145295D02*
X37957142Y-78288152D01*
X37957142Y-78288152D02*
X37909523Y-78383390D01*
X37909523Y-78383390D02*
X37861904Y-78431009D01*
X37861904Y-78431009D02*
X37766666Y-78478628D01*
X37766666Y-78478628D02*
X37385714Y-78478628D01*
X38909523Y-78954819D02*
X38338095Y-78954819D01*
X38623809Y-78954819D02*
X38623809Y-77954819D01*
X38623809Y-77954819D02*
X38528571Y-78097676D01*
X38528571Y-78097676D02*
X38433333Y-78192914D01*
X38433333Y-78192914D02*
X38338095Y-78240533D01*
X39385714Y-78954819D02*
X39576190Y-78954819D01*
X39576190Y-78954819D02*
X39671428Y-78907200D01*
X39671428Y-78907200D02*
X39719047Y-78859580D01*
X39719047Y-78859580D02*
X39814285Y-78716723D01*
X39814285Y-78716723D02*
X39861904Y-78526247D01*
X39861904Y-78526247D02*
X39861904Y-78145295D01*
X39861904Y-78145295D02*
X39814285Y-78050057D01*
X39814285Y-78050057D02*
X39766666Y-78002438D01*
X39766666Y-78002438D02*
X39671428Y-77954819D01*
X39671428Y-77954819D02*
X39480952Y-77954819D01*
X39480952Y-77954819D02*
X39385714Y-78002438D01*
X39385714Y-78002438D02*
X39338095Y-78050057D01*
X39338095Y-78050057D02*
X39290476Y-78145295D01*
X39290476Y-78145295D02*
X39290476Y-78383390D01*
X39290476Y-78383390D02*
X39338095Y-78478628D01*
X39338095Y-78478628D02*
X39385714Y-78526247D01*
X39385714Y-78526247D02*
X39480952Y-78573866D01*
X39480952Y-78573866D02*
X39671428Y-78573866D01*
X39671428Y-78573866D02*
X39766666Y-78526247D01*
X39766666Y-78526247D02*
X39814285Y-78478628D01*
X39814285Y-78478628D02*
X39861904Y-78383390D01*
X72889580Y-48791666D02*
X72937200Y-48839285D01*
X72937200Y-48839285D02*
X72984819Y-48982142D01*
X72984819Y-48982142D02*
X72984819Y-49077380D01*
X72984819Y-49077380D02*
X72937200Y-49220237D01*
X72937200Y-49220237D02*
X72841961Y-49315475D01*
X72841961Y-49315475D02*
X72746723Y-49363094D01*
X72746723Y-49363094D02*
X72556247Y-49410713D01*
X72556247Y-49410713D02*
X72413390Y-49410713D01*
X72413390Y-49410713D02*
X72222914Y-49363094D01*
X72222914Y-49363094D02*
X72127676Y-49315475D01*
X72127676Y-49315475D02*
X72032438Y-49220237D01*
X72032438Y-49220237D02*
X71984819Y-49077380D01*
X71984819Y-49077380D02*
X71984819Y-48982142D01*
X71984819Y-48982142D02*
X72032438Y-48839285D01*
X72032438Y-48839285D02*
X72080057Y-48791666D01*
X72984819Y-47839285D02*
X72984819Y-48410713D01*
X72984819Y-48124999D02*
X71984819Y-48124999D01*
X71984819Y-48124999D02*
X72127676Y-48220237D01*
X72127676Y-48220237D02*
X72222914Y-48315475D01*
X72222914Y-48315475D02*
X72270533Y-48410713D01*
X107807200Y-45659523D02*
X107854819Y-45516666D01*
X107854819Y-45516666D02*
X107854819Y-45278571D01*
X107854819Y-45278571D02*
X107807200Y-45183333D01*
X107807200Y-45183333D02*
X107759580Y-45135714D01*
X107759580Y-45135714D02*
X107664342Y-45088095D01*
X107664342Y-45088095D02*
X107569104Y-45088095D01*
X107569104Y-45088095D02*
X107473866Y-45135714D01*
X107473866Y-45135714D02*
X107426247Y-45183333D01*
X107426247Y-45183333D02*
X107378628Y-45278571D01*
X107378628Y-45278571D02*
X107331009Y-45469047D01*
X107331009Y-45469047D02*
X107283390Y-45564285D01*
X107283390Y-45564285D02*
X107235771Y-45611904D01*
X107235771Y-45611904D02*
X107140533Y-45659523D01*
X107140533Y-45659523D02*
X107045295Y-45659523D01*
X107045295Y-45659523D02*
X106950057Y-45611904D01*
X106950057Y-45611904D02*
X106902438Y-45564285D01*
X106902438Y-45564285D02*
X106854819Y-45469047D01*
X106854819Y-45469047D02*
X106854819Y-45230952D01*
X106854819Y-45230952D02*
X106902438Y-45088095D01*
X106854819Y-44754761D02*
X107854819Y-44516666D01*
X107854819Y-44516666D02*
X107140533Y-44326190D01*
X107140533Y-44326190D02*
X107854819Y-44135714D01*
X107854819Y-44135714D02*
X106854819Y-43897619D01*
X107854819Y-42992857D02*
X107854819Y-43564285D01*
X107854819Y-43278571D02*
X106854819Y-43278571D01*
X106854819Y-43278571D02*
X106997676Y-43373809D01*
X106997676Y-43373809D02*
X107092914Y-43469047D01*
X107092914Y-43469047D02*
X107140533Y-43564285D01*
X106854819Y-42088095D02*
X106854819Y-42564285D01*
X106854819Y-42564285D02*
X107331009Y-42611904D01*
X107331009Y-42611904D02*
X107283390Y-42564285D01*
X107283390Y-42564285D02*
X107235771Y-42469047D01*
X107235771Y-42469047D02*
X107235771Y-42230952D01*
X107235771Y-42230952D02*
X107283390Y-42135714D01*
X107283390Y-42135714D02*
X107331009Y-42088095D01*
X107331009Y-42088095D02*
X107426247Y-42040476D01*
X107426247Y-42040476D02*
X107664342Y-42040476D01*
X107664342Y-42040476D02*
X107759580Y-42088095D01*
X107759580Y-42088095D02*
X107807200Y-42135714D01*
X107807200Y-42135714D02*
X107854819Y-42230952D01*
X107854819Y-42230952D02*
X107854819Y-42469047D01*
X107854819Y-42469047D02*
X107807200Y-42564285D01*
X107807200Y-42564285D02*
X107759580Y-42611904D01*
X74647080Y-47242857D02*
X74694700Y-47290476D01*
X74694700Y-47290476D02*
X74742319Y-47433333D01*
X74742319Y-47433333D02*
X74742319Y-47528571D01*
X74742319Y-47528571D02*
X74694700Y-47671428D01*
X74694700Y-47671428D02*
X74599461Y-47766666D01*
X74599461Y-47766666D02*
X74504223Y-47814285D01*
X74504223Y-47814285D02*
X74313747Y-47861904D01*
X74313747Y-47861904D02*
X74170890Y-47861904D01*
X74170890Y-47861904D02*
X73980414Y-47814285D01*
X73980414Y-47814285D02*
X73885176Y-47766666D01*
X73885176Y-47766666D02*
X73789938Y-47671428D01*
X73789938Y-47671428D02*
X73742319Y-47528571D01*
X73742319Y-47528571D02*
X73742319Y-47433333D01*
X73742319Y-47433333D02*
X73789938Y-47290476D01*
X73789938Y-47290476D02*
X73837557Y-47242857D01*
X73837557Y-46861904D02*
X73789938Y-46814285D01*
X73789938Y-46814285D02*
X73742319Y-46719047D01*
X73742319Y-46719047D02*
X73742319Y-46480952D01*
X73742319Y-46480952D02*
X73789938Y-46385714D01*
X73789938Y-46385714D02*
X73837557Y-46338095D01*
X73837557Y-46338095D02*
X73932795Y-46290476D01*
X73932795Y-46290476D02*
X74028033Y-46290476D01*
X74028033Y-46290476D02*
X74170890Y-46338095D01*
X74170890Y-46338095D02*
X74742319Y-46909523D01*
X74742319Y-46909523D02*
X74742319Y-46290476D01*
X74075652Y-45433333D02*
X74742319Y-45433333D01*
X73694700Y-45671428D02*
X74408985Y-45909523D01*
X74408985Y-45909523D02*
X74408985Y-45290476D01*
X98259580Y-71242857D02*
X98307200Y-71290476D01*
X98307200Y-71290476D02*
X98354819Y-71433333D01*
X98354819Y-71433333D02*
X98354819Y-71528571D01*
X98354819Y-71528571D02*
X98307200Y-71671428D01*
X98307200Y-71671428D02*
X98211961Y-71766666D01*
X98211961Y-71766666D02*
X98116723Y-71814285D01*
X98116723Y-71814285D02*
X97926247Y-71861904D01*
X97926247Y-71861904D02*
X97783390Y-71861904D01*
X97783390Y-71861904D02*
X97592914Y-71814285D01*
X97592914Y-71814285D02*
X97497676Y-71766666D01*
X97497676Y-71766666D02*
X97402438Y-71671428D01*
X97402438Y-71671428D02*
X97354819Y-71528571D01*
X97354819Y-71528571D02*
X97354819Y-71433333D01*
X97354819Y-71433333D02*
X97402438Y-71290476D01*
X97402438Y-71290476D02*
X97450057Y-71242857D01*
X97354819Y-70909523D02*
X97354819Y-70290476D01*
X97354819Y-70290476D02*
X97735771Y-70623809D01*
X97735771Y-70623809D02*
X97735771Y-70480952D01*
X97735771Y-70480952D02*
X97783390Y-70385714D01*
X97783390Y-70385714D02*
X97831009Y-70338095D01*
X97831009Y-70338095D02*
X97926247Y-70290476D01*
X97926247Y-70290476D02*
X98164342Y-70290476D01*
X98164342Y-70290476D02*
X98259580Y-70338095D01*
X98259580Y-70338095D02*
X98307200Y-70385714D01*
X98307200Y-70385714D02*
X98354819Y-70480952D01*
X98354819Y-70480952D02*
X98354819Y-70766666D01*
X98354819Y-70766666D02*
X98307200Y-70861904D01*
X98307200Y-70861904D02*
X98259580Y-70909523D01*
X97354819Y-69433333D02*
X97354819Y-69623809D01*
X97354819Y-69623809D02*
X97402438Y-69719047D01*
X97402438Y-69719047D02*
X97450057Y-69766666D01*
X97450057Y-69766666D02*
X97592914Y-69861904D01*
X97592914Y-69861904D02*
X97783390Y-69909523D01*
X97783390Y-69909523D02*
X98164342Y-69909523D01*
X98164342Y-69909523D02*
X98259580Y-69861904D01*
X98259580Y-69861904D02*
X98307200Y-69814285D01*
X98307200Y-69814285D02*
X98354819Y-69719047D01*
X98354819Y-69719047D02*
X98354819Y-69528571D01*
X98354819Y-69528571D02*
X98307200Y-69433333D01*
X98307200Y-69433333D02*
X98259580Y-69385714D01*
X98259580Y-69385714D02*
X98164342Y-69338095D01*
X98164342Y-69338095D02*
X97926247Y-69338095D01*
X97926247Y-69338095D02*
X97831009Y-69385714D01*
X97831009Y-69385714D02*
X97783390Y-69433333D01*
X97783390Y-69433333D02*
X97735771Y-69528571D01*
X97735771Y-69528571D02*
X97735771Y-69719047D01*
X97735771Y-69719047D02*
X97783390Y-69814285D01*
X97783390Y-69814285D02*
X97831009Y-69861904D01*
X97831009Y-69861904D02*
X97926247Y-69909523D01*
X107807200Y-33659523D02*
X107854819Y-33516666D01*
X107854819Y-33516666D02*
X107854819Y-33278571D01*
X107854819Y-33278571D02*
X107807200Y-33183333D01*
X107807200Y-33183333D02*
X107759580Y-33135714D01*
X107759580Y-33135714D02*
X107664342Y-33088095D01*
X107664342Y-33088095D02*
X107569104Y-33088095D01*
X107569104Y-33088095D02*
X107473866Y-33135714D01*
X107473866Y-33135714D02*
X107426247Y-33183333D01*
X107426247Y-33183333D02*
X107378628Y-33278571D01*
X107378628Y-33278571D02*
X107331009Y-33469047D01*
X107331009Y-33469047D02*
X107283390Y-33564285D01*
X107283390Y-33564285D02*
X107235771Y-33611904D01*
X107235771Y-33611904D02*
X107140533Y-33659523D01*
X107140533Y-33659523D02*
X107045295Y-33659523D01*
X107045295Y-33659523D02*
X106950057Y-33611904D01*
X106950057Y-33611904D02*
X106902438Y-33564285D01*
X106902438Y-33564285D02*
X106854819Y-33469047D01*
X106854819Y-33469047D02*
X106854819Y-33230952D01*
X106854819Y-33230952D02*
X106902438Y-33088095D01*
X106854819Y-32754761D02*
X107854819Y-32516666D01*
X107854819Y-32516666D02*
X107140533Y-32326190D01*
X107140533Y-32326190D02*
X107854819Y-32135714D01*
X107854819Y-32135714D02*
X106854819Y-31897619D01*
X107854819Y-30992857D02*
X107854819Y-31564285D01*
X107854819Y-31278571D02*
X106854819Y-31278571D01*
X106854819Y-31278571D02*
X106997676Y-31373809D01*
X106997676Y-31373809D02*
X107092914Y-31469047D01*
X107092914Y-31469047D02*
X107140533Y-31564285D01*
X106854819Y-30135714D02*
X106854819Y-30326190D01*
X106854819Y-30326190D02*
X106902438Y-30421428D01*
X106902438Y-30421428D02*
X106950057Y-30469047D01*
X106950057Y-30469047D02*
X107092914Y-30564285D01*
X107092914Y-30564285D02*
X107283390Y-30611904D01*
X107283390Y-30611904D02*
X107664342Y-30611904D01*
X107664342Y-30611904D02*
X107759580Y-30564285D01*
X107759580Y-30564285D02*
X107807200Y-30516666D01*
X107807200Y-30516666D02*
X107854819Y-30421428D01*
X107854819Y-30421428D02*
X107854819Y-30230952D01*
X107854819Y-30230952D02*
X107807200Y-30135714D01*
X107807200Y-30135714D02*
X107759580Y-30088095D01*
X107759580Y-30088095D02*
X107664342Y-30040476D01*
X107664342Y-30040476D02*
X107426247Y-30040476D01*
X107426247Y-30040476D02*
X107331009Y-30088095D01*
X107331009Y-30088095D02*
X107283390Y-30135714D01*
X107283390Y-30135714D02*
X107235771Y-30230952D01*
X107235771Y-30230952D02*
X107235771Y-30421428D01*
X107235771Y-30421428D02*
X107283390Y-30516666D01*
X107283390Y-30516666D02*
X107331009Y-30564285D01*
X107331009Y-30564285D02*
X107426247Y-30611904D01*
X107807200Y-57659523D02*
X107854819Y-57516666D01*
X107854819Y-57516666D02*
X107854819Y-57278571D01*
X107854819Y-57278571D02*
X107807200Y-57183333D01*
X107807200Y-57183333D02*
X107759580Y-57135714D01*
X107759580Y-57135714D02*
X107664342Y-57088095D01*
X107664342Y-57088095D02*
X107569104Y-57088095D01*
X107569104Y-57088095D02*
X107473866Y-57135714D01*
X107473866Y-57135714D02*
X107426247Y-57183333D01*
X107426247Y-57183333D02*
X107378628Y-57278571D01*
X107378628Y-57278571D02*
X107331009Y-57469047D01*
X107331009Y-57469047D02*
X107283390Y-57564285D01*
X107283390Y-57564285D02*
X107235771Y-57611904D01*
X107235771Y-57611904D02*
X107140533Y-57659523D01*
X107140533Y-57659523D02*
X107045295Y-57659523D01*
X107045295Y-57659523D02*
X106950057Y-57611904D01*
X106950057Y-57611904D02*
X106902438Y-57564285D01*
X106902438Y-57564285D02*
X106854819Y-57469047D01*
X106854819Y-57469047D02*
X106854819Y-57230952D01*
X106854819Y-57230952D02*
X106902438Y-57088095D01*
X106854819Y-56754761D02*
X107854819Y-56516666D01*
X107854819Y-56516666D02*
X107140533Y-56326190D01*
X107140533Y-56326190D02*
X107854819Y-56135714D01*
X107854819Y-56135714D02*
X106854819Y-55897619D01*
X107854819Y-54992857D02*
X107854819Y-55564285D01*
X107854819Y-55278571D02*
X106854819Y-55278571D01*
X106854819Y-55278571D02*
X106997676Y-55373809D01*
X106997676Y-55373809D02*
X107092914Y-55469047D01*
X107092914Y-55469047D02*
X107140533Y-55564285D01*
X107188152Y-54135714D02*
X107854819Y-54135714D01*
X106807200Y-54373809D02*
X107521485Y-54611904D01*
X107521485Y-54611904D02*
X107521485Y-53992857D01*
X38759580Y-72042857D02*
X38807200Y-72090476D01*
X38807200Y-72090476D02*
X38854819Y-72233333D01*
X38854819Y-72233333D02*
X38854819Y-72328571D01*
X38854819Y-72328571D02*
X38807200Y-72471428D01*
X38807200Y-72471428D02*
X38711961Y-72566666D01*
X38711961Y-72566666D02*
X38616723Y-72614285D01*
X38616723Y-72614285D02*
X38426247Y-72661904D01*
X38426247Y-72661904D02*
X38283390Y-72661904D01*
X38283390Y-72661904D02*
X38092914Y-72614285D01*
X38092914Y-72614285D02*
X37997676Y-72566666D01*
X37997676Y-72566666D02*
X37902438Y-72471428D01*
X37902438Y-72471428D02*
X37854819Y-72328571D01*
X37854819Y-72328571D02*
X37854819Y-72233333D01*
X37854819Y-72233333D02*
X37902438Y-72090476D01*
X37902438Y-72090476D02*
X37950057Y-72042857D01*
X38854819Y-71090476D02*
X38854819Y-71661904D01*
X38854819Y-71376190D02*
X37854819Y-71376190D01*
X37854819Y-71376190D02*
X37997676Y-71471428D01*
X37997676Y-71471428D02*
X38092914Y-71566666D01*
X38092914Y-71566666D02*
X38140533Y-71661904D01*
X37854819Y-70233333D02*
X37854819Y-70423809D01*
X37854819Y-70423809D02*
X37902438Y-70519047D01*
X37902438Y-70519047D02*
X37950057Y-70566666D01*
X37950057Y-70566666D02*
X38092914Y-70661904D01*
X38092914Y-70661904D02*
X38283390Y-70709523D01*
X38283390Y-70709523D02*
X38664342Y-70709523D01*
X38664342Y-70709523D02*
X38759580Y-70661904D01*
X38759580Y-70661904D02*
X38807200Y-70614285D01*
X38807200Y-70614285D02*
X38854819Y-70519047D01*
X38854819Y-70519047D02*
X38854819Y-70328571D01*
X38854819Y-70328571D02*
X38807200Y-70233333D01*
X38807200Y-70233333D02*
X38759580Y-70185714D01*
X38759580Y-70185714D02*
X38664342Y-70138095D01*
X38664342Y-70138095D02*
X38426247Y-70138095D01*
X38426247Y-70138095D02*
X38331009Y-70185714D01*
X38331009Y-70185714D02*
X38283390Y-70233333D01*
X38283390Y-70233333D02*
X38235771Y-70328571D01*
X38235771Y-70328571D02*
X38235771Y-70519047D01*
X38235771Y-70519047D02*
X38283390Y-70614285D01*
X38283390Y-70614285D02*
X38331009Y-70661904D01*
X38331009Y-70661904D02*
X38426247Y-70709523D01*
X95807200Y-33183332D02*
X95854819Y-33040475D01*
X95854819Y-33040475D02*
X95854819Y-32802380D01*
X95854819Y-32802380D02*
X95807200Y-32707142D01*
X95807200Y-32707142D02*
X95759580Y-32659523D01*
X95759580Y-32659523D02*
X95664342Y-32611904D01*
X95664342Y-32611904D02*
X95569104Y-32611904D01*
X95569104Y-32611904D02*
X95473866Y-32659523D01*
X95473866Y-32659523D02*
X95426247Y-32707142D01*
X95426247Y-32707142D02*
X95378628Y-32802380D01*
X95378628Y-32802380D02*
X95331009Y-32992856D01*
X95331009Y-32992856D02*
X95283390Y-33088094D01*
X95283390Y-33088094D02*
X95235771Y-33135713D01*
X95235771Y-33135713D02*
X95140533Y-33183332D01*
X95140533Y-33183332D02*
X95045295Y-33183332D01*
X95045295Y-33183332D02*
X94950057Y-33135713D01*
X94950057Y-33135713D02*
X94902438Y-33088094D01*
X94902438Y-33088094D02*
X94854819Y-32992856D01*
X94854819Y-32992856D02*
X94854819Y-32754761D01*
X94854819Y-32754761D02*
X94902438Y-32611904D01*
X94854819Y-32278570D02*
X95854819Y-32040475D01*
X95854819Y-32040475D02*
X95140533Y-31849999D01*
X95140533Y-31849999D02*
X95854819Y-31659523D01*
X95854819Y-31659523D02*
X94854819Y-31421428D01*
X95854819Y-30992856D02*
X95854819Y-30802380D01*
X95854819Y-30802380D02*
X95807200Y-30707142D01*
X95807200Y-30707142D02*
X95759580Y-30659523D01*
X95759580Y-30659523D02*
X95616723Y-30564285D01*
X95616723Y-30564285D02*
X95426247Y-30516666D01*
X95426247Y-30516666D02*
X95045295Y-30516666D01*
X95045295Y-30516666D02*
X94950057Y-30564285D01*
X94950057Y-30564285D02*
X94902438Y-30611904D01*
X94902438Y-30611904D02*
X94854819Y-30707142D01*
X94854819Y-30707142D02*
X94854819Y-30897618D01*
X94854819Y-30897618D02*
X94902438Y-30992856D01*
X94902438Y-30992856D02*
X94950057Y-31040475D01*
X94950057Y-31040475D02*
X95045295Y-31088094D01*
X95045295Y-31088094D02*
X95283390Y-31088094D01*
X95283390Y-31088094D02*
X95378628Y-31040475D01*
X95378628Y-31040475D02*
X95426247Y-30992856D01*
X95426247Y-30992856D02*
X95473866Y-30897618D01*
X95473866Y-30897618D02*
X95473866Y-30707142D01*
X95473866Y-30707142D02*
X95426247Y-30611904D01*
X95426247Y-30611904D02*
X95378628Y-30564285D01*
X95378628Y-30564285D02*
X95283390Y-30516666D01*
X51532142Y-65124819D02*
X51198809Y-64648628D01*
X50960714Y-65124819D02*
X50960714Y-64124819D01*
X50960714Y-64124819D02*
X51341666Y-64124819D01*
X51341666Y-64124819D02*
X51436904Y-64172438D01*
X51436904Y-64172438D02*
X51484523Y-64220057D01*
X51484523Y-64220057D02*
X51532142Y-64315295D01*
X51532142Y-64315295D02*
X51532142Y-64458152D01*
X51532142Y-64458152D02*
X51484523Y-64553390D01*
X51484523Y-64553390D02*
X51436904Y-64601009D01*
X51436904Y-64601009D02*
X51341666Y-64648628D01*
X51341666Y-64648628D02*
X50960714Y-64648628D01*
X51913095Y-64220057D02*
X51960714Y-64172438D01*
X51960714Y-64172438D02*
X52055952Y-64124819D01*
X52055952Y-64124819D02*
X52294047Y-64124819D01*
X52294047Y-64124819D02*
X52389285Y-64172438D01*
X52389285Y-64172438D02*
X52436904Y-64220057D01*
X52436904Y-64220057D02*
X52484523Y-64315295D01*
X52484523Y-64315295D02*
X52484523Y-64410533D01*
X52484523Y-64410533D02*
X52436904Y-64553390D01*
X52436904Y-64553390D02*
X51865476Y-65124819D01*
X51865476Y-65124819D02*
X52484523Y-65124819D01*
X53103571Y-64124819D02*
X53198809Y-64124819D01*
X53198809Y-64124819D02*
X53294047Y-64172438D01*
X53294047Y-64172438D02*
X53341666Y-64220057D01*
X53341666Y-64220057D02*
X53389285Y-64315295D01*
X53389285Y-64315295D02*
X53436904Y-64505771D01*
X53436904Y-64505771D02*
X53436904Y-64743866D01*
X53436904Y-64743866D02*
X53389285Y-64934342D01*
X53389285Y-64934342D02*
X53341666Y-65029580D01*
X53341666Y-65029580D02*
X53294047Y-65077200D01*
X53294047Y-65077200D02*
X53198809Y-65124819D01*
X53198809Y-65124819D02*
X53103571Y-65124819D01*
X53103571Y-65124819D02*
X53008333Y-65077200D01*
X53008333Y-65077200D02*
X52960714Y-65029580D01*
X52960714Y-65029580D02*
X52913095Y-64934342D01*
X52913095Y-64934342D02*
X52865476Y-64743866D01*
X52865476Y-64743866D02*
X52865476Y-64505771D01*
X52865476Y-64505771D02*
X52913095Y-64315295D01*
X52913095Y-64315295D02*
X52960714Y-64220057D01*
X52960714Y-64220057D02*
X53008333Y-64172438D01*
X53008333Y-64172438D02*
X53103571Y-64124819D01*
X68012414Y-97500892D02*
X67679081Y-97024701D01*
X67440986Y-97500892D02*
X67440986Y-96500892D01*
X67440986Y-96500892D02*
X67821938Y-96500892D01*
X67821938Y-96500892D02*
X67917176Y-96548511D01*
X67917176Y-96548511D02*
X67964795Y-96596130D01*
X67964795Y-96596130D02*
X68012414Y-96691368D01*
X68012414Y-96691368D02*
X68012414Y-96834225D01*
X68012414Y-96834225D02*
X67964795Y-96929463D01*
X67964795Y-96929463D02*
X67917176Y-96977082D01*
X67917176Y-96977082D02*
X67821938Y-97024701D01*
X67821938Y-97024701D02*
X67440986Y-97024701D01*
X68393367Y-96596130D02*
X68440986Y-96548511D01*
X68440986Y-96548511D02*
X68536224Y-96500892D01*
X68536224Y-96500892D02*
X68774319Y-96500892D01*
X68774319Y-96500892D02*
X68869557Y-96548511D01*
X68869557Y-96548511D02*
X68917176Y-96596130D01*
X68917176Y-96596130D02*
X68964795Y-96691368D01*
X68964795Y-96691368D02*
X68964795Y-96786606D01*
X68964795Y-96786606D02*
X68917176Y-96929463D01*
X68917176Y-96929463D02*
X68345748Y-97500892D01*
X68345748Y-97500892D02*
X68964795Y-97500892D01*
X66469819Y-43186904D02*
X67279342Y-43186904D01*
X67279342Y-43186904D02*
X67374580Y-43139285D01*
X67374580Y-43139285D02*
X67422200Y-43091666D01*
X67422200Y-43091666D02*
X67469819Y-42996428D01*
X67469819Y-42996428D02*
X67469819Y-42805952D01*
X67469819Y-42805952D02*
X67422200Y-42710714D01*
X67422200Y-42710714D02*
X67374580Y-42663095D01*
X67374580Y-42663095D02*
X67279342Y-42615476D01*
X67279342Y-42615476D02*
X66469819Y-42615476D01*
X67469819Y-41615476D02*
X67469819Y-42186904D01*
X67469819Y-41901190D02*
X66469819Y-41901190D01*
X66469819Y-41901190D02*
X66612676Y-41996428D01*
X66612676Y-41996428D02*
X66707914Y-42091666D01*
X66707914Y-42091666D02*
X66755533Y-42186904D01*
X83807200Y-45183332D02*
X83854819Y-45040475D01*
X83854819Y-45040475D02*
X83854819Y-44802380D01*
X83854819Y-44802380D02*
X83807200Y-44707142D01*
X83807200Y-44707142D02*
X83759580Y-44659523D01*
X83759580Y-44659523D02*
X83664342Y-44611904D01*
X83664342Y-44611904D02*
X83569104Y-44611904D01*
X83569104Y-44611904D02*
X83473866Y-44659523D01*
X83473866Y-44659523D02*
X83426247Y-44707142D01*
X83426247Y-44707142D02*
X83378628Y-44802380D01*
X83378628Y-44802380D02*
X83331009Y-44992856D01*
X83331009Y-44992856D02*
X83283390Y-45088094D01*
X83283390Y-45088094D02*
X83235771Y-45135713D01*
X83235771Y-45135713D02*
X83140533Y-45183332D01*
X83140533Y-45183332D02*
X83045295Y-45183332D01*
X83045295Y-45183332D02*
X82950057Y-45135713D01*
X82950057Y-45135713D02*
X82902438Y-45088094D01*
X82902438Y-45088094D02*
X82854819Y-44992856D01*
X82854819Y-44992856D02*
X82854819Y-44754761D01*
X82854819Y-44754761D02*
X82902438Y-44611904D01*
X82854819Y-44278570D02*
X83854819Y-44040475D01*
X83854819Y-44040475D02*
X83140533Y-43849999D01*
X83140533Y-43849999D02*
X83854819Y-43659523D01*
X83854819Y-43659523D02*
X82854819Y-43421428D01*
X83188152Y-42611904D02*
X83854819Y-42611904D01*
X82807200Y-42849999D02*
X83521485Y-43088094D01*
X83521485Y-43088094D02*
X83521485Y-42469047D01*
X73759580Y-59792857D02*
X73807200Y-59840476D01*
X73807200Y-59840476D02*
X73854819Y-59983333D01*
X73854819Y-59983333D02*
X73854819Y-60078571D01*
X73854819Y-60078571D02*
X73807200Y-60221428D01*
X73807200Y-60221428D02*
X73711961Y-60316666D01*
X73711961Y-60316666D02*
X73616723Y-60364285D01*
X73616723Y-60364285D02*
X73426247Y-60411904D01*
X73426247Y-60411904D02*
X73283390Y-60411904D01*
X73283390Y-60411904D02*
X73092914Y-60364285D01*
X73092914Y-60364285D02*
X72997676Y-60316666D01*
X72997676Y-60316666D02*
X72902438Y-60221428D01*
X72902438Y-60221428D02*
X72854819Y-60078571D01*
X72854819Y-60078571D02*
X72854819Y-59983333D01*
X72854819Y-59983333D02*
X72902438Y-59840476D01*
X72902438Y-59840476D02*
X72950057Y-59792857D01*
X72950057Y-59411904D02*
X72902438Y-59364285D01*
X72902438Y-59364285D02*
X72854819Y-59269047D01*
X72854819Y-59269047D02*
X72854819Y-59030952D01*
X72854819Y-59030952D02*
X72902438Y-58935714D01*
X72902438Y-58935714D02*
X72950057Y-58888095D01*
X72950057Y-58888095D02*
X73045295Y-58840476D01*
X73045295Y-58840476D02*
X73140533Y-58840476D01*
X73140533Y-58840476D02*
X73283390Y-58888095D01*
X73283390Y-58888095D02*
X73854819Y-59459523D01*
X73854819Y-59459523D02*
X73854819Y-58840476D01*
X72854819Y-58507142D02*
X72854819Y-57888095D01*
X72854819Y-57888095D02*
X73235771Y-58221428D01*
X73235771Y-58221428D02*
X73235771Y-58078571D01*
X73235771Y-58078571D02*
X73283390Y-57983333D01*
X73283390Y-57983333D02*
X73331009Y-57935714D01*
X73331009Y-57935714D02*
X73426247Y-57888095D01*
X73426247Y-57888095D02*
X73664342Y-57888095D01*
X73664342Y-57888095D02*
X73759580Y-57935714D01*
X73759580Y-57935714D02*
X73807200Y-57983333D01*
X73807200Y-57983333D02*
X73854819Y-58078571D01*
X73854819Y-58078571D02*
X73854819Y-58364285D01*
X73854819Y-58364285D02*
X73807200Y-58459523D01*
X73807200Y-58459523D02*
X73759580Y-58507142D01*
X95807200Y-45659523D02*
X95854819Y-45516666D01*
X95854819Y-45516666D02*
X95854819Y-45278571D01*
X95854819Y-45278571D02*
X95807200Y-45183333D01*
X95807200Y-45183333D02*
X95759580Y-45135714D01*
X95759580Y-45135714D02*
X95664342Y-45088095D01*
X95664342Y-45088095D02*
X95569104Y-45088095D01*
X95569104Y-45088095D02*
X95473866Y-45135714D01*
X95473866Y-45135714D02*
X95426247Y-45183333D01*
X95426247Y-45183333D02*
X95378628Y-45278571D01*
X95378628Y-45278571D02*
X95331009Y-45469047D01*
X95331009Y-45469047D02*
X95283390Y-45564285D01*
X95283390Y-45564285D02*
X95235771Y-45611904D01*
X95235771Y-45611904D02*
X95140533Y-45659523D01*
X95140533Y-45659523D02*
X95045295Y-45659523D01*
X95045295Y-45659523D02*
X94950057Y-45611904D01*
X94950057Y-45611904D02*
X94902438Y-45564285D01*
X94902438Y-45564285D02*
X94854819Y-45469047D01*
X94854819Y-45469047D02*
X94854819Y-45230952D01*
X94854819Y-45230952D02*
X94902438Y-45088095D01*
X94854819Y-44754761D02*
X95854819Y-44516666D01*
X95854819Y-44516666D02*
X95140533Y-44326190D01*
X95140533Y-44326190D02*
X95854819Y-44135714D01*
X95854819Y-44135714D02*
X94854819Y-43897619D01*
X95854819Y-42992857D02*
X95854819Y-43564285D01*
X95854819Y-43278571D02*
X94854819Y-43278571D01*
X94854819Y-43278571D02*
X94997676Y-43373809D01*
X94997676Y-43373809D02*
X95092914Y-43469047D01*
X95092914Y-43469047D02*
X95140533Y-43564285D01*
X94854819Y-42373809D02*
X94854819Y-42278571D01*
X94854819Y-42278571D02*
X94902438Y-42183333D01*
X94902438Y-42183333D02*
X94950057Y-42135714D01*
X94950057Y-42135714D02*
X95045295Y-42088095D01*
X95045295Y-42088095D02*
X95235771Y-42040476D01*
X95235771Y-42040476D02*
X95473866Y-42040476D01*
X95473866Y-42040476D02*
X95664342Y-42088095D01*
X95664342Y-42088095D02*
X95759580Y-42135714D01*
X95759580Y-42135714D02*
X95807200Y-42183333D01*
X95807200Y-42183333D02*
X95854819Y-42278571D01*
X95854819Y-42278571D02*
X95854819Y-42373809D01*
X95854819Y-42373809D02*
X95807200Y-42469047D01*
X95807200Y-42469047D02*
X95759580Y-42516666D01*
X95759580Y-42516666D02*
X95664342Y-42564285D01*
X95664342Y-42564285D02*
X95473866Y-42611904D01*
X95473866Y-42611904D02*
X95235771Y-42611904D01*
X95235771Y-42611904D02*
X95045295Y-42564285D01*
X95045295Y-42564285D02*
X94950057Y-42516666D01*
X94950057Y-42516666D02*
X94902438Y-42469047D01*
X94902438Y-42469047D02*
X94854819Y-42373809D01*
X97759580Y-23742857D02*
X97807200Y-23790476D01*
X97807200Y-23790476D02*
X97854819Y-23933333D01*
X97854819Y-23933333D02*
X97854819Y-24028571D01*
X97854819Y-24028571D02*
X97807200Y-24171428D01*
X97807200Y-24171428D02*
X97711961Y-24266666D01*
X97711961Y-24266666D02*
X97616723Y-24314285D01*
X97616723Y-24314285D02*
X97426247Y-24361904D01*
X97426247Y-24361904D02*
X97283390Y-24361904D01*
X97283390Y-24361904D02*
X97092914Y-24314285D01*
X97092914Y-24314285D02*
X96997676Y-24266666D01*
X96997676Y-24266666D02*
X96902438Y-24171428D01*
X96902438Y-24171428D02*
X96854819Y-24028571D01*
X96854819Y-24028571D02*
X96854819Y-23933333D01*
X96854819Y-23933333D02*
X96902438Y-23790476D01*
X96902438Y-23790476D02*
X96950057Y-23742857D01*
X96854819Y-23409523D02*
X96854819Y-22790476D01*
X96854819Y-22790476D02*
X97235771Y-23123809D01*
X97235771Y-23123809D02*
X97235771Y-22980952D01*
X97235771Y-22980952D02*
X97283390Y-22885714D01*
X97283390Y-22885714D02*
X97331009Y-22838095D01*
X97331009Y-22838095D02*
X97426247Y-22790476D01*
X97426247Y-22790476D02*
X97664342Y-22790476D01*
X97664342Y-22790476D02*
X97759580Y-22838095D01*
X97759580Y-22838095D02*
X97807200Y-22885714D01*
X97807200Y-22885714D02*
X97854819Y-22980952D01*
X97854819Y-22980952D02*
X97854819Y-23266666D01*
X97854819Y-23266666D02*
X97807200Y-23361904D01*
X97807200Y-23361904D02*
X97759580Y-23409523D01*
X97854819Y-21838095D02*
X97854819Y-22409523D01*
X97854819Y-22123809D02*
X96854819Y-22123809D01*
X96854819Y-22123809D02*
X96997676Y-22219047D01*
X96997676Y-22219047D02*
X97092914Y-22314285D01*
X97092914Y-22314285D02*
X97140533Y-22409523D01*
X73759580Y-23742857D02*
X73807200Y-23790476D01*
X73807200Y-23790476D02*
X73854819Y-23933333D01*
X73854819Y-23933333D02*
X73854819Y-24028571D01*
X73854819Y-24028571D02*
X73807200Y-24171428D01*
X73807200Y-24171428D02*
X73711961Y-24266666D01*
X73711961Y-24266666D02*
X73616723Y-24314285D01*
X73616723Y-24314285D02*
X73426247Y-24361904D01*
X73426247Y-24361904D02*
X73283390Y-24361904D01*
X73283390Y-24361904D02*
X73092914Y-24314285D01*
X73092914Y-24314285D02*
X72997676Y-24266666D01*
X72997676Y-24266666D02*
X72902438Y-24171428D01*
X72902438Y-24171428D02*
X72854819Y-24028571D01*
X72854819Y-24028571D02*
X72854819Y-23933333D01*
X72854819Y-23933333D02*
X72902438Y-23790476D01*
X72902438Y-23790476D02*
X72950057Y-23742857D01*
X72854819Y-23409523D02*
X72854819Y-22790476D01*
X72854819Y-22790476D02*
X73235771Y-23123809D01*
X73235771Y-23123809D02*
X73235771Y-22980952D01*
X73235771Y-22980952D02*
X73283390Y-22885714D01*
X73283390Y-22885714D02*
X73331009Y-22838095D01*
X73331009Y-22838095D02*
X73426247Y-22790476D01*
X73426247Y-22790476D02*
X73664342Y-22790476D01*
X73664342Y-22790476D02*
X73759580Y-22838095D01*
X73759580Y-22838095D02*
X73807200Y-22885714D01*
X73807200Y-22885714D02*
X73854819Y-22980952D01*
X73854819Y-22980952D02*
X73854819Y-23266666D01*
X73854819Y-23266666D02*
X73807200Y-23361904D01*
X73807200Y-23361904D02*
X73759580Y-23409523D01*
X72950057Y-22409523D02*
X72902438Y-22361904D01*
X72902438Y-22361904D02*
X72854819Y-22266666D01*
X72854819Y-22266666D02*
X72854819Y-22028571D01*
X72854819Y-22028571D02*
X72902438Y-21933333D01*
X72902438Y-21933333D02*
X72950057Y-21885714D01*
X72950057Y-21885714D02*
X73045295Y-21838095D01*
X73045295Y-21838095D02*
X73140533Y-21838095D01*
X73140533Y-21838095D02*
X73283390Y-21885714D01*
X73283390Y-21885714D02*
X73854819Y-22457142D01*
X73854819Y-22457142D02*
X73854819Y-21838095D01*
X97759580Y-59742857D02*
X97807200Y-59790476D01*
X97807200Y-59790476D02*
X97854819Y-59933333D01*
X97854819Y-59933333D02*
X97854819Y-60028571D01*
X97854819Y-60028571D02*
X97807200Y-60171428D01*
X97807200Y-60171428D02*
X97711961Y-60266666D01*
X97711961Y-60266666D02*
X97616723Y-60314285D01*
X97616723Y-60314285D02*
X97426247Y-60361904D01*
X97426247Y-60361904D02*
X97283390Y-60361904D01*
X97283390Y-60361904D02*
X97092914Y-60314285D01*
X97092914Y-60314285D02*
X96997676Y-60266666D01*
X96997676Y-60266666D02*
X96902438Y-60171428D01*
X96902438Y-60171428D02*
X96854819Y-60028571D01*
X96854819Y-60028571D02*
X96854819Y-59933333D01*
X96854819Y-59933333D02*
X96902438Y-59790476D01*
X96902438Y-59790476D02*
X96950057Y-59742857D01*
X96950057Y-59361904D02*
X96902438Y-59314285D01*
X96902438Y-59314285D02*
X96854819Y-59219047D01*
X96854819Y-59219047D02*
X96854819Y-58980952D01*
X96854819Y-58980952D02*
X96902438Y-58885714D01*
X96902438Y-58885714D02*
X96950057Y-58838095D01*
X96950057Y-58838095D02*
X97045295Y-58790476D01*
X97045295Y-58790476D02*
X97140533Y-58790476D01*
X97140533Y-58790476D02*
X97283390Y-58838095D01*
X97283390Y-58838095D02*
X97854819Y-59409523D01*
X97854819Y-59409523D02*
X97854819Y-58790476D01*
X97854819Y-58314285D02*
X97854819Y-58123809D01*
X97854819Y-58123809D02*
X97807200Y-58028571D01*
X97807200Y-58028571D02*
X97759580Y-57980952D01*
X97759580Y-57980952D02*
X97616723Y-57885714D01*
X97616723Y-57885714D02*
X97426247Y-57838095D01*
X97426247Y-57838095D02*
X97045295Y-57838095D01*
X97045295Y-57838095D02*
X96950057Y-57885714D01*
X96950057Y-57885714D02*
X96902438Y-57933333D01*
X96902438Y-57933333D02*
X96854819Y-58028571D01*
X96854819Y-58028571D02*
X96854819Y-58219047D01*
X96854819Y-58219047D02*
X96902438Y-58314285D01*
X96902438Y-58314285D02*
X96950057Y-58361904D01*
X96950057Y-58361904D02*
X97045295Y-58409523D01*
X97045295Y-58409523D02*
X97283390Y-58409523D01*
X97283390Y-58409523D02*
X97378628Y-58361904D01*
X97378628Y-58361904D02*
X97426247Y-58314285D01*
X97426247Y-58314285D02*
X97473866Y-58219047D01*
X97473866Y-58219047D02*
X97473866Y-58028571D01*
X97473866Y-58028571D02*
X97426247Y-57933333D01*
X97426247Y-57933333D02*
X97378628Y-57885714D01*
X97378628Y-57885714D02*
X97283390Y-57838095D01*
X83807200Y-21183332D02*
X83854819Y-21040475D01*
X83854819Y-21040475D02*
X83854819Y-20802380D01*
X83854819Y-20802380D02*
X83807200Y-20707142D01*
X83807200Y-20707142D02*
X83759580Y-20659523D01*
X83759580Y-20659523D02*
X83664342Y-20611904D01*
X83664342Y-20611904D02*
X83569104Y-20611904D01*
X83569104Y-20611904D02*
X83473866Y-20659523D01*
X83473866Y-20659523D02*
X83426247Y-20707142D01*
X83426247Y-20707142D02*
X83378628Y-20802380D01*
X83378628Y-20802380D02*
X83331009Y-20992856D01*
X83331009Y-20992856D02*
X83283390Y-21088094D01*
X83283390Y-21088094D02*
X83235771Y-21135713D01*
X83235771Y-21135713D02*
X83140533Y-21183332D01*
X83140533Y-21183332D02*
X83045295Y-21183332D01*
X83045295Y-21183332D02*
X82950057Y-21135713D01*
X82950057Y-21135713D02*
X82902438Y-21088094D01*
X82902438Y-21088094D02*
X82854819Y-20992856D01*
X82854819Y-20992856D02*
X82854819Y-20754761D01*
X82854819Y-20754761D02*
X82902438Y-20611904D01*
X82854819Y-20278570D02*
X83854819Y-20040475D01*
X83854819Y-20040475D02*
X83140533Y-19849999D01*
X83140533Y-19849999D02*
X83854819Y-19659523D01*
X83854819Y-19659523D02*
X82854819Y-19421428D01*
X82854819Y-18611904D02*
X82854819Y-18802380D01*
X82854819Y-18802380D02*
X82902438Y-18897618D01*
X82902438Y-18897618D02*
X82950057Y-18945237D01*
X82950057Y-18945237D02*
X83092914Y-19040475D01*
X83092914Y-19040475D02*
X83283390Y-19088094D01*
X83283390Y-19088094D02*
X83664342Y-19088094D01*
X83664342Y-19088094D02*
X83759580Y-19040475D01*
X83759580Y-19040475D02*
X83807200Y-18992856D01*
X83807200Y-18992856D02*
X83854819Y-18897618D01*
X83854819Y-18897618D02*
X83854819Y-18707142D01*
X83854819Y-18707142D02*
X83807200Y-18611904D01*
X83807200Y-18611904D02*
X83759580Y-18564285D01*
X83759580Y-18564285D02*
X83664342Y-18516666D01*
X83664342Y-18516666D02*
X83426247Y-18516666D01*
X83426247Y-18516666D02*
X83331009Y-18564285D01*
X83331009Y-18564285D02*
X83283390Y-18611904D01*
X83283390Y-18611904D02*
X83235771Y-18707142D01*
X83235771Y-18707142D02*
X83235771Y-18897618D01*
X83235771Y-18897618D02*
X83283390Y-18992856D01*
X83283390Y-18992856D02*
X83331009Y-19040475D01*
X83331009Y-19040475D02*
X83426247Y-19088094D01*
X85759580Y-59292857D02*
X85807200Y-59340476D01*
X85807200Y-59340476D02*
X85854819Y-59483333D01*
X85854819Y-59483333D02*
X85854819Y-59578571D01*
X85854819Y-59578571D02*
X85807200Y-59721428D01*
X85807200Y-59721428D02*
X85711961Y-59816666D01*
X85711961Y-59816666D02*
X85616723Y-59864285D01*
X85616723Y-59864285D02*
X85426247Y-59911904D01*
X85426247Y-59911904D02*
X85283390Y-59911904D01*
X85283390Y-59911904D02*
X85092914Y-59864285D01*
X85092914Y-59864285D02*
X84997676Y-59816666D01*
X84997676Y-59816666D02*
X84902438Y-59721428D01*
X84902438Y-59721428D02*
X84854819Y-59578571D01*
X84854819Y-59578571D02*
X84854819Y-59483333D01*
X84854819Y-59483333D02*
X84902438Y-59340476D01*
X84902438Y-59340476D02*
X84950057Y-59292857D01*
X84854819Y-58959523D02*
X84854819Y-58340476D01*
X84854819Y-58340476D02*
X85235771Y-58673809D01*
X85235771Y-58673809D02*
X85235771Y-58530952D01*
X85235771Y-58530952D02*
X85283390Y-58435714D01*
X85283390Y-58435714D02*
X85331009Y-58388095D01*
X85331009Y-58388095D02*
X85426247Y-58340476D01*
X85426247Y-58340476D02*
X85664342Y-58340476D01*
X85664342Y-58340476D02*
X85759580Y-58388095D01*
X85759580Y-58388095D02*
X85807200Y-58435714D01*
X85807200Y-58435714D02*
X85854819Y-58530952D01*
X85854819Y-58530952D02*
X85854819Y-58816666D01*
X85854819Y-58816666D02*
X85807200Y-58911904D01*
X85807200Y-58911904D02*
X85759580Y-58959523D01*
X85188152Y-57483333D02*
X85854819Y-57483333D01*
X84807200Y-57721428D02*
X85521485Y-57959523D01*
X85521485Y-57959523D02*
X85521485Y-57340476D01*
X83807200Y-33183332D02*
X83854819Y-33040475D01*
X83854819Y-33040475D02*
X83854819Y-32802380D01*
X83854819Y-32802380D02*
X83807200Y-32707142D01*
X83807200Y-32707142D02*
X83759580Y-32659523D01*
X83759580Y-32659523D02*
X83664342Y-32611904D01*
X83664342Y-32611904D02*
X83569104Y-32611904D01*
X83569104Y-32611904D02*
X83473866Y-32659523D01*
X83473866Y-32659523D02*
X83426247Y-32707142D01*
X83426247Y-32707142D02*
X83378628Y-32802380D01*
X83378628Y-32802380D02*
X83331009Y-32992856D01*
X83331009Y-32992856D02*
X83283390Y-33088094D01*
X83283390Y-33088094D02*
X83235771Y-33135713D01*
X83235771Y-33135713D02*
X83140533Y-33183332D01*
X83140533Y-33183332D02*
X83045295Y-33183332D01*
X83045295Y-33183332D02*
X82950057Y-33135713D01*
X82950057Y-33135713D02*
X82902438Y-33088094D01*
X82902438Y-33088094D02*
X82854819Y-32992856D01*
X82854819Y-32992856D02*
X82854819Y-32754761D01*
X82854819Y-32754761D02*
X82902438Y-32611904D01*
X82854819Y-32278570D02*
X83854819Y-32040475D01*
X83854819Y-32040475D02*
X83140533Y-31849999D01*
X83140533Y-31849999D02*
X83854819Y-31659523D01*
X83854819Y-31659523D02*
X82854819Y-31421428D01*
X82854819Y-30564285D02*
X82854819Y-31040475D01*
X82854819Y-31040475D02*
X83331009Y-31088094D01*
X83331009Y-31088094D02*
X83283390Y-31040475D01*
X83283390Y-31040475D02*
X83235771Y-30945237D01*
X83235771Y-30945237D02*
X83235771Y-30707142D01*
X83235771Y-30707142D02*
X83283390Y-30611904D01*
X83283390Y-30611904D02*
X83331009Y-30564285D01*
X83331009Y-30564285D02*
X83426247Y-30516666D01*
X83426247Y-30516666D02*
X83664342Y-30516666D01*
X83664342Y-30516666D02*
X83759580Y-30564285D01*
X83759580Y-30564285D02*
X83807200Y-30611904D01*
X83807200Y-30611904D02*
X83854819Y-30707142D01*
X83854819Y-30707142D02*
X83854819Y-30945237D01*
X83854819Y-30945237D02*
X83807200Y-31040475D01*
X83807200Y-31040475D02*
X83759580Y-31088094D01*
X73759580Y-35742857D02*
X73807200Y-35790476D01*
X73807200Y-35790476D02*
X73854819Y-35933333D01*
X73854819Y-35933333D02*
X73854819Y-36028571D01*
X73854819Y-36028571D02*
X73807200Y-36171428D01*
X73807200Y-36171428D02*
X73711961Y-36266666D01*
X73711961Y-36266666D02*
X73616723Y-36314285D01*
X73616723Y-36314285D02*
X73426247Y-36361904D01*
X73426247Y-36361904D02*
X73283390Y-36361904D01*
X73283390Y-36361904D02*
X73092914Y-36314285D01*
X73092914Y-36314285D02*
X72997676Y-36266666D01*
X72997676Y-36266666D02*
X72902438Y-36171428D01*
X72902438Y-36171428D02*
X72854819Y-36028571D01*
X72854819Y-36028571D02*
X72854819Y-35933333D01*
X72854819Y-35933333D02*
X72902438Y-35790476D01*
X72902438Y-35790476D02*
X72950057Y-35742857D01*
X72950057Y-35361904D02*
X72902438Y-35314285D01*
X72902438Y-35314285D02*
X72854819Y-35219047D01*
X72854819Y-35219047D02*
X72854819Y-34980952D01*
X72854819Y-34980952D02*
X72902438Y-34885714D01*
X72902438Y-34885714D02*
X72950057Y-34838095D01*
X72950057Y-34838095D02*
X73045295Y-34790476D01*
X73045295Y-34790476D02*
X73140533Y-34790476D01*
X73140533Y-34790476D02*
X73283390Y-34838095D01*
X73283390Y-34838095D02*
X73854819Y-35409523D01*
X73854819Y-35409523D02*
X73854819Y-34790476D01*
X72854819Y-33885714D02*
X72854819Y-34361904D01*
X72854819Y-34361904D02*
X73331009Y-34409523D01*
X73331009Y-34409523D02*
X73283390Y-34361904D01*
X73283390Y-34361904D02*
X73235771Y-34266666D01*
X73235771Y-34266666D02*
X73235771Y-34028571D01*
X73235771Y-34028571D02*
X73283390Y-33933333D01*
X73283390Y-33933333D02*
X73331009Y-33885714D01*
X73331009Y-33885714D02*
X73426247Y-33838095D01*
X73426247Y-33838095D02*
X73664342Y-33838095D01*
X73664342Y-33838095D02*
X73759580Y-33885714D01*
X73759580Y-33885714D02*
X73807200Y-33933333D01*
X73807200Y-33933333D02*
X73854819Y-34028571D01*
X73854819Y-34028571D02*
X73854819Y-34266666D01*
X73854819Y-34266666D02*
X73807200Y-34361904D01*
X73807200Y-34361904D02*
X73759580Y-34409523D01*
X73759580Y-71692857D02*
X73807200Y-71740476D01*
X73807200Y-71740476D02*
X73854819Y-71883333D01*
X73854819Y-71883333D02*
X73854819Y-71978571D01*
X73854819Y-71978571D02*
X73807200Y-72121428D01*
X73807200Y-72121428D02*
X73711961Y-72216666D01*
X73711961Y-72216666D02*
X73616723Y-72264285D01*
X73616723Y-72264285D02*
X73426247Y-72311904D01*
X73426247Y-72311904D02*
X73283390Y-72311904D01*
X73283390Y-72311904D02*
X73092914Y-72264285D01*
X73092914Y-72264285D02*
X72997676Y-72216666D01*
X72997676Y-72216666D02*
X72902438Y-72121428D01*
X72902438Y-72121428D02*
X72854819Y-71978571D01*
X72854819Y-71978571D02*
X72854819Y-71883333D01*
X72854819Y-71883333D02*
X72902438Y-71740476D01*
X72902438Y-71740476D02*
X72950057Y-71692857D01*
X72950057Y-71311904D02*
X72902438Y-71264285D01*
X72902438Y-71264285D02*
X72854819Y-71169047D01*
X72854819Y-71169047D02*
X72854819Y-70930952D01*
X72854819Y-70930952D02*
X72902438Y-70835714D01*
X72902438Y-70835714D02*
X72950057Y-70788095D01*
X72950057Y-70788095D02*
X73045295Y-70740476D01*
X73045295Y-70740476D02*
X73140533Y-70740476D01*
X73140533Y-70740476D02*
X73283390Y-70788095D01*
X73283390Y-70788095D02*
X73854819Y-71359523D01*
X73854819Y-71359523D02*
X73854819Y-70740476D01*
X73854819Y-69788095D02*
X73854819Y-70359523D01*
X73854819Y-70073809D02*
X72854819Y-70073809D01*
X72854819Y-70073809D02*
X72997676Y-70169047D01*
X72997676Y-70169047D02*
X73092914Y-70264285D01*
X73092914Y-70264285D02*
X73140533Y-70359523D01*
X85759580Y-47242857D02*
X85807200Y-47290476D01*
X85807200Y-47290476D02*
X85854819Y-47433333D01*
X85854819Y-47433333D02*
X85854819Y-47528571D01*
X85854819Y-47528571D02*
X85807200Y-47671428D01*
X85807200Y-47671428D02*
X85711961Y-47766666D01*
X85711961Y-47766666D02*
X85616723Y-47814285D01*
X85616723Y-47814285D02*
X85426247Y-47861904D01*
X85426247Y-47861904D02*
X85283390Y-47861904D01*
X85283390Y-47861904D02*
X85092914Y-47814285D01*
X85092914Y-47814285D02*
X84997676Y-47766666D01*
X84997676Y-47766666D02*
X84902438Y-47671428D01*
X84902438Y-47671428D02*
X84854819Y-47528571D01*
X84854819Y-47528571D02*
X84854819Y-47433333D01*
X84854819Y-47433333D02*
X84902438Y-47290476D01*
X84902438Y-47290476D02*
X84950057Y-47242857D01*
X84950057Y-46861904D02*
X84902438Y-46814285D01*
X84902438Y-46814285D02*
X84854819Y-46719047D01*
X84854819Y-46719047D02*
X84854819Y-46480952D01*
X84854819Y-46480952D02*
X84902438Y-46385714D01*
X84902438Y-46385714D02*
X84950057Y-46338095D01*
X84950057Y-46338095D02*
X85045295Y-46290476D01*
X85045295Y-46290476D02*
X85140533Y-46290476D01*
X85140533Y-46290476D02*
X85283390Y-46338095D01*
X85283390Y-46338095D02*
X85854819Y-46909523D01*
X85854819Y-46909523D02*
X85854819Y-46290476D01*
X84854819Y-45957142D02*
X84854819Y-45290476D01*
X84854819Y-45290476D02*
X85854819Y-45719047D01*
X68112414Y-100700892D02*
X67779081Y-100224701D01*
X67540986Y-100700892D02*
X67540986Y-99700892D01*
X67540986Y-99700892D02*
X67921938Y-99700892D01*
X67921938Y-99700892D02*
X68017176Y-99748511D01*
X68017176Y-99748511D02*
X68064795Y-99796130D01*
X68064795Y-99796130D02*
X68112414Y-99891368D01*
X68112414Y-99891368D02*
X68112414Y-100034225D01*
X68112414Y-100034225D02*
X68064795Y-100129463D01*
X68064795Y-100129463D02*
X68017176Y-100177082D01*
X68017176Y-100177082D02*
X67921938Y-100224701D01*
X67921938Y-100224701D02*
X67540986Y-100224701D01*
X69064795Y-100700892D02*
X68493367Y-100700892D01*
X68779081Y-100700892D02*
X68779081Y-99700892D01*
X68779081Y-99700892D02*
X68683843Y-99843749D01*
X68683843Y-99843749D02*
X68588605Y-99938987D01*
X68588605Y-99938987D02*
X68493367Y-99986606D01*
X107807200Y-69659523D02*
X107854819Y-69516666D01*
X107854819Y-69516666D02*
X107854819Y-69278571D01*
X107854819Y-69278571D02*
X107807200Y-69183333D01*
X107807200Y-69183333D02*
X107759580Y-69135714D01*
X107759580Y-69135714D02*
X107664342Y-69088095D01*
X107664342Y-69088095D02*
X107569104Y-69088095D01*
X107569104Y-69088095D02*
X107473866Y-69135714D01*
X107473866Y-69135714D02*
X107426247Y-69183333D01*
X107426247Y-69183333D02*
X107378628Y-69278571D01*
X107378628Y-69278571D02*
X107331009Y-69469047D01*
X107331009Y-69469047D02*
X107283390Y-69564285D01*
X107283390Y-69564285D02*
X107235771Y-69611904D01*
X107235771Y-69611904D02*
X107140533Y-69659523D01*
X107140533Y-69659523D02*
X107045295Y-69659523D01*
X107045295Y-69659523D02*
X106950057Y-69611904D01*
X106950057Y-69611904D02*
X106902438Y-69564285D01*
X106902438Y-69564285D02*
X106854819Y-69469047D01*
X106854819Y-69469047D02*
X106854819Y-69230952D01*
X106854819Y-69230952D02*
X106902438Y-69088095D01*
X106854819Y-68754761D02*
X107854819Y-68516666D01*
X107854819Y-68516666D02*
X107140533Y-68326190D01*
X107140533Y-68326190D02*
X107854819Y-68135714D01*
X107854819Y-68135714D02*
X106854819Y-67897619D01*
X107854819Y-66992857D02*
X107854819Y-67564285D01*
X107854819Y-67278571D02*
X106854819Y-67278571D01*
X106854819Y-67278571D02*
X106997676Y-67373809D01*
X106997676Y-67373809D02*
X107092914Y-67469047D01*
X107092914Y-67469047D02*
X107140533Y-67564285D01*
X106854819Y-66659523D02*
X106854819Y-66040476D01*
X106854819Y-66040476D02*
X107235771Y-66373809D01*
X107235771Y-66373809D02*
X107235771Y-66230952D01*
X107235771Y-66230952D02*
X107283390Y-66135714D01*
X107283390Y-66135714D02*
X107331009Y-66088095D01*
X107331009Y-66088095D02*
X107426247Y-66040476D01*
X107426247Y-66040476D02*
X107664342Y-66040476D01*
X107664342Y-66040476D02*
X107759580Y-66088095D01*
X107759580Y-66088095D02*
X107807200Y-66135714D01*
X107807200Y-66135714D02*
X107854819Y-66230952D01*
X107854819Y-66230952D02*
X107854819Y-66516666D01*
X107854819Y-66516666D02*
X107807200Y-66611904D01*
X107807200Y-66611904D02*
X107759580Y-66659523D01*
X27957142Y-36889580D02*
X27909523Y-36937200D01*
X27909523Y-36937200D02*
X27766666Y-36984819D01*
X27766666Y-36984819D02*
X27671428Y-36984819D01*
X27671428Y-36984819D02*
X27528571Y-36937200D01*
X27528571Y-36937200D02*
X27433333Y-36841961D01*
X27433333Y-36841961D02*
X27385714Y-36746723D01*
X27385714Y-36746723D02*
X27338095Y-36556247D01*
X27338095Y-36556247D02*
X27338095Y-36413390D01*
X27338095Y-36413390D02*
X27385714Y-36222914D01*
X27385714Y-36222914D02*
X27433333Y-36127676D01*
X27433333Y-36127676D02*
X27528571Y-36032438D01*
X27528571Y-36032438D02*
X27671428Y-35984819D01*
X27671428Y-35984819D02*
X27766666Y-35984819D01*
X27766666Y-35984819D02*
X27909523Y-36032438D01*
X27909523Y-36032438D02*
X27957142Y-36080057D01*
X28338095Y-36080057D02*
X28385714Y-36032438D01*
X28385714Y-36032438D02*
X28480952Y-35984819D01*
X28480952Y-35984819D02*
X28719047Y-35984819D01*
X28719047Y-35984819D02*
X28814285Y-36032438D01*
X28814285Y-36032438D02*
X28861904Y-36080057D01*
X28861904Y-36080057D02*
X28909523Y-36175295D01*
X28909523Y-36175295D02*
X28909523Y-36270533D01*
X28909523Y-36270533D02*
X28861904Y-36413390D01*
X28861904Y-36413390D02*
X28290476Y-36984819D01*
X28290476Y-36984819D02*
X28909523Y-36984819D01*
X29528571Y-35984819D02*
X29623809Y-35984819D01*
X29623809Y-35984819D02*
X29719047Y-36032438D01*
X29719047Y-36032438D02*
X29766666Y-36080057D01*
X29766666Y-36080057D02*
X29814285Y-36175295D01*
X29814285Y-36175295D02*
X29861904Y-36365771D01*
X29861904Y-36365771D02*
X29861904Y-36603866D01*
X29861904Y-36603866D02*
X29814285Y-36794342D01*
X29814285Y-36794342D02*
X29766666Y-36889580D01*
X29766666Y-36889580D02*
X29719047Y-36937200D01*
X29719047Y-36937200D02*
X29623809Y-36984819D01*
X29623809Y-36984819D02*
X29528571Y-36984819D01*
X29528571Y-36984819D02*
X29433333Y-36937200D01*
X29433333Y-36937200D02*
X29385714Y-36889580D01*
X29385714Y-36889580D02*
X29338095Y-36794342D01*
X29338095Y-36794342D02*
X29290476Y-36603866D01*
X29290476Y-36603866D02*
X29290476Y-36365771D01*
X29290476Y-36365771D02*
X29338095Y-36175295D01*
X29338095Y-36175295D02*
X29385714Y-36080057D01*
X29385714Y-36080057D02*
X29433333Y-36032438D01*
X29433333Y-36032438D02*
X29528571Y-35984819D01*
X40359580Y-72142857D02*
X40407200Y-72190476D01*
X40407200Y-72190476D02*
X40454819Y-72333333D01*
X40454819Y-72333333D02*
X40454819Y-72428571D01*
X40454819Y-72428571D02*
X40407200Y-72571428D01*
X40407200Y-72571428D02*
X40311961Y-72666666D01*
X40311961Y-72666666D02*
X40216723Y-72714285D01*
X40216723Y-72714285D02*
X40026247Y-72761904D01*
X40026247Y-72761904D02*
X39883390Y-72761904D01*
X39883390Y-72761904D02*
X39692914Y-72714285D01*
X39692914Y-72714285D02*
X39597676Y-72666666D01*
X39597676Y-72666666D02*
X39502438Y-72571428D01*
X39502438Y-72571428D02*
X39454819Y-72428571D01*
X39454819Y-72428571D02*
X39454819Y-72333333D01*
X39454819Y-72333333D02*
X39502438Y-72190476D01*
X39502438Y-72190476D02*
X39550057Y-72142857D01*
X40454819Y-71190476D02*
X40454819Y-71761904D01*
X40454819Y-71476190D02*
X39454819Y-71476190D01*
X39454819Y-71476190D02*
X39597676Y-71571428D01*
X39597676Y-71571428D02*
X39692914Y-71666666D01*
X39692914Y-71666666D02*
X39740533Y-71761904D01*
X39454819Y-70285714D02*
X39454819Y-70761904D01*
X39454819Y-70761904D02*
X39931009Y-70809523D01*
X39931009Y-70809523D02*
X39883390Y-70761904D01*
X39883390Y-70761904D02*
X39835771Y-70666666D01*
X39835771Y-70666666D02*
X39835771Y-70428571D01*
X39835771Y-70428571D02*
X39883390Y-70333333D01*
X39883390Y-70333333D02*
X39931009Y-70285714D01*
X39931009Y-70285714D02*
X40026247Y-70238095D01*
X40026247Y-70238095D02*
X40264342Y-70238095D01*
X40264342Y-70238095D02*
X40359580Y-70285714D01*
X40359580Y-70285714D02*
X40407200Y-70333333D01*
X40407200Y-70333333D02*
X40454819Y-70428571D01*
X40454819Y-70428571D02*
X40454819Y-70666666D01*
X40454819Y-70666666D02*
X40407200Y-70761904D01*
X40407200Y-70761904D02*
X40359580Y-70809523D01*
X107807200Y-21659523D02*
X107854819Y-21516666D01*
X107854819Y-21516666D02*
X107854819Y-21278571D01*
X107854819Y-21278571D02*
X107807200Y-21183333D01*
X107807200Y-21183333D02*
X107759580Y-21135714D01*
X107759580Y-21135714D02*
X107664342Y-21088095D01*
X107664342Y-21088095D02*
X107569104Y-21088095D01*
X107569104Y-21088095D02*
X107473866Y-21135714D01*
X107473866Y-21135714D02*
X107426247Y-21183333D01*
X107426247Y-21183333D02*
X107378628Y-21278571D01*
X107378628Y-21278571D02*
X107331009Y-21469047D01*
X107331009Y-21469047D02*
X107283390Y-21564285D01*
X107283390Y-21564285D02*
X107235771Y-21611904D01*
X107235771Y-21611904D02*
X107140533Y-21659523D01*
X107140533Y-21659523D02*
X107045295Y-21659523D01*
X107045295Y-21659523D02*
X106950057Y-21611904D01*
X106950057Y-21611904D02*
X106902438Y-21564285D01*
X106902438Y-21564285D02*
X106854819Y-21469047D01*
X106854819Y-21469047D02*
X106854819Y-21230952D01*
X106854819Y-21230952D02*
X106902438Y-21088095D01*
X106854819Y-20754761D02*
X107854819Y-20516666D01*
X107854819Y-20516666D02*
X107140533Y-20326190D01*
X107140533Y-20326190D02*
X107854819Y-20135714D01*
X107854819Y-20135714D02*
X106854819Y-19897619D01*
X107854819Y-18992857D02*
X107854819Y-19564285D01*
X107854819Y-19278571D02*
X106854819Y-19278571D01*
X106854819Y-19278571D02*
X106997676Y-19373809D01*
X106997676Y-19373809D02*
X107092914Y-19469047D01*
X107092914Y-19469047D02*
X107140533Y-19564285D01*
X106854819Y-18659523D02*
X106854819Y-17992857D01*
X106854819Y-17992857D02*
X107854819Y-18421428D01*
X64738900Y-97549406D02*
X65453185Y-97549406D01*
X65453185Y-97549406D02*
X65596042Y-97597025D01*
X65596042Y-97597025D02*
X65691281Y-97692263D01*
X65691281Y-97692263D02*
X65738900Y-97835120D01*
X65738900Y-97835120D02*
X65738900Y-97930358D01*
X64738900Y-96597025D02*
X64738900Y-97073215D01*
X64738900Y-97073215D02*
X65215090Y-97120834D01*
X65215090Y-97120834D02*
X65167471Y-97073215D01*
X65167471Y-97073215D02*
X65119852Y-96977977D01*
X65119852Y-96977977D02*
X65119852Y-96739882D01*
X65119852Y-96739882D02*
X65167471Y-96644644D01*
X65167471Y-96644644D02*
X65215090Y-96597025D01*
X65215090Y-96597025D02*
X65310328Y-96549406D01*
X65310328Y-96549406D02*
X65548423Y-96549406D01*
X65548423Y-96549406D02*
X65643661Y-96597025D01*
X65643661Y-96597025D02*
X65691281Y-96644644D01*
X65691281Y-96644644D02*
X65738900Y-96739882D01*
X65738900Y-96739882D02*
X65738900Y-96977977D01*
X65738900Y-96977977D02*
X65691281Y-97073215D01*
X65691281Y-97073215D02*
X65643661Y-97120834D01*
X85759580Y-71792857D02*
X85807200Y-71840476D01*
X85807200Y-71840476D02*
X85854819Y-71983333D01*
X85854819Y-71983333D02*
X85854819Y-72078571D01*
X85854819Y-72078571D02*
X85807200Y-72221428D01*
X85807200Y-72221428D02*
X85711961Y-72316666D01*
X85711961Y-72316666D02*
X85616723Y-72364285D01*
X85616723Y-72364285D02*
X85426247Y-72411904D01*
X85426247Y-72411904D02*
X85283390Y-72411904D01*
X85283390Y-72411904D02*
X85092914Y-72364285D01*
X85092914Y-72364285D02*
X84997676Y-72316666D01*
X84997676Y-72316666D02*
X84902438Y-72221428D01*
X84902438Y-72221428D02*
X84854819Y-72078571D01*
X84854819Y-72078571D02*
X84854819Y-71983333D01*
X84854819Y-71983333D02*
X84902438Y-71840476D01*
X84902438Y-71840476D02*
X84950057Y-71792857D01*
X84854819Y-71459523D02*
X84854819Y-70840476D01*
X84854819Y-70840476D02*
X85235771Y-71173809D01*
X85235771Y-71173809D02*
X85235771Y-71030952D01*
X85235771Y-71030952D02*
X85283390Y-70935714D01*
X85283390Y-70935714D02*
X85331009Y-70888095D01*
X85331009Y-70888095D02*
X85426247Y-70840476D01*
X85426247Y-70840476D02*
X85664342Y-70840476D01*
X85664342Y-70840476D02*
X85759580Y-70888095D01*
X85759580Y-70888095D02*
X85807200Y-70935714D01*
X85807200Y-70935714D02*
X85854819Y-71030952D01*
X85854819Y-71030952D02*
X85854819Y-71316666D01*
X85854819Y-71316666D02*
X85807200Y-71411904D01*
X85807200Y-71411904D02*
X85759580Y-71459523D01*
X84854819Y-69935714D02*
X84854819Y-70411904D01*
X84854819Y-70411904D02*
X85331009Y-70459523D01*
X85331009Y-70459523D02*
X85283390Y-70411904D01*
X85283390Y-70411904D02*
X85235771Y-70316666D01*
X85235771Y-70316666D02*
X85235771Y-70078571D01*
X85235771Y-70078571D02*
X85283390Y-69983333D01*
X85283390Y-69983333D02*
X85331009Y-69935714D01*
X85331009Y-69935714D02*
X85426247Y-69888095D01*
X85426247Y-69888095D02*
X85664342Y-69888095D01*
X85664342Y-69888095D02*
X85759580Y-69935714D01*
X85759580Y-69935714D02*
X85807200Y-69983333D01*
X85807200Y-69983333D02*
X85854819Y-70078571D01*
X85854819Y-70078571D02*
X85854819Y-70316666D01*
X85854819Y-70316666D02*
X85807200Y-70411904D01*
X85807200Y-70411904D02*
X85759580Y-70459523D01*
X17454819Y-97133333D02*
X18169104Y-97133333D01*
X18169104Y-97133333D02*
X18311961Y-97180952D01*
X18311961Y-97180952D02*
X18407200Y-97276190D01*
X18407200Y-97276190D02*
X18454819Y-97419047D01*
X18454819Y-97419047D02*
X18454819Y-97514285D01*
X17550057Y-96704761D02*
X17502438Y-96657142D01*
X17502438Y-96657142D02*
X17454819Y-96561904D01*
X17454819Y-96561904D02*
X17454819Y-96323809D01*
X17454819Y-96323809D02*
X17502438Y-96228571D01*
X17502438Y-96228571D02*
X17550057Y-96180952D01*
X17550057Y-96180952D02*
X17645295Y-96133333D01*
X17645295Y-96133333D02*
X17740533Y-96133333D01*
X17740533Y-96133333D02*
X17883390Y-96180952D01*
X17883390Y-96180952D02*
X18454819Y-96752380D01*
X18454819Y-96752380D02*
X18454819Y-96133333D01*
X98259580Y-47742857D02*
X98307200Y-47790476D01*
X98307200Y-47790476D02*
X98354819Y-47933333D01*
X98354819Y-47933333D02*
X98354819Y-48028571D01*
X98354819Y-48028571D02*
X98307200Y-48171428D01*
X98307200Y-48171428D02*
X98211961Y-48266666D01*
X98211961Y-48266666D02*
X98116723Y-48314285D01*
X98116723Y-48314285D02*
X97926247Y-48361904D01*
X97926247Y-48361904D02*
X97783390Y-48361904D01*
X97783390Y-48361904D02*
X97592914Y-48314285D01*
X97592914Y-48314285D02*
X97497676Y-48266666D01*
X97497676Y-48266666D02*
X97402438Y-48171428D01*
X97402438Y-48171428D02*
X97354819Y-48028571D01*
X97354819Y-48028571D02*
X97354819Y-47933333D01*
X97354819Y-47933333D02*
X97402438Y-47790476D01*
X97402438Y-47790476D02*
X97450057Y-47742857D01*
X97450057Y-47361904D02*
X97402438Y-47314285D01*
X97402438Y-47314285D02*
X97354819Y-47219047D01*
X97354819Y-47219047D02*
X97354819Y-46980952D01*
X97354819Y-46980952D02*
X97402438Y-46885714D01*
X97402438Y-46885714D02*
X97450057Y-46838095D01*
X97450057Y-46838095D02*
X97545295Y-46790476D01*
X97545295Y-46790476D02*
X97640533Y-46790476D01*
X97640533Y-46790476D02*
X97783390Y-46838095D01*
X97783390Y-46838095D02*
X98354819Y-47409523D01*
X98354819Y-47409523D02*
X98354819Y-46790476D01*
X97783390Y-46219047D02*
X97735771Y-46314285D01*
X97735771Y-46314285D02*
X97688152Y-46361904D01*
X97688152Y-46361904D02*
X97592914Y-46409523D01*
X97592914Y-46409523D02*
X97545295Y-46409523D01*
X97545295Y-46409523D02*
X97450057Y-46361904D01*
X97450057Y-46361904D02*
X97402438Y-46314285D01*
X97402438Y-46314285D02*
X97354819Y-46219047D01*
X97354819Y-46219047D02*
X97354819Y-46028571D01*
X97354819Y-46028571D02*
X97402438Y-45933333D01*
X97402438Y-45933333D02*
X97450057Y-45885714D01*
X97450057Y-45885714D02*
X97545295Y-45838095D01*
X97545295Y-45838095D02*
X97592914Y-45838095D01*
X97592914Y-45838095D02*
X97688152Y-45885714D01*
X97688152Y-45885714D02*
X97735771Y-45933333D01*
X97735771Y-45933333D02*
X97783390Y-46028571D01*
X97783390Y-46028571D02*
X97783390Y-46219047D01*
X97783390Y-46219047D02*
X97831009Y-46314285D01*
X97831009Y-46314285D02*
X97878628Y-46361904D01*
X97878628Y-46361904D02*
X97973866Y-46409523D01*
X97973866Y-46409523D02*
X98164342Y-46409523D01*
X98164342Y-46409523D02*
X98259580Y-46361904D01*
X98259580Y-46361904D02*
X98307200Y-46314285D01*
X98307200Y-46314285D02*
X98354819Y-46219047D01*
X98354819Y-46219047D02*
X98354819Y-46028571D01*
X98354819Y-46028571D02*
X98307200Y-45933333D01*
X98307200Y-45933333D02*
X98259580Y-45885714D01*
X98259580Y-45885714D02*
X98164342Y-45838095D01*
X98164342Y-45838095D02*
X97973866Y-45838095D01*
X97973866Y-45838095D02*
X97878628Y-45885714D01*
X97878628Y-45885714D02*
X97831009Y-45933333D01*
X97831009Y-45933333D02*
X97783390Y-46028571D01*
X95807200Y-57659523D02*
X95854819Y-57516666D01*
X95854819Y-57516666D02*
X95854819Y-57278571D01*
X95854819Y-57278571D02*
X95807200Y-57183333D01*
X95807200Y-57183333D02*
X95759580Y-57135714D01*
X95759580Y-57135714D02*
X95664342Y-57088095D01*
X95664342Y-57088095D02*
X95569104Y-57088095D01*
X95569104Y-57088095D02*
X95473866Y-57135714D01*
X95473866Y-57135714D02*
X95426247Y-57183333D01*
X95426247Y-57183333D02*
X95378628Y-57278571D01*
X95378628Y-57278571D02*
X95331009Y-57469047D01*
X95331009Y-57469047D02*
X95283390Y-57564285D01*
X95283390Y-57564285D02*
X95235771Y-57611904D01*
X95235771Y-57611904D02*
X95140533Y-57659523D01*
X95140533Y-57659523D02*
X95045295Y-57659523D01*
X95045295Y-57659523D02*
X94950057Y-57611904D01*
X94950057Y-57611904D02*
X94902438Y-57564285D01*
X94902438Y-57564285D02*
X94854819Y-57469047D01*
X94854819Y-57469047D02*
X94854819Y-57230952D01*
X94854819Y-57230952D02*
X94902438Y-57088095D01*
X94854819Y-56754761D02*
X95854819Y-56516666D01*
X95854819Y-56516666D02*
X95140533Y-56326190D01*
X95140533Y-56326190D02*
X95854819Y-56135714D01*
X95854819Y-56135714D02*
X94854819Y-55897619D01*
X95854819Y-54992857D02*
X95854819Y-55564285D01*
X95854819Y-55278571D02*
X94854819Y-55278571D01*
X94854819Y-55278571D02*
X94997676Y-55373809D01*
X94997676Y-55373809D02*
X95092914Y-55469047D01*
X95092914Y-55469047D02*
X95140533Y-55564285D01*
X95854819Y-54040476D02*
X95854819Y-54611904D01*
X95854819Y-54326190D02*
X94854819Y-54326190D01*
X94854819Y-54326190D02*
X94997676Y-54421428D01*
X94997676Y-54421428D02*
X95092914Y-54516666D01*
X95092914Y-54516666D02*
X95140533Y-54611904D01*
X60907200Y-40583332D02*
X60954819Y-40440475D01*
X60954819Y-40440475D02*
X60954819Y-40202380D01*
X60954819Y-40202380D02*
X60907200Y-40107142D01*
X60907200Y-40107142D02*
X60859580Y-40059523D01*
X60859580Y-40059523D02*
X60764342Y-40011904D01*
X60764342Y-40011904D02*
X60669104Y-40011904D01*
X60669104Y-40011904D02*
X60573866Y-40059523D01*
X60573866Y-40059523D02*
X60526247Y-40107142D01*
X60526247Y-40107142D02*
X60478628Y-40202380D01*
X60478628Y-40202380D02*
X60431009Y-40392856D01*
X60431009Y-40392856D02*
X60383390Y-40488094D01*
X60383390Y-40488094D02*
X60335771Y-40535713D01*
X60335771Y-40535713D02*
X60240533Y-40583332D01*
X60240533Y-40583332D02*
X60145295Y-40583332D01*
X60145295Y-40583332D02*
X60050057Y-40535713D01*
X60050057Y-40535713D02*
X60002438Y-40488094D01*
X60002438Y-40488094D02*
X59954819Y-40392856D01*
X59954819Y-40392856D02*
X59954819Y-40154761D01*
X59954819Y-40154761D02*
X60002438Y-40011904D01*
X59954819Y-39678570D02*
X60954819Y-39440475D01*
X60954819Y-39440475D02*
X60240533Y-39249999D01*
X60240533Y-39249999D02*
X60954819Y-39059523D01*
X60954819Y-39059523D02*
X59954819Y-38821428D01*
X59954819Y-38535713D02*
X59954819Y-37869047D01*
X59954819Y-37869047D02*
X60954819Y-38297618D01*
X68124819Y-49367857D02*
X67648628Y-49701190D01*
X68124819Y-49939285D02*
X67124819Y-49939285D01*
X67124819Y-49939285D02*
X67124819Y-49558333D01*
X67124819Y-49558333D02*
X67172438Y-49463095D01*
X67172438Y-49463095D02*
X67220057Y-49415476D01*
X67220057Y-49415476D02*
X67315295Y-49367857D01*
X67315295Y-49367857D02*
X67458152Y-49367857D01*
X67458152Y-49367857D02*
X67553390Y-49415476D01*
X67553390Y-49415476D02*
X67601009Y-49463095D01*
X67601009Y-49463095D02*
X67648628Y-49558333D01*
X67648628Y-49558333D02*
X67648628Y-49939285D01*
X68124819Y-48415476D02*
X68124819Y-48986904D01*
X68124819Y-48701190D02*
X67124819Y-48701190D01*
X67124819Y-48701190D02*
X67267676Y-48796428D01*
X67267676Y-48796428D02*
X67362914Y-48891666D01*
X67362914Y-48891666D02*
X67410533Y-48986904D01*
X67124819Y-47796428D02*
X67124819Y-47701190D01*
X67124819Y-47701190D02*
X67172438Y-47605952D01*
X67172438Y-47605952D02*
X67220057Y-47558333D01*
X67220057Y-47558333D02*
X67315295Y-47510714D01*
X67315295Y-47510714D02*
X67505771Y-47463095D01*
X67505771Y-47463095D02*
X67743866Y-47463095D01*
X67743866Y-47463095D02*
X67934342Y-47510714D01*
X67934342Y-47510714D02*
X68029580Y-47558333D01*
X68029580Y-47558333D02*
X68077200Y-47605952D01*
X68077200Y-47605952D02*
X68124819Y-47701190D01*
X68124819Y-47701190D02*
X68124819Y-47796428D01*
X68124819Y-47796428D02*
X68077200Y-47891666D01*
X68077200Y-47891666D02*
X68029580Y-47939285D01*
X68029580Y-47939285D02*
X67934342Y-47986904D01*
X67934342Y-47986904D02*
X67743866Y-48034523D01*
X67743866Y-48034523D02*
X67505771Y-48034523D01*
X67505771Y-48034523D02*
X67315295Y-47986904D01*
X67315295Y-47986904D02*
X67220057Y-47939285D01*
X67220057Y-47939285D02*
X67172438Y-47891666D01*
X67172438Y-47891666D02*
X67124819Y-47796428D01*
X83807200Y-57183332D02*
X83854819Y-57040475D01*
X83854819Y-57040475D02*
X83854819Y-56802380D01*
X83854819Y-56802380D02*
X83807200Y-56707142D01*
X83807200Y-56707142D02*
X83759580Y-56659523D01*
X83759580Y-56659523D02*
X83664342Y-56611904D01*
X83664342Y-56611904D02*
X83569104Y-56611904D01*
X83569104Y-56611904D02*
X83473866Y-56659523D01*
X83473866Y-56659523D02*
X83426247Y-56707142D01*
X83426247Y-56707142D02*
X83378628Y-56802380D01*
X83378628Y-56802380D02*
X83331009Y-56992856D01*
X83331009Y-56992856D02*
X83283390Y-57088094D01*
X83283390Y-57088094D02*
X83235771Y-57135713D01*
X83235771Y-57135713D02*
X83140533Y-57183332D01*
X83140533Y-57183332D02*
X83045295Y-57183332D01*
X83045295Y-57183332D02*
X82950057Y-57135713D01*
X82950057Y-57135713D02*
X82902438Y-57088094D01*
X82902438Y-57088094D02*
X82854819Y-56992856D01*
X82854819Y-56992856D02*
X82854819Y-56754761D01*
X82854819Y-56754761D02*
X82902438Y-56611904D01*
X82854819Y-56278570D02*
X83854819Y-56040475D01*
X83854819Y-56040475D02*
X83140533Y-55849999D01*
X83140533Y-55849999D02*
X83854819Y-55659523D01*
X83854819Y-55659523D02*
X82854819Y-55421428D01*
X82854819Y-55135713D02*
X82854819Y-54516666D01*
X82854819Y-54516666D02*
X83235771Y-54849999D01*
X83235771Y-54849999D02*
X83235771Y-54707142D01*
X83235771Y-54707142D02*
X83283390Y-54611904D01*
X83283390Y-54611904D02*
X83331009Y-54564285D01*
X83331009Y-54564285D02*
X83426247Y-54516666D01*
X83426247Y-54516666D02*
X83664342Y-54516666D01*
X83664342Y-54516666D02*
X83759580Y-54564285D01*
X83759580Y-54564285D02*
X83807200Y-54611904D01*
X83807200Y-54611904D02*
X83854819Y-54707142D01*
X83854819Y-54707142D02*
X83854819Y-54992856D01*
X83854819Y-54992856D02*
X83807200Y-55088094D01*
X83807200Y-55088094D02*
X83759580Y-55135713D01*
X83807200Y-69433332D02*
X83854819Y-69290475D01*
X83854819Y-69290475D02*
X83854819Y-69052380D01*
X83854819Y-69052380D02*
X83807200Y-68957142D01*
X83807200Y-68957142D02*
X83759580Y-68909523D01*
X83759580Y-68909523D02*
X83664342Y-68861904D01*
X83664342Y-68861904D02*
X83569104Y-68861904D01*
X83569104Y-68861904D02*
X83473866Y-68909523D01*
X83473866Y-68909523D02*
X83426247Y-68957142D01*
X83426247Y-68957142D02*
X83378628Y-69052380D01*
X83378628Y-69052380D02*
X83331009Y-69242856D01*
X83331009Y-69242856D02*
X83283390Y-69338094D01*
X83283390Y-69338094D02*
X83235771Y-69385713D01*
X83235771Y-69385713D02*
X83140533Y-69433332D01*
X83140533Y-69433332D02*
X83045295Y-69433332D01*
X83045295Y-69433332D02*
X82950057Y-69385713D01*
X82950057Y-69385713D02*
X82902438Y-69338094D01*
X82902438Y-69338094D02*
X82854819Y-69242856D01*
X82854819Y-69242856D02*
X82854819Y-69004761D01*
X82854819Y-69004761D02*
X82902438Y-68861904D01*
X82854819Y-68528570D02*
X83854819Y-68290475D01*
X83854819Y-68290475D02*
X83140533Y-68099999D01*
X83140533Y-68099999D02*
X83854819Y-67909523D01*
X83854819Y-67909523D02*
X82854819Y-67671428D01*
X82950057Y-67338094D02*
X82902438Y-67290475D01*
X82902438Y-67290475D02*
X82854819Y-67195237D01*
X82854819Y-67195237D02*
X82854819Y-66957142D01*
X82854819Y-66957142D02*
X82902438Y-66861904D01*
X82902438Y-66861904D02*
X82950057Y-66814285D01*
X82950057Y-66814285D02*
X83045295Y-66766666D01*
X83045295Y-66766666D02*
X83140533Y-66766666D01*
X83140533Y-66766666D02*
X83283390Y-66814285D01*
X83283390Y-66814285D02*
X83854819Y-67385713D01*
X83854819Y-67385713D02*
X83854819Y-66766666D01*
X69363900Y-97369406D02*
X70078185Y-97369406D01*
X70078185Y-97369406D02*
X70221042Y-97417025D01*
X70221042Y-97417025D02*
X70316281Y-97512263D01*
X70316281Y-97512263D02*
X70363900Y-97655120D01*
X70363900Y-97655120D02*
X70363900Y-97750358D01*
X69697233Y-96464644D02*
X70363900Y-96464644D01*
X69316281Y-96702739D02*
X70030566Y-96940834D01*
X70030566Y-96940834D02*
X70030566Y-96321787D01*
X20433200Y-27333332D02*
X20480819Y-27190475D01*
X20480819Y-27190475D02*
X20480819Y-26952380D01*
X20480819Y-26952380D02*
X20433200Y-26857142D01*
X20433200Y-26857142D02*
X20385580Y-26809523D01*
X20385580Y-26809523D02*
X20290342Y-26761904D01*
X20290342Y-26761904D02*
X20195104Y-26761904D01*
X20195104Y-26761904D02*
X20099866Y-26809523D01*
X20099866Y-26809523D02*
X20052247Y-26857142D01*
X20052247Y-26857142D02*
X20004628Y-26952380D01*
X20004628Y-26952380D02*
X19957009Y-27142856D01*
X19957009Y-27142856D02*
X19909390Y-27238094D01*
X19909390Y-27238094D02*
X19861771Y-27285713D01*
X19861771Y-27285713D02*
X19766533Y-27333332D01*
X19766533Y-27333332D02*
X19671295Y-27333332D01*
X19671295Y-27333332D02*
X19576057Y-27285713D01*
X19576057Y-27285713D02*
X19528438Y-27238094D01*
X19528438Y-27238094D02*
X19480819Y-27142856D01*
X19480819Y-27142856D02*
X19480819Y-26904761D01*
X19480819Y-26904761D02*
X19528438Y-26761904D01*
X19480819Y-26428570D02*
X20480819Y-26190475D01*
X20480819Y-26190475D02*
X19766533Y-25999999D01*
X19766533Y-25999999D02*
X20480819Y-25809523D01*
X20480819Y-25809523D02*
X19480819Y-25571428D01*
X20480819Y-24666666D02*
X20480819Y-25238094D01*
X20480819Y-24952380D02*
X19480819Y-24952380D01*
X19480819Y-24952380D02*
X19623676Y-25047618D01*
X19623676Y-25047618D02*
X19718914Y-25142856D01*
X19718914Y-25142856D02*
X19766533Y-25238094D01*
D13*
%TO.C,SW8*%
X87900000Y-17600000D02*
X87900000Y-22100000D01*
X90400000Y-23350000D02*
X91900000Y-23350000D01*
X91900000Y-16350000D02*
X90400000Y-16350000D01*
X94400000Y-22100000D02*
X94400000Y-17600000D01*
%TO.C,C30*%
X96890000Y-31684420D02*
X96890000Y-31965580D01*
X97910000Y-31684420D02*
X97910000Y-31965580D01*
%TO.C,C33*%
X84890000Y-19734420D02*
X84890000Y-20015580D01*
X85910000Y-19734420D02*
X85910000Y-20015580D01*
%TO.C,U9*%
X54870000Y-61010000D02*
X55620000Y-61010000D01*
X54870000Y-61760000D02*
X54870000Y-61010000D01*
X54870000Y-67230000D02*
X54870000Y-66480000D01*
X55620000Y-67230000D02*
X54870000Y-67230000D01*
X60340000Y-61010000D02*
X61090000Y-61010000D01*
X61090000Y-61010000D02*
X61090000Y-61760000D01*
X61090000Y-66480000D02*
X61090000Y-67230000D01*
X61090000Y-67230000D02*
X60340000Y-67230000D01*
X59930000Y-60510000D02*
X59690000Y-60180000D01*
X60170000Y-60180000D01*
X59930000Y-60510000D01*
G36*
X59930000Y-60510000D02*
G01*
X59690000Y-60180000D01*
X60170000Y-60180000D01*
X59930000Y-60510000D01*
G37*
%TO.C,SW12*%
X87900000Y-65600000D02*
X87900000Y-70100000D01*
X90400000Y-71350000D02*
X91900000Y-71350000D01*
X91900000Y-64350000D02*
X90400000Y-64350000D01*
X94400000Y-70100000D02*
X94400000Y-65600000D01*
%TO.C,J11*%
X21540000Y-68860000D02*
X36760000Y-68860000D01*
X21540000Y-69970000D02*
X21540000Y-68860000D01*
X21890000Y-71470000D02*
X21540000Y-69970000D01*
X25090000Y-74380000D02*
X24860000Y-74380000D01*
X36760000Y-68860000D02*
X36760000Y-69970000D01*
X36760000Y-69970000D02*
X36410000Y-71470000D01*
X33670000Y-75440000D02*
X33340000Y-75200000D01*
X33670000Y-74960000D01*
X33670000Y-75440000D01*
G36*
X33670000Y-75440000D02*
G01*
X33340000Y-75200000D01*
X33670000Y-74960000D01*
X33670000Y-75440000D01*
G37*
%TO.C,C26*%
X84890000Y-31734420D02*
X84890000Y-32015580D01*
X85910000Y-31734420D02*
X85910000Y-32015580D01*
%TO.C,C22*%
X56790000Y-58515580D02*
X56790000Y-58234420D01*
X57810000Y-58515580D02*
X57810000Y-58234420D01*
%TO.C,R19*%
X35287742Y-78277500D02*
X35762258Y-78277500D01*
X35287742Y-79322500D02*
X35762258Y-79322500D01*
%TO.C,C1*%
X70590000Y-48484420D02*
X70590000Y-48765580D01*
X71610000Y-48484420D02*
X71610000Y-48765580D01*
%TO.C,SW15*%
X99900000Y-41600000D02*
X99900000Y-46100000D01*
X102400000Y-47350000D02*
X103900000Y-47350000D01*
X103900000Y-40350000D02*
X102400000Y-40350000D01*
X106400000Y-46100000D02*
X106400000Y-41600000D01*
%TO.C,C24*%
X72890000Y-43734420D02*
X72890000Y-44015580D01*
X73910000Y-43734420D02*
X73910000Y-44015580D01*
%TO.C,C36*%
X97390000Y-67459420D02*
X97390000Y-67740580D01*
X98410000Y-67459420D02*
X98410000Y-67740580D01*
%TO.C,SW16*%
X99900000Y-29600000D02*
X99900000Y-34100000D01*
X102400000Y-35350000D02*
X103900000Y-35350000D01*
X103900000Y-28350000D02*
X102400000Y-28350000D01*
X106400000Y-34100000D02*
X106400000Y-29600000D01*
%TO.C,SW14*%
X99900000Y-53600000D02*
X99900000Y-58100000D01*
X102400000Y-59350000D02*
X103900000Y-59350000D01*
X103900000Y-52350000D02*
X102400000Y-52350000D01*
X106400000Y-58100000D02*
X106400000Y-53600000D01*
%TO.C,C16*%
X37890000Y-74665580D02*
X37890000Y-74384420D01*
X38910000Y-74665580D02*
X38910000Y-74384420D01*
%TO.C,SW9*%
X87900000Y-29600000D02*
X87900000Y-34100000D01*
X90400000Y-35350000D02*
X91900000Y-35350000D01*
X91900000Y-28350000D02*
X90400000Y-28350000D01*
X94400000Y-34100000D02*
X94400000Y-29600000D01*
%TO.C,R20*%
X51937742Y-65577500D02*
X52412258Y-65577500D01*
X51937742Y-66622500D02*
X52412258Y-66622500D01*
%TO.C,R2*%
X68416339Y-95093573D02*
X67941823Y-95093573D01*
X68416339Y-96138573D02*
X67941823Y-96138573D01*
D14*
%TO.C,U1*%
X68565000Y-45350000D02*
X68565000Y-42350000D01*
X71735000Y-42350000D02*
X71735000Y-45350000D01*
D11*
X69250000Y-46105000D02*
G75*
G02*
X69050000Y-46105000I-100000J0D01*
G01*
X69050000Y-46105000D02*
G75*
G02*
X69250000Y-46105000I100000J0D01*
G01*
D13*
%TO.C,SW4*%
X75900000Y-41600000D02*
X75900000Y-46100000D01*
X78400000Y-47350000D02*
X79900000Y-47350000D01*
X79900000Y-40350000D02*
X78400000Y-40350000D01*
X82400000Y-46100000D02*
X82400000Y-41600000D01*
%TO.C,C23*%
X72890000Y-55734420D02*
X72890000Y-56015580D01*
X73910000Y-55734420D02*
X73910000Y-56015580D01*
%TO.C,SW10*%
X87900000Y-41600000D02*
X87900000Y-46100000D01*
X90400000Y-47350000D02*
X91900000Y-47350000D01*
X91900000Y-40350000D02*
X90400000Y-40350000D01*
X94400000Y-46100000D02*
X94400000Y-41600000D01*
%TO.C,C31*%
X96890000Y-19734420D02*
X96890000Y-20015580D01*
X97910000Y-19734420D02*
X97910000Y-20015580D01*
%TO.C,C32*%
X72890000Y-19734420D02*
X72890000Y-20015580D01*
X73910000Y-19734420D02*
X73910000Y-20015580D01*
%TO.C,C29*%
X96890000Y-55734420D02*
X96890000Y-56015580D01*
X97910000Y-55734420D02*
X97910000Y-56015580D01*
%TO.C,SW6*%
X75900000Y-17600000D02*
X75900000Y-22100000D01*
X78400000Y-23350000D02*
X79900000Y-23350000D01*
X79900000Y-16350000D02*
X78400000Y-16350000D01*
X82400000Y-22100000D02*
X82400000Y-17600000D01*
%TO.C,C34*%
X84890000Y-55734420D02*
X84890000Y-56015580D01*
X85910000Y-55734420D02*
X85910000Y-56015580D01*
%TO.C,SW5*%
X75900000Y-29600000D02*
X75900000Y-34100000D01*
X78400000Y-35350000D02*
X79900000Y-35350000D01*
X79900000Y-28350000D02*
X78400000Y-28350000D01*
X82400000Y-34100000D02*
X82400000Y-29600000D01*
%TO.C,C25*%
X72890000Y-31734420D02*
X72890000Y-32015580D01*
X73910000Y-31734420D02*
X73910000Y-32015580D01*
%TO.C,C21*%
X72890000Y-67684420D02*
X72890000Y-67965580D01*
X73910000Y-67684420D02*
X73910000Y-67965580D01*
%TO.C,C27*%
X84890000Y-43684420D02*
X84890000Y-43965580D01*
X85910000Y-43684420D02*
X85910000Y-43965580D01*
%TO.C,R1*%
X68516339Y-98293573D02*
X68041823Y-98293573D01*
X68516339Y-99338573D02*
X68041823Y-99338573D01*
%TO.C,SW13*%
X99900000Y-65600000D02*
X99900000Y-70100000D01*
X102400000Y-71350000D02*
X103900000Y-71350000D01*
X103900000Y-64350000D02*
X102400000Y-64350000D01*
X106400000Y-70100000D02*
X106400000Y-65600000D01*
%TO.C,C20*%
X28740580Y-34590000D02*
X28459420Y-34590000D01*
X28740580Y-35610000D02*
X28459420Y-35610000D01*
%TO.C,C15*%
X39865000Y-74388748D02*
X39865000Y-74911252D01*
X41335000Y-74388748D02*
X41335000Y-74911252D01*
%TO.C,SW17*%
X99900000Y-17600000D02*
X99900000Y-22100000D01*
X102400000Y-23350000D02*
X103900000Y-23350000D01*
X103900000Y-16350000D02*
X102400000Y-16350000D01*
X106400000Y-22100000D02*
X106400000Y-17600000D01*
%TO.C,J5*%
X56869081Y-87606073D02*
X57979081Y-87606073D01*
X56869081Y-106826073D02*
X56869081Y-87606073D01*
X57979081Y-87606073D02*
X59479081Y-87956073D01*
X57979081Y-106826073D02*
X56869081Y-106826073D01*
X59479081Y-106476073D02*
X57979081Y-106826073D01*
X62389081Y-103276073D02*
X62389081Y-103506073D01*
X63209081Y-91026073D02*
X62969081Y-90696073D01*
X63449081Y-90696073D01*
X63209081Y-91026073D01*
G36*
X63209081Y-91026073D02*
G01*
X62969081Y-90696073D01*
X63449081Y-90696073D01*
X63209081Y-91026073D01*
G37*
%TO.C,C35*%
X84890000Y-67734420D02*
X84890000Y-68015580D01*
X85910000Y-67734420D02*
X85910000Y-68015580D01*
%TO.C,J2*%
X14900000Y-81300000D02*
X14900000Y-85200000D01*
X14900000Y-81300000D02*
X20890000Y-81300000D01*
X14900000Y-85200000D02*
X16200000Y-85200000D01*
X14900000Y-107200000D02*
X16200000Y-107200000D01*
X14900000Y-109700000D02*
X14900000Y-107200000D01*
X16200000Y-107200000D02*
X16200000Y-106860000D01*
X20890000Y-109700000D02*
X14900000Y-109700000D01*
X23410000Y-81310000D02*
X39540000Y-81300000D01*
X26040000Y-109700000D02*
X23410000Y-109700000D01*
X34980000Y-109700000D02*
X27560000Y-109700000D01*
X37590000Y-109700000D02*
X36510000Y-109700000D01*
X39540000Y-109700000D02*
X39110000Y-109700000D01*
X42060000Y-81300000D02*
X45800000Y-81300000D01*
X45800000Y-81300000D02*
X45800000Y-109700000D01*
X45800000Y-109700000D02*
X42060000Y-109700000D01*
%TO.C,C28*%
X97390000Y-43734420D02*
X97390000Y-44015580D01*
X98410000Y-43734420D02*
X98410000Y-44015580D01*
%TO.C,SW11*%
X87900000Y-53600000D02*
X87900000Y-58100000D01*
X90400000Y-59350000D02*
X91900000Y-59350000D01*
X91900000Y-52350000D02*
X90400000Y-52350000D01*
X94400000Y-58100000D02*
X94400000Y-53600000D01*
%TO.C,SW7*%
X47400000Y-41950000D02*
X47400000Y-37850000D01*
X47400000Y-50050000D02*
X47400000Y-45950000D01*
X49800000Y-50050000D02*
X47400000Y-50050000D01*
X53300000Y-43450000D02*
X53300000Y-44450000D01*
X53800000Y-43950000D02*
X52800000Y-43950000D01*
X54600000Y-50050000D02*
X52000000Y-50050000D01*
X57100000Y-36450000D02*
X57400000Y-36150000D01*
X57400000Y-36150000D02*
X57400000Y-36750000D01*
X57400000Y-36750000D02*
X57100000Y-36450000D01*
X59200000Y-37850000D02*
X47400000Y-37850000D01*
X59200000Y-41950000D02*
X59200000Y-37850000D01*
X59200000Y-45950000D02*
X59200000Y-50050000D01*
X59200000Y-50050000D02*
X56800000Y-50050000D01*
X56300000Y-43950000D02*
G75*
G02*
X50300000Y-43950000I-3000000J0D01*
G01*
X50300000Y-43950000D02*
G75*
G02*
X56300000Y-43950000I3000000J0D01*
G01*
%TO.C,R10*%
X68577500Y-48962258D02*
X68577500Y-48487742D01*
X69622500Y-48962258D02*
X69622500Y-48487742D01*
%TO.C,SW3*%
X75900000Y-53600000D02*
X75900000Y-58100000D01*
X78400000Y-59350000D02*
X79900000Y-59350000D01*
X79900000Y-52350000D02*
X78400000Y-52350000D01*
X82400000Y-58100000D02*
X82400000Y-53600000D01*
%TO.C,SW2*%
X75900000Y-65600000D02*
X75900000Y-70100000D01*
X78400000Y-71350000D02*
X79900000Y-71350000D01*
X79900000Y-64350000D02*
X78400000Y-64350000D01*
X82400000Y-70100000D02*
X82400000Y-65600000D01*
%TO.C,J4*%
X73654081Y-92336073D02*
X75654081Y-92336073D01*
X73654081Y-101736073D02*
X75654081Y-101736073D01*
X77554081Y-92336073D02*
X79454081Y-92336073D01*
X77554081Y-101736073D02*
X79454081Y-101736073D01*
X79454081Y-101736073D02*
X79454081Y-92336073D01*
%TO.C,SW1*%
X20915000Y-19015000D02*
X34885000Y-19015000D01*
X20915000Y-32985000D02*
X20915000Y-19015000D01*
X34885000Y-19015000D02*
X34885000Y-32985000D01*
X34885000Y-32985000D02*
X20915000Y-32985000D01*
%TD*%
%LPC*%
D15*
%TO.C,G\u002A\u002A\u002A*%
G36*
X49524386Y-16601429D02*
G01*
X49616061Y-16649631D01*
X49665610Y-16694686D01*
X49704143Y-16760843D01*
X49722221Y-16845382D01*
X49718601Y-16932656D01*
X49692039Y-17007019D01*
X49690607Y-17009308D01*
X49670042Y-17033957D01*
X49624521Y-17083509D01*
X49556703Y-17155216D01*
X49469246Y-17246330D01*
X49364806Y-17354104D01*
X49246042Y-17475790D01*
X49115612Y-17608642D01*
X48976173Y-17749911D01*
X48893327Y-17833504D01*
X48726504Y-18001360D01*
X48584740Y-18143417D01*
X48465764Y-18261802D01*
X48367300Y-18358644D01*
X48287077Y-18436071D01*
X48222821Y-18496211D01*
X48172259Y-18541192D01*
X48133118Y-18573142D01*
X48103125Y-18594189D01*
X48080007Y-18606462D01*
X48061719Y-18612046D01*
X47952655Y-18614617D01*
X47858123Y-18583782D01*
X47783303Y-18523828D01*
X47733375Y-18439043D01*
X47713519Y-18333715D01*
X47713384Y-18323703D01*
X47720880Y-18258305D01*
X47739488Y-18201406D01*
X47745512Y-18190848D01*
X47769355Y-18162027D01*
X47817451Y-18109730D01*
X47886669Y-18037069D01*
X47973877Y-17947156D01*
X48075942Y-17843104D01*
X48189732Y-17728024D01*
X48312114Y-17605028D01*
X48439958Y-17477230D01*
X48570129Y-17347740D01*
X48699497Y-17219672D01*
X48824929Y-17096136D01*
X48943292Y-16980246D01*
X49051454Y-16875114D01*
X49146283Y-16783851D01*
X49224647Y-16709570D01*
X49283414Y-16655383D01*
X49319450Y-16624402D01*
X49327898Y-16618619D01*
X49427265Y-16590851D01*
X49524386Y-16601429D01*
G37*
G36*
X51075090Y-16600154D02*
G01*
X51154410Y-16636269D01*
X51219584Y-16694299D01*
X51265213Y-16768556D01*
X51285898Y-16853354D01*
X51276241Y-16943004D01*
X51254730Y-16994762D01*
X51235184Y-17019301D01*
X51190193Y-17069001D01*
X51121954Y-17141654D01*
X51032665Y-17235052D01*
X50924523Y-17346986D01*
X50799725Y-17475250D01*
X50660468Y-17617635D01*
X50508949Y-17771933D01*
X50347366Y-17935936D01*
X50177917Y-18107437D01*
X50002797Y-18284228D01*
X49824205Y-18464101D01*
X49644337Y-18644847D01*
X49465392Y-18824259D01*
X49289565Y-19000130D01*
X49119055Y-19170251D01*
X48956058Y-19332414D01*
X48802772Y-19484412D01*
X48661394Y-19624036D01*
X48534121Y-19749079D01*
X48423151Y-19857333D01*
X48330680Y-19946590D01*
X48258907Y-20014641D01*
X48210027Y-20059281D01*
X48186239Y-20078299D01*
X48185911Y-20078462D01*
X48098195Y-20100586D01*
X48003523Y-20093458D01*
X47918941Y-20058666D01*
X47910460Y-20052839D01*
X47871494Y-20013289D01*
X47830821Y-19955189D01*
X47814735Y-19926165D01*
X47800958Y-19900183D01*
X47788606Y-19877035D01*
X47779073Y-19855086D01*
X47773753Y-19832700D01*
X47774039Y-19808239D01*
X47781325Y-19780068D01*
X47797005Y-19746551D01*
X47822473Y-19706052D01*
X47859123Y-19656935D01*
X47908348Y-19597563D01*
X47971542Y-19526300D01*
X48050099Y-19441510D01*
X48145412Y-19341557D01*
X48258875Y-19224805D01*
X48391883Y-19089618D01*
X48545829Y-18934359D01*
X48722106Y-18757393D01*
X48922108Y-18557083D01*
X49147230Y-18331793D01*
X49321575Y-18157283D01*
X49533450Y-17945469D01*
X49736360Y-17743242D01*
X49928596Y-17552274D01*
X50108452Y-17374238D01*
X50274218Y-17210804D01*
X50424189Y-17063644D01*
X50556655Y-16934430D01*
X50669909Y-16824834D01*
X50762244Y-16736528D01*
X50831952Y-16671182D01*
X50877325Y-16630470D01*
X50895606Y-16616421D01*
X50987022Y-16591642D01*
X51075090Y-16600154D01*
G37*
G36*
X53494263Y-25725406D02*
G01*
X53749932Y-25799353D01*
X53993191Y-25904912D01*
X54218913Y-26038859D01*
X54421970Y-26197973D01*
X54597234Y-26379032D01*
X54658434Y-26456912D01*
X54791234Y-26669399D01*
X54894536Y-26904781D01*
X54967532Y-27159421D01*
X55009413Y-27429684D01*
X55019371Y-27711932D01*
X54998600Y-27987290D01*
X54947304Y-28257819D01*
X54865754Y-28513024D01*
X54756074Y-28746701D01*
X54714158Y-28817889D01*
X54635216Y-28929150D01*
X54533600Y-29049477D01*
X54419589Y-29168200D01*
X54303463Y-29274646D01*
X54195501Y-29358146D01*
X54190384Y-29361605D01*
X53952478Y-29500019D01*
X53688646Y-29615388D01*
X53405748Y-29705932D01*
X53110643Y-29769871D01*
X52810190Y-29805424D01*
X52511248Y-29810810D01*
X52467246Y-29808921D01*
X52132899Y-29776431D01*
X51822418Y-29714630D01*
X51536456Y-29623904D01*
X51275665Y-29504636D01*
X51040698Y-29357211D01*
X50832207Y-29182016D01*
X50650846Y-28979433D01*
X50497266Y-28749849D01*
X50419698Y-28601355D01*
X50317662Y-28342726D01*
X50248334Y-28070318D01*
X50211992Y-27790174D01*
X50208914Y-27508337D01*
X50239380Y-27230847D01*
X50303667Y-26963747D01*
X50339405Y-26859867D01*
X50442575Y-26640303D01*
X50579752Y-26436048D01*
X50747695Y-26250592D01*
X50943165Y-26087429D01*
X51162919Y-25950051D01*
X51202966Y-25929257D01*
X51274850Y-25895851D01*
X51355349Y-25862880D01*
X51435828Y-25833307D01*
X51507652Y-25810099D01*
X51562184Y-25796221D01*
X51590789Y-25794639D01*
X51592251Y-25795585D01*
X51602024Y-25814853D01*
X51616442Y-25859245D01*
X51636332Y-25931817D01*
X51662517Y-26035627D01*
X51695823Y-26173733D01*
X51706581Y-26219151D01*
X51754424Y-26421763D01*
X51692635Y-26443751D01*
X51649593Y-26461466D01*
X51581969Y-26492008D01*
X51500085Y-26530632D01*
X51436982Y-26561329D01*
X51248047Y-26673625D01*
X51090664Y-26808856D01*
X50964334Y-26967596D01*
X50868564Y-27150418D01*
X50827040Y-27267000D01*
X50804901Y-27372914D01*
X50792260Y-27504941D01*
X50788983Y-27651324D01*
X50794934Y-27800304D01*
X50809978Y-27940124D01*
X50833979Y-28059026D01*
X50836257Y-28067197D01*
X50916425Y-28283567D01*
X51026162Y-28474986D01*
X51165620Y-28641558D01*
X51334953Y-28783384D01*
X51534313Y-28900567D01*
X51763852Y-28993209D01*
X52023723Y-29061413D01*
X52314078Y-29105281D01*
X52393120Y-29112594D01*
X52679884Y-29122428D01*
X52955616Y-29105172D01*
X53216663Y-29061860D01*
X53459373Y-28993527D01*
X53680091Y-28901208D01*
X53875165Y-28785936D01*
X54040943Y-28648747D01*
X54044895Y-28644833D01*
X54184054Y-28482796D01*
X54290971Y-28304562D01*
X54367017Y-28106879D01*
X54413563Y-27886494D01*
X54428296Y-27735568D01*
X54425314Y-27501725D01*
X54387790Y-27285804D01*
X54316324Y-27088639D01*
X54211515Y-26911063D01*
X54073964Y-26753909D01*
X53904271Y-26618010D01*
X53703035Y-26504199D01*
X53477817Y-26415549D01*
X53403276Y-26389435D01*
X53344446Y-26365083D01*
X53310244Y-26346352D01*
X53305301Y-26340905D01*
X53307250Y-26315550D01*
X53317196Y-26259223D01*
X53333735Y-26178880D01*
X53355466Y-26081477D01*
X53370593Y-26016985D01*
X53442911Y-25714142D01*
X53494263Y-25725406D01*
G37*
G36*
X55015401Y-19225924D02*
G01*
X55017005Y-19277563D01*
X55017751Y-19356328D01*
X55017585Y-19456249D01*
X55016455Y-19571355D01*
X55016306Y-19582134D01*
X55011000Y-19956883D01*
X54336923Y-20225090D01*
X53662846Y-20493298D01*
X53662846Y-21525045D01*
X53662846Y-22556791D01*
X54024307Y-22687000D01*
X54165396Y-22737981D01*
X54321483Y-22794642D01*
X54478299Y-22851787D01*
X54621574Y-22904220D01*
X54698384Y-22932466D01*
X55011000Y-23047724D01*
X55016325Y-23403785D01*
X55017356Y-23516855D01*
X55016992Y-23615119D01*
X55015360Y-23692450D01*
X55012585Y-23742724D01*
X55008962Y-23759846D01*
X54993122Y-23755100D01*
X54952755Y-23740554D01*
X54886669Y-23715745D01*
X54793671Y-23680211D01*
X54672569Y-23633488D01*
X54522171Y-23575115D01*
X54341286Y-23504629D01*
X54128720Y-23421566D01*
X53883281Y-23325465D01*
X53603778Y-23215863D01*
X53320923Y-23104827D01*
X53086461Y-23012785D01*
X52987880Y-22974085D01*
X52686964Y-22856065D01*
X52413961Y-22749125D01*
X52164658Y-22651623D01*
X51934841Y-22561916D01*
X51720297Y-22478361D01*
X51516812Y-22399315D01*
X51320171Y-22323135D01*
X51126163Y-22248180D01*
X50930572Y-22172806D01*
X50907923Y-22164089D01*
X50763903Y-22108518D01*
X50630595Y-22056793D01*
X50512649Y-22010743D01*
X50414717Y-21972194D01*
X50341452Y-21942973D01*
X50297503Y-21924907D01*
X50287576Y-21920421D01*
X50275445Y-21910591D01*
X50266547Y-21892208D01*
X50260393Y-21859837D01*
X50256493Y-21808043D01*
X50254357Y-21731390D01*
X50253494Y-21624443D01*
X50253400Y-21553312D01*
X50859247Y-21553312D01*
X50876740Y-21562598D01*
X50923352Y-21577423D01*
X50990021Y-21594994D01*
X51010500Y-21599898D01*
X51093381Y-21620761D01*
X51188104Y-21647452D01*
X51297135Y-21680839D01*
X51422941Y-21721789D01*
X51567989Y-21771168D01*
X51734745Y-21829843D01*
X51925677Y-21898682D01*
X52143251Y-21978552D01*
X52389935Y-22070319D01*
X52668194Y-22174851D01*
X52954576Y-22283182D01*
X53086461Y-22333203D01*
X53086461Y-21530977D01*
X53086461Y-20728752D01*
X53042500Y-20741969D01*
X53011721Y-20752806D01*
X52950610Y-20775606D01*
X52865212Y-20808066D01*
X52761575Y-20847882D01*
X52645744Y-20892752D01*
X52605253Y-20908518D01*
X52320683Y-21019086D01*
X52069606Y-21115807D01*
X51849366Y-21199667D01*
X51657306Y-21271654D01*
X51490768Y-21332756D01*
X51347095Y-21383960D01*
X51223629Y-21426253D01*
X51127901Y-21457415D01*
X51032567Y-21488254D01*
X50952114Y-21515656D01*
X50893144Y-21537263D01*
X50862259Y-21550720D01*
X50859247Y-21553312D01*
X50253400Y-21553312D01*
X50253384Y-21541227D01*
X50253384Y-21180137D01*
X50316884Y-21151428D01*
X50348124Y-21138046D01*
X50411434Y-21111545D01*
X50502722Y-21073615D01*
X50617898Y-21025948D01*
X50752869Y-20970237D01*
X50903545Y-20908173D01*
X51065835Y-20841448D01*
X51161923Y-20801997D01*
X51410003Y-20700012D01*
X51686801Y-20585905D01*
X51985013Y-20462706D01*
X52297336Y-20333442D01*
X52616466Y-20201144D01*
X52935101Y-20068839D01*
X53245937Y-19939556D01*
X53541671Y-19816325D01*
X53815000Y-19702175D01*
X53946153Y-19647284D01*
X54135530Y-19568075D01*
X54314883Y-19493283D01*
X54480918Y-19424266D01*
X54630344Y-19362382D01*
X54759869Y-19308988D01*
X54866201Y-19265442D01*
X54946047Y-19233101D01*
X54996116Y-19213323D01*
X55012991Y-19207385D01*
X55015401Y-19225924D01*
G37*
G36*
X61663168Y-25689753D02*
G01*
X61662491Y-26075154D01*
X60993976Y-26340344D01*
X60325461Y-26605535D01*
X60320409Y-27661887D01*
X60315357Y-28718239D01*
X60388794Y-28746645D01*
X60424744Y-28760265D01*
X60492326Y-28785598D01*
X60586531Y-28820774D01*
X60702347Y-28863928D01*
X60834766Y-28913192D01*
X60978778Y-28966697D01*
X61062974Y-28997948D01*
X61663718Y-29220846D01*
X61663782Y-29577423D01*
X61662923Y-29690591D01*
X61660496Y-29788952D01*
X61656792Y-29866385D01*
X61652099Y-29916767D01*
X61646913Y-29934000D01*
X61620399Y-29927228D01*
X61570944Y-29909889D01*
X61534567Y-29895807D01*
X61458830Y-29865643D01*
X61351867Y-29823268D01*
X61216615Y-29769836D01*
X61056015Y-29706499D01*
X60873007Y-29634411D01*
X60670529Y-29554724D01*
X60451521Y-29468593D01*
X60218923Y-29377170D01*
X59975674Y-29281608D01*
X59733226Y-29186403D01*
X59724713Y-29183060D01*
X59468981Y-29082680D01*
X59211417Y-28981621D01*
X58954959Y-28881035D01*
X58702549Y-28782076D01*
X58457124Y-28685897D01*
X58221625Y-28593652D01*
X57998992Y-28506493D01*
X57792163Y-28425573D01*
X57604078Y-28352046D01*
X57437677Y-28287064D01*
X57295899Y-28231781D01*
X57181684Y-28187351D01*
X57097970Y-28154925D01*
X57047884Y-28135728D01*
X56876923Y-28071130D01*
X56876923Y-27708150D01*
X57469436Y-27708150D01*
X57487095Y-27715184D01*
X57492384Y-27716443D01*
X57648555Y-27755094D01*
X57826065Y-27804442D01*
X58010156Y-27860222D01*
X58162183Y-27909982D01*
X58225609Y-27932207D01*
X58315223Y-27964510D01*
X58426340Y-28005130D01*
X58554273Y-28052307D01*
X58694334Y-28104279D01*
X58841836Y-28159286D01*
X58992093Y-28215567D01*
X59140417Y-28271361D01*
X59282121Y-28324907D01*
X59412519Y-28374445D01*
X59526924Y-28418214D01*
X59620647Y-28454452D01*
X59689004Y-28481399D01*
X59727305Y-28497294D01*
X59733226Y-28500203D01*
X59736577Y-28483452D01*
X59739686Y-28431571D01*
X59742478Y-28348508D01*
X59744877Y-28238209D01*
X59746805Y-28104621D01*
X59748189Y-27951691D01*
X59748950Y-27783366D01*
X59749076Y-27678461D01*
X59748698Y-27502462D01*
X59747616Y-27339156D01*
X59745911Y-27192553D01*
X59743663Y-27066663D01*
X59740953Y-26965494D01*
X59737861Y-26893058D01*
X59734468Y-26853364D01*
X59732394Y-26846923D01*
X59710775Y-26853952D01*
X59657444Y-26873864D01*
X59576917Y-26904898D01*
X59473712Y-26945291D01*
X59352346Y-26993281D01*
X59217334Y-27047108D01*
X59151125Y-27073650D01*
X58818393Y-27206278D01*
X58521100Y-27322693D01*
X58259265Y-27422887D01*
X58032907Y-27506854D01*
X57842044Y-27574586D01*
X57686694Y-27626077D01*
X57648692Y-27637848D01*
X57557973Y-27665982D01*
X57500665Y-27685666D01*
X57472556Y-27699016D01*
X57469436Y-27708150D01*
X56876923Y-27708150D01*
X56876923Y-27696623D01*
X56876923Y-27322116D01*
X57145576Y-27208816D01*
X57220347Y-27177326D01*
X57325999Y-27132895D01*
X57457377Y-27077687D01*
X57609323Y-27013868D01*
X57776681Y-26943604D01*
X57954294Y-26869059D01*
X58137007Y-26792400D01*
X58264153Y-26739070D01*
X58574165Y-26608975D01*
X58886167Y-26477888D01*
X59196354Y-26347417D01*
X59500922Y-26219166D01*
X59796065Y-26094743D01*
X60077980Y-25975752D01*
X60342861Y-25863800D01*
X60586902Y-25760493D01*
X60806301Y-25667437D01*
X60997251Y-25586237D01*
X61155846Y-25518544D01*
X61277534Y-25466534D01*
X61389212Y-25418929D01*
X61485191Y-25378144D01*
X61559783Y-25346592D01*
X61607299Y-25326689D01*
X61619884Y-25321562D01*
X61663846Y-25304352D01*
X61663168Y-25689753D01*
G37*
G36*
X61663846Y-19744692D02*
G01*
X61663846Y-20086616D01*
X60647846Y-20086616D01*
X59631846Y-20086616D01*
X59631993Y-20511577D01*
X59633076Y-20692365D01*
X59636700Y-20840015D01*
X59643633Y-20960424D01*
X59654647Y-21059492D01*
X59670510Y-21143116D01*
X59691994Y-21217194D01*
X59719866Y-21287625D01*
X59738484Y-21327530D01*
X59813835Y-21453224D01*
X59916497Y-21574418D01*
X60050278Y-21695048D01*
X60204645Y-21809277D01*
X60286283Y-21864372D01*
X60394873Y-21936362D01*
X60524314Y-22021301D01*
X60668504Y-22115240D01*
X60821342Y-22214231D01*
X60976727Y-22314325D01*
X61128557Y-22411575D01*
X61270730Y-22502031D01*
X61397147Y-22581748D01*
X61434269Y-22604963D01*
X61663846Y-22748173D01*
X61663846Y-23158408D01*
X61663557Y-23295900D01*
X61662464Y-23398897D01*
X61660223Y-23471979D01*
X61656493Y-23519727D01*
X61650932Y-23546719D01*
X61643197Y-23557536D01*
X61634050Y-23557209D01*
X61607580Y-23543000D01*
X61552555Y-23510444D01*
X61473322Y-23462272D01*
X61374228Y-23401221D01*
X61259618Y-23330023D01*
X61133840Y-23251413D01*
X61001241Y-23168125D01*
X60866167Y-23082893D01*
X60732965Y-22998451D01*
X60605981Y-22917534D01*
X60489563Y-22842875D01*
X60388057Y-22777209D01*
X60305809Y-22723270D01*
X60266846Y-22697222D01*
X60082005Y-22561932D01*
X59920493Y-22422650D01*
X59786714Y-22283638D01*
X59685076Y-22149160D01*
X59663014Y-22112964D01*
X59586721Y-21980313D01*
X59541304Y-22161810D01*
X59510747Y-22264340D01*
X59468506Y-22380918D01*
X59422041Y-22491526D01*
X59405218Y-22527039D01*
X59291279Y-22715717D01*
X59149343Y-22879556D01*
X58982992Y-23015566D01*
X58795811Y-23120757D01*
X58615846Y-23185694D01*
X58512155Y-23205614D01*
X58382770Y-23217782D01*
X58244204Y-23222059D01*
X58240300Y-23222179D01*
X58097355Y-23218784D01*
X57966544Y-23207576D01*
X57860477Y-23188533D01*
X57854464Y-23186950D01*
X57641382Y-23111337D01*
X57454615Y-23006841D01*
X57294140Y-22873439D01*
X57159932Y-22711112D01*
X57063886Y-22545044D01*
X57031666Y-22478152D01*
X57003686Y-22417322D01*
X56979630Y-22359346D01*
X56959182Y-22301016D01*
X56942028Y-22239126D01*
X56927851Y-22170468D01*
X56916335Y-22091834D01*
X56907166Y-22000018D01*
X56900027Y-21891811D01*
X56894603Y-21764008D01*
X56890577Y-21613400D01*
X56887636Y-21436779D01*
X56885462Y-21230940D01*
X56883740Y-20992674D01*
X56882155Y-20718775D01*
X56882035Y-20697192D01*
X56878656Y-20086616D01*
X57439575Y-20086616D01*
X57448897Y-20960962D01*
X57451438Y-21183327D01*
X57454156Y-21370520D01*
X57457410Y-21526446D01*
X57461560Y-21655010D01*
X57466966Y-21760117D01*
X57473986Y-21845672D01*
X57482980Y-21915579D01*
X57494308Y-21973743D01*
X57508329Y-22024069D01*
X57525403Y-22070461D01*
X57545888Y-22116825D01*
X57557537Y-22141248D01*
X57642935Y-22277404D01*
X57754498Y-22385078D01*
X57868909Y-22454833D01*
X57925156Y-22481669D01*
X57971485Y-22499767D01*
X58017923Y-22510846D01*
X58074495Y-22516624D01*
X58151226Y-22518820D01*
X58244204Y-22519154D01*
X58352349Y-22518236D01*
X58430776Y-22514696D01*
X58488819Y-22507353D01*
X58535810Y-22495029D01*
X58581013Y-22476574D01*
X58681545Y-22415920D01*
X58779683Y-22332064D01*
X58863340Y-22236758D01*
X58916501Y-22150393D01*
X58944239Y-22088826D01*
X58967545Y-22029112D01*
X58986814Y-21967239D01*
X59002442Y-21899198D01*
X59014823Y-21820975D01*
X59024352Y-21728560D01*
X59031425Y-21617941D01*
X59036435Y-21485107D01*
X59039779Y-21326047D01*
X59041850Y-21136750D01*
X59043044Y-20913203D01*
X59043214Y-20863269D01*
X59045692Y-20086616D01*
X58242633Y-20086616D01*
X57439575Y-20086616D01*
X56878656Y-20086616D01*
X56874872Y-19402769D01*
X59269359Y-19402769D01*
X61663846Y-19402769D01*
X61663846Y-19744692D01*
G37*
G36*
X56635389Y-16598921D02*
G01*
X57098331Y-16598954D01*
X57597866Y-16598990D01*
X57961307Y-16599000D01*
X62904538Y-16599000D01*
X63070615Y-16642864D01*
X63307021Y-16724427D01*
X63521285Y-16837758D01*
X63712091Y-16981562D01*
X63878123Y-17154542D01*
X64018065Y-17355402D01*
X64130602Y-17582845D01*
X64188258Y-17743768D01*
X64233151Y-17888539D01*
X64235767Y-24512077D01*
X64235921Y-25030880D01*
X64235974Y-25538722D01*
X64235927Y-26034208D01*
X64235784Y-26515944D01*
X64235547Y-26982535D01*
X64235221Y-27432586D01*
X64234806Y-27864702D01*
X64234308Y-28277489D01*
X64233728Y-28669552D01*
X64233070Y-29039496D01*
X64232336Y-29385926D01*
X64231531Y-29707448D01*
X64230655Y-30002667D01*
X64229714Y-30270188D01*
X64228709Y-30508616D01*
X64227643Y-30716557D01*
X64226521Y-30892616D01*
X64225343Y-31035398D01*
X64224115Y-31143509D01*
X64222838Y-31215553D01*
X64221515Y-31250136D01*
X64221302Y-31252086D01*
X64183275Y-31436485D01*
X64122504Y-31611252D01*
X64067079Y-31730256D01*
X64010252Y-31836686D01*
X63955828Y-31923381D01*
X63894267Y-32003527D01*
X63816031Y-32090312D01*
X63778338Y-32129422D01*
X63598313Y-32286140D01*
X63394072Y-32412636D01*
X63167314Y-32507934D01*
X63065143Y-32538589D01*
X62904538Y-32581462D01*
X58316093Y-32581462D01*
X56075846Y-32581462D01*
X49247153Y-32581462D01*
X49090846Y-32536646D01*
X48925252Y-32479316D01*
X48760129Y-32404349D01*
X48609098Y-32318541D01*
X48504021Y-32243809D01*
X48333483Y-32082512D01*
X48186024Y-31894406D01*
X48066221Y-31686804D01*
X47978650Y-31467016D01*
X47948863Y-31356952D01*
X47907285Y-31174692D01*
X47912920Y-26368231D01*
X47914786Y-24776498D01*
X48478560Y-24776498D01*
X48478711Y-25266533D01*
X48479058Y-25794690D01*
X48479599Y-26361392D01*
X48479760Y-26505000D01*
X48485153Y-31194231D01*
X48538242Y-31339667D01*
X48624258Y-31524037D01*
X48737432Y-31680311D01*
X48877726Y-31808453D01*
X49045099Y-31908425D01*
X49216507Y-31973590D01*
X49228458Y-31976450D01*
X49245235Y-31979133D01*
X49268054Y-31981644D01*
X49298129Y-31983990D01*
X49336678Y-31986176D01*
X49384915Y-31988207D01*
X49444056Y-31990088D01*
X49515317Y-31991827D01*
X49599912Y-31993427D01*
X49699059Y-31994895D01*
X49813971Y-31996237D01*
X49945866Y-31997457D01*
X50095958Y-31998562D01*
X50265463Y-31999557D01*
X50455596Y-32000447D01*
X50667574Y-32001239D01*
X50902611Y-32001937D01*
X51161924Y-32002548D01*
X51446728Y-32003077D01*
X51758238Y-32003529D01*
X52097671Y-32003910D01*
X52466241Y-32004226D01*
X52865164Y-32004482D01*
X53295656Y-32004684D01*
X53758933Y-32004838D01*
X54256209Y-32004948D01*
X54788701Y-32005021D01*
X55357624Y-32005062D01*
X55964194Y-32005077D01*
X56075287Y-32005077D01*
X56691029Y-32005094D01*
X57268925Y-32005133D01*
X57810203Y-32005174D01*
X58316093Y-32005199D01*
X58787826Y-32005188D01*
X59226631Y-32005123D01*
X59633737Y-32004983D01*
X60010375Y-32004752D01*
X60357775Y-32004408D01*
X60677165Y-32003934D01*
X60969776Y-32003310D01*
X61236838Y-32002517D01*
X61479581Y-32001537D01*
X61699233Y-32000349D01*
X61897026Y-31998936D01*
X62074188Y-31997277D01*
X62231950Y-31995355D01*
X62371541Y-31993149D01*
X62494191Y-31990642D01*
X62601131Y-31987813D01*
X62693588Y-31984644D01*
X62772795Y-31981116D01*
X62839979Y-31977209D01*
X62896372Y-31972906D01*
X62943202Y-31968186D01*
X62981700Y-31963031D01*
X63013095Y-31957421D01*
X63038617Y-31951338D01*
X63059496Y-31944762D01*
X63076962Y-31937675D01*
X63092244Y-31930058D01*
X63106572Y-31921890D01*
X63121176Y-31913154D01*
X63137286Y-31903831D01*
X63152928Y-31895508D01*
X63260075Y-31827011D01*
X63367770Y-31733742D01*
X63463666Y-31627819D01*
X63535420Y-31521362D01*
X63536937Y-31518537D01*
X63547584Y-31499709D01*
X63557569Y-31483610D01*
X63566913Y-31468997D01*
X63575639Y-31454624D01*
X63583767Y-31439248D01*
X63591320Y-31421622D01*
X63598317Y-31400503D01*
X63604781Y-31374646D01*
X63610732Y-31342807D01*
X63616193Y-31303739D01*
X63621184Y-31256200D01*
X63625726Y-31198944D01*
X63629842Y-31130726D01*
X63633552Y-31050302D01*
X63636878Y-30956427D01*
X63639841Y-30847856D01*
X63642463Y-30723345D01*
X63644764Y-30581649D01*
X63646766Y-30421523D01*
X63648490Y-30241723D01*
X63649958Y-30041004D01*
X63651191Y-29818121D01*
X63652211Y-29571829D01*
X63653038Y-29300884D01*
X63653694Y-29004042D01*
X63654200Y-28680056D01*
X63654578Y-28327684D01*
X63654849Y-27945679D01*
X63655034Y-27532798D01*
X63655154Y-27087796D01*
X63655232Y-26609427D01*
X63655288Y-26096448D01*
X63655343Y-25547614D01*
X63655420Y-24961679D01*
X63655483Y-24599221D01*
X63655588Y-23991104D01*
X63655655Y-23420845D01*
X63655678Y-22887225D01*
X63655652Y-22389027D01*
X63655573Y-21925030D01*
X63655435Y-21494016D01*
X63655232Y-21094766D01*
X63654960Y-20726062D01*
X63654614Y-20386684D01*
X63654187Y-20075415D01*
X63653675Y-19791035D01*
X63653074Y-19532325D01*
X63652376Y-19298067D01*
X63651578Y-19087042D01*
X63650674Y-18898031D01*
X63649660Y-18729816D01*
X63648528Y-18581177D01*
X63647276Y-18450896D01*
X63645897Y-18337754D01*
X63644386Y-18240532D01*
X63642737Y-18158012D01*
X63640947Y-18088974D01*
X63639009Y-18032201D01*
X63636918Y-17986472D01*
X63634670Y-17950571D01*
X63632259Y-17923277D01*
X63629679Y-17903371D01*
X63626926Y-17889636D01*
X63626852Y-17889351D01*
X63560871Y-17709870D01*
X63463324Y-17549881D01*
X63337920Y-17413146D01*
X63188368Y-17303426D01*
X63018376Y-17224483D01*
X62950816Y-17203767D01*
X62935308Y-17200776D01*
X62911168Y-17197999D01*
X62877018Y-17195430D01*
X62831476Y-17193060D01*
X62773163Y-17190881D01*
X62700699Y-17188887D01*
X62612704Y-17187068D01*
X62507799Y-17185419D01*
X62384604Y-17183929D01*
X62241739Y-17182593D01*
X62077823Y-17181402D01*
X61891477Y-17180348D01*
X61681322Y-17179425D01*
X61445977Y-17178623D01*
X61184063Y-17177935D01*
X60894200Y-17177354D01*
X60575007Y-17176872D01*
X60225105Y-17176480D01*
X59843115Y-17176172D01*
X59427655Y-17175940D01*
X58977348Y-17175775D01*
X58490811Y-17175671D01*
X57966667Y-17175618D01*
X57931607Y-17175617D01*
X57414185Y-17175594D01*
X56934374Y-17175586D01*
X56490711Y-17175603D01*
X56081731Y-17175657D01*
X55705968Y-17175760D01*
X55361957Y-17175923D01*
X55048235Y-17176159D01*
X54763335Y-17176477D01*
X54505793Y-17176892D01*
X54274145Y-17177413D01*
X54066925Y-17178052D01*
X53882669Y-17178822D01*
X53719911Y-17179733D01*
X53577187Y-17180798D01*
X53453032Y-17182028D01*
X53345981Y-17183435D01*
X53254569Y-17185030D01*
X53177332Y-17186825D01*
X53112804Y-17188831D01*
X53059521Y-17191061D01*
X53016018Y-17193525D01*
X52980830Y-17196236D01*
X52952492Y-17199206D01*
X52929539Y-17202444D01*
X52910507Y-17205965D01*
X52893930Y-17209778D01*
X52878345Y-17213896D01*
X52871464Y-17215795D01*
X52825504Y-17228243D01*
X52783990Y-17239530D01*
X52745340Y-17251063D01*
X52707975Y-17264251D01*
X52670311Y-17280503D01*
X52630769Y-17301227D01*
X52587767Y-17327831D01*
X52539724Y-17361724D01*
X52485059Y-17404314D01*
X52422191Y-17457010D01*
X52349539Y-17521219D01*
X52265521Y-17598351D01*
X52168556Y-17689813D01*
X52057063Y-17797015D01*
X51929462Y-17921364D01*
X51784171Y-18064268D01*
X51619608Y-18227137D01*
X51434193Y-18411379D01*
X51226344Y-18618402D01*
X50994481Y-18849614D01*
X50737022Y-19106423D01*
X50637457Y-19205721D01*
X50413645Y-19429132D01*
X50196339Y-19646476D01*
X49987278Y-19855994D01*
X49788197Y-20055928D01*
X49600832Y-20244520D01*
X49426921Y-20420013D01*
X49268200Y-20580647D01*
X49126406Y-20724665D01*
X49003274Y-20850309D01*
X48900543Y-20955821D01*
X48819947Y-21039442D01*
X48763224Y-21099415D01*
X48732110Y-21133982D01*
X48728929Y-21137931D01*
X48632050Y-21288821D01*
X48554810Y-21458681D01*
X48503973Y-21631804D01*
X48495032Y-21681041D01*
X48492515Y-21714301D01*
X48490210Y-21780140D01*
X48488118Y-21878985D01*
X48486236Y-22011261D01*
X48484564Y-22177394D01*
X48483100Y-22377812D01*
X48481842Y-22612941D01*
X48480790Y-22883206D01*
X48479941Y-23189033D01*
X48479296Y-23530850D01*
X48478851Y-23909082D01*
X48478606Y-24324156D01*
X48478560Y-24776498D01*
X47914786Y-24776498D01*
X47918555Y-21561769D01*
X47963472Y-21415231D01*
X48013240Y-21276329D01*
X48078547Y-21128088D01*
X48152727Y-20983905D01*
X48229117Y-20857177D01*
X48269660Y-20799769D01*
X48293787Y-20772351D01*
X48343594Y-20719392D01*
X48417064Y-20642919D01*
X48512180Y-20544957D01*
X48626924Y-20427532D01*
X48759278Y-20292669D01*
X48907226Y-20142394D01*
X49068751Y-19978732D01*
X49241834Y-19803708D01*
X49424459Y-19619349D01*
X49614609Y-19427680D01*
X49810265Y-19230726D01*
X50009411Y-19030513D01*
X50210029Y-18829066D01*
X50410103Y-18628412D01*
X50607614Y-18430575D01*
X50800545Y-18237581D01*
X50986879Y-18051455D01*
X51164600Y-17874224D01*
X51331688Y-17707912D01*
X51486128Y-17554545D01*
X51625901Y-17416149D01*
X51748991Y-17294749D01*
X51853381Y-17192371D01*
X51937052Y-17111041D01*
X51997987Y-17052783D01*
X52034170Y-17019623D01*
X52036197Y-17017893D01*
X52230621Y-16877509D01*
X52448187Y-16762859D01*
X52578461Y-16711329D01*
X52610944Y-16699667D01*
X52640195Y-16688839D01*
X52667688Y-16678813D01*
X52694899Y-16669559D01*
X52723303Y-16661046D01*
X52754375Y-16653243D01*
X52789589Y-16646119D01*
X52830421Y-16639644D01*
X52878346Y-16633787D01*
X52934839Y-16628517D01*
X53001375Y-16623803D01*
X53079429Y-16619615D01*
X53170475Y-16615922D01*
X53275989Y-16612692D01*
X53397447Y-16609896D01*
X53536322Y-16607501D01*
X53694090Y-16605479D01*
X53872226Y-16603797D01*
X54072206Y-16602426D01*
X54295503Y-16601333D01*
X54543593Y-16600490D01*
X54817951Y-16599863D01*
X55120053Y-16599424D01*
X55451372Y-16599141D01*
X55813384Y-16598983D01*
X56207565Y-16598920D01*
X56635389Y-16598921D01*
G37*
%TD*%
D16*
%TO.C,SW8*%
X93400000Y-16600000D03*
X93400000Y-23100000D03*
X88900000Y-16600000D03*
X88900000Y-23100000D03*
%TD*%
D17*
%TO.C,C30*%
X97400000Y-31050000D03*
X97400000Y-32600000D03*
%TD*%
%TO.C,C33*%
X85400000Y-19100000D03*
X85400000Y-20650000D03*
%TD*%
D18*
%TO.C,U9*%
X59930000Y-61282500D03*
X59280000Y-61282500D03*
X58630000Y-61282500D03*
X57980000Y-61282500D03*
X57330000Y-61282500D03*
X56680000Y-61282500D03*
X56030000Y-61282500D03*
D19*
X55142500Y-62170000D03*
X55142500Y-62820000D03*
X55142500Y-63470000D03*
X55142500Y-64120000D03*
X55142500Y-64770000D03*
X55142500Y-65420000D03*
X55142500Y-66070000D03*
D18*
X56030000Y-66957500D03*
X56680000Y-66957500D03*
X57330000Y-66957500D03*
X57980000Y-66957500D03*
X58630000Y-66957500D03*
X59280000Y-66957500D03*
X59930000Y-66957500D03*
D19*
X60817500Y-66070000D03*
X60817500Y-65420000D03*
X60817500Y-64770000D03*
X60817500Y-64120000D03*
X60817500Y-63470000D03*
X60817500Y-62820000D03*
X60817500Y-62170000D03*
D20*
X57980000Y-64120000D03*
%TD*%
D16*
%TO.C,SW12*%
X93400000Y-64600000D03*
X93400000Y-71100000D03*
X88900000Y-64600000D03*
X88900000Y-71100000D03*
%TD*%
D21*
%TO.C,J11*%
X32650000Y-75170000D03*
X31650000Y-75170000D03*
X30650000Y-75170000D03*
X29650000Y-75170000D03*
X28650000Y-75170000D03*
X27650000Y-75170000D03*
X26650000Y-75170000D03*
X25650000Y-75170000D03*
D22*
X35000000Y-73000000D03*
X23300000Y-73000000D03*
%TD*%
D17*
%TO.C,C26*%
X85400000Y-31100000D03*
X85400000Y-32650000D03*
%TD*%
D23*
%TO.C,C22*%
X57300000Y-59150000D03*
X57300000Y-57600000D03*
%TD*%
D24*
%TO.C,R19*%
X34700000Y-78800000D03*
X36350000Y-78800000D03*
%TD*%
D17*
%TO.C,C1*%
X71100000Y-47850000D03*
X71100000Y-49400000D03*
%TD*%
D16*
%TO.C,SW15*%
X105400000Y-40600000D03*
X105400000Y-47100000D03*
X100900000Y-40600000D03*
X100900000Y-47100000D03*
%TD*%
D17*
%TO.C,C24*%
X73400000Y-43100000D03*
X73400000Y-44650000D03*
%TD*%
%TO.C,C36*%
X97900000Y-66825000D03*
X97900000Y-68375000D03*
%TD*%
D16*
%TO.C,SW16*%
X105400000Y-28600000D03*
X105400000Y-35100000D03*
X100900000Y-28600000D03*
X100900000Y-35100000D03*
%TD*%
%TO.C,SW14*%
X105400000Y-52600000D03*
X105400000Y-59100000D03*
X100900000Y-52600000D03*
X100900000Y-59100000D03*
%TD*%
D23*
%TO.C,C16*%
X38400000Y-75300000D03*
X38400000Y-73750000D03*
%TD*%
D16*
%TO.C,SW9*%
X93400000Y-28600000D03*
X93400000Y-35100000D03*
X88900000Y-28600000D03*
X88900000Y-35100000D03*
%TD*%
D24*
%TO.C,R20*%
X51350000Y-66100000D03*
X53000000Y-66100000D03*
%TD*%
D25*
%TO.C,R2*%
X69004081Y-95616073D03*
X67354081Y-95616073D03*
%TD*%
D26*
%TO.C,U1*%
X69150000Y-44835000D03*
X70150000Y-44835000D03*
X71150000Y-44835000D03*
X71150000Y-42865000D03*
X70150000Y-42865000D03*
X69150000Y-42865000D03*
%TD*%
D16*
%TO.C,SW4*%
X81400000Y-40600000D03*
X81400000Y-47100000D03*
X76900000Y-40600000D03*
X76900000Y-47100000D03*
%TD*%
D17*
%TO.C,C23*%
X73400000Y-55100000D03*
X73400000Y-56650000D03*
%TD*%
D16*
%TO.C,SW10*%
X93400000Y-40600000D03*
X93400000Y-47100000D03*
X88900000Y-40600000D03*
X88900000Y-47100000D03*
%TD*%
D17*
%TO.C,C31*%
X97400000Y-19100000D03*
X97400000Y-20650000D03*
%TD*%
%TO.C,C32*%
X73400000Y-19100000D03*
X73400000Y-20650000D03*
%TD*%
%TO.C,C29*%
X97400000Y-55100000D03*
X97400000Y-56650000D03*
%TD*%
D16*
%TO.C,SW6*%
X81400000Y-16600000D03*
X81400000Y-23100000D03*
X76900000Y-16600000D03*
X76900000Y-23100000D03*
%TD*%
D17*
%TO.C,C34*%
X85400000Y-55100000D03*
X85400000Y-56650000D03*
%TD*%
D16*
%TO.C,SW5*%
X81400000Y-28600000D03*
X81400000Y-35100000D03*
X76900000Y-28600000D03*
X76900000Y-35100000D03*
%TD*%
D17*
%TO.C,C25*%
X73400000Y-31100000D03*
X73400000Y-32650000D03*
%TD*%
%TO.C,C21*%
X73400000Y-67050000D03*
X73400000Y-68600000D03*
%TD*%
%TO.C,C27*%
X85400000Y-43050000D03*
X85400000Y-44600000D03*
%TD*%
D25*
%TO.C,R1*%
X69104081Y-98816073D03*
X67454081Y-98816073D03*
%TD*%
D16*
%TO.C,SW13*%
X105400000Y-64600000D03*
X105400000Y-71100000D03*
X100900000Y-64600000D03*
X100900000Y-71100000D03*
%TD*%
D27*
%TO.C,C20*%
X29375000Y-35100000D03*
X27825000Y-35100000D03*
%TD*%
D28*
%TO.C,C15*%
X40600000Y-73700000D03*
X40600000Y-75600000D03*
%TD*%
D16*
%TO.C,SW17*%
X105400000Y-16600000D03*
X105400000Y-23100000D03*
X100900000Y-16600000D03*
X100900000Y-23100000D03*
%TD*%
D29*
%TO.C,J5*%
X63179081Y-91716073D03*
X63179081Y-92716073D03*
X63179081Y-93716073D03*
X63179081Y-94716073D03*
X63179081Y-95716073D03*
X63179081Y-96716073D03*
X63179081Y-97716073D03*
X63179081Y-98716073D03*
X63179081Y-99716073D03*
X63179081Y-100716073D03*
X63179081Y-101716073D03*
X63179081Y-102716073D03*
D30*
X61009081Y-89366073D03*
X61009081Y-105066073D03*
%TD*%
D17*
%TO.C,C35*%
X85400000Y-67100000D03*
X85400000Y-68650000D03*
%TD*%
D31*
%TO.C,J2*%
X17600000Y-107400000D03*
X17600000Y-85000000D03*
D32*
X15400000Y-89425000D03*
X15400000Y-91925000D03*
X15400000Y-94425000D03*
X15400000Y-96925000D03*
X15400000Y-99425000D03*
X15400000Y-101925000D03*
X15400000Y-104350000D03*
X15400000Y-106050000D03*
X15400000Y-86925000D03*
D33*
X26800000Y-109100000D03*
D34*
X22150000Y-110000000D03*
X40800000Y-110000000D03*
X22150000Y-81000000D03*
X40800000Y-81000000D03*
D33*
X38350000Y-109100000D03*
X35750000Y-109100000D03*
%TD*%
D17*
%TO.C,C28*%
X97900000Y-43100000D03*
X97900000Y-44650000D03*
%TD*%
D16*
%TO.C,SW11*%
X93400000Y-52600000D03*
X93400000Y-59100000D03*
X88900000Y-52600000D03*
X88900000Y-59100000D03*
%TD*%
D34*
%TO.C,SW7*%
X55800000Y-36450000D03*
D16*
X50800000Y-36450000D03*
X53300000Y-36450000D03*
D35*
X58900000Y-43950000D03*
X47700000Y-43950000D03*
D16*
X50800000Y-50950000D03*
X55800000Y-50950000D03*
%TD*%
D36*
%TO.C,R10*%
X69100000Y-49550000D03*
X69100000Y-47900000D03*
%TD*%
D16*
%TO.C,SW3*%
X81400000Y-52600000D03*
X81400000Y-59100000D03*
X76900000Y-52600000D03*
X76900000Y-59100000D03*
%TD*%
%TO.C,SW2*%
X76900000Y-71100000D03*
X76900000Y-64600000D03*
X81400000Y-71100000D03*
X81400000Y-64600000D03*
%TD*%
D37*
%TO.C,J4*%
X72954081Y-99926073D03*
X72954081Y-94146073D03*
D38*
X71509081Y-100286073D03*
X71509081Y-99486073D03*
D39*
X71509081Y-98286073D03*
X71509081Y-97286073D03*
X71509081Y-96786073D03*
X71509081Y-95786073D03*
D38*
X71509081Y-94586073D03*
X71509081Y-93786073D03*
X71509081Y-93786073D03*
X71509081Y-94586073D03*
D39*
X71509081Y-95286073D03*
X71509081Y-96286073D03*
X71509081Y-97786073D03*
X71509081Y-98786073D03*
D38*
X71509081Y-99486073D03*
X71509081Y-100286073D03*
D40*
X72424081Y-101356073D03*
D41*
X76604081Y-101356073D03*
D40*
X72424081Y-92716073D03*
D41*
X76604081Y-92716073D03*
%TD*%
D42*
%TO.C,SW1*%
X27900000Y-31080000D03*
D43*
X27900000Y-26000000D03*
D42*
X27900000Y-20920000D03*
D44*
X22820000Y-23460000D03*
X25360000Y-29810000D03*
%TD*%
D45*
%TO.C,J3*%
X45700000Y-23300000D03*
D42*
X45700000Y-20760000D03*
%TD*%
D45*
%TO.C,J7*%
X27100000Y-42200000D03*
D42*
X27100000Y-39660000D03*
%TD*%
%LPD*%
M02*
