%TF.GenerationSoftware,KiCad,Pcbnew,9.0.6*%
%TF.CreationDate,2026-04-18T23:10:41+02:00*%
%TF.ProjectId,alarm_clock,616c6172-6d5f-4636-9c6f-636b2e6b6963,rev?*%
%TF.SameCoordinates,Original*%
%TF.FileFunction,Soldermask,Bot*%
%TF.FilePolarity,Negative*%
%FSLAX46Y46*%
G04 Gerber Fmt 4.6, Leading zero omitted, Abs format (unit mm)*
G04 Created by KiCad (PCBNEW 9.0.6) date 2026-04-18 23:10:41*
%MOMM*%
%LPD*%
G01*
G04 APERTURE LIST*
G04 Aperture macros list*
%AMRoundRect*
0 Rectangle with rounded corners*
0 $1 Rounding radius*
0 $2 $3 $4 $5 $6 $7 $8 $9 X,Y pos of 4 corners*
0 Add a 4 corners polygon primitive as box body*
4,1,4,$2,$3,$4,$5,$6,$7,$8,$9,$2,$3,0*
0 Add four circle primitives for the rounded corners*
1,1,$1+$1,$2,$3*
1,1,$1+$1,$4,$5*
1,1,$1+$1,$6,$7*
1,1,$1+$1,$8,$9*
0 Add four rect primitives between the rounded corners*
20,1,$1+$1,$2,$3,$4,$5,0*
20,1,$1+$1,$4,$5,$6,$7,0*
20,1,$1+$1,$6,$7,$8,$9,0*
20,1,$1+$1,$8,$9,$2,$3,0*%
G04 Aperture macros list end*
%ADD10RoundRect,0.250000X-0.550000X0.550000X-0.550000X-0.550000X0.550000X-0.550000X0.550000X0.550000X0*%
%ADD11C,1.600000*%
%ADD12RoundRect,0.590551X-0.909449X0.909449X-0.909449X-0.909449X0.909449X-0.909449X0.909449X0.909449X0*%
%ADD13C,3.500000*%
%ADD14R,1.700000X1.700000*%
%ADD15C,1.700000*%
%ADD16RoundRect,0.150000X0.750000X-0.150000X0.750000X0.150000X-0.750000X0.150000X-0.750000X-0.150000X0*%
%ADD17RoundRect,0.250000X1.250000X-1.050000X1.250000X1.050000X-1.250000X1.050000X-1.250000X-1.050000X0*%
%ADD18RoundRect,0.590551X0.909449X-0.909449X0.909449X0.909449X-0.909449X0.909449X-0.909449X-0.909449X0*%
%ADD19C,2.000000*%
%ADD20RoundRect,0.250000X-0.550000X-0.550000X0.550000X-0.550000X0.550000X0.550000X-0.550000X0.550000X0*%
G04 APERTURE END LIST*
D10*
%TO.C,D15*%
X129186000Y-65278000D03*
D11*
X129186000Y-72898000D03*
%TD*%
D10*
%TO.C,D15*%
X133250000Y-65278000D03*
D11*
X133250000Y-72898000D03*
%TD*%
D12*
%TO.C,SW3*%
X114554000Y-48006000D03*
D13*
X114554000Y-52706000D03*
X114554000Y-57406000D03*
%TD*%
D10*
%TO.C,D15*%
X114200000Y-65532000D03*
D11*
X114200000Y-73152000D03*
%TD*%
D10*
%TO.C,D15*%
X118518000Y-65532000D03*
D11*
X118518000Y-73152000D03*
%TD*%
D14*
%TO.C,J6*%
X140100000Y-46680000D03*
D15*
X140100000Y-49220000D03*
X140100000Y-51760000D03*
X140100000Y-54300000D03*
X140100000Y-56840000D03*
X140100000Y-59380000D03*
X140100000Y-61920000D03*
X140100000Y-64460000D03*
X140100000Y-67000000D03*
X140100000Y-69540000D03*
X140100000Y-72080000D03*
X140100000Y-74620000D03*
X140100000Y-77160000D03*
X140100000Y-79700000D03*
%TD*%
D16*
%TO.C,J11*%
X202870000Y-77550000D03*
X202870000Y-76550000D03*
X202870000Y-75550000D03*
X202870000Y-74550000D03*
X202870000Y-73550000D03*
X202870000Y-72550000D03*
X202870000Y-71550000D03*
X202870000Y-70550000D03*
D17*
X200700000Y-79900000D03*
X200700000Y-68200000D03*
%TD*%
D18*
%TO.C,SW4*%
X125476000Y-39118000D03*
D13*
X125476000Y-34418000D03*
X125476000Y-29718000D03*
%TD*%
D14*
%TO.C,J5*%
X185000000Y-96300000D03*
D15*
X185000000Y-98840000D03*
%TD*%
D14*
%TO.C,J10*%
X201700000Y-96200000D03*
D15*
X201700000Y-98740000D03*
X201700000Y-101280000D03*
%TD*%
D19*
%TO.C,SW1*%
X166250000Y-41150000D03*
X159750000Y-41150000D03*
X166250000Y-45650000D03*
X159750000Y-45650000D03*
%TD*%
D14*
%TO.C,J3*%
X204724000Y-59690000D03*
D15*
X204724000Y-57150000D03*
%TD*%
D14*
%TO.C,J4*%
X194056000Y-95250000D03*
D15*
X194056000Y-97790000D03*
X194056000Y-100330000D03*
%TD*%
D14*
%TO.C,J2*%
X115824000Y-62230000D03*
D15*
X113284000Y-62230000D03*
%TD*%
D14*
%TO.C,J9*%
X200120000Y-32300000D03*
D15*
X202660000Y-32300000D03*
X205200000Y-32300000D03*
%TD*%
D19*
%TO.C,SW2*%
X204200000Y-45248000D03*
X197700000Y-45248000D03*
X204200000Y-49748000D03*
X197700000Y-49748000D03*
%TD*%
D20*
%TO.C,C10*%
X189524000Y-57912000D03*
D11*
X192024000Y-57912000D03*
%TD*%
M02*
