%TF.GenerationSoftware,KiCad,Pcbnew,9.0.6*%
%TF.CreationDate,2026-04-18T23:10:41+02:00*%
%TF.ProjectId,alarm_clock,616c6172-6d5f-4636-9c6f-636b2e6b6963,rev?*%
%TF.SameCoordinates,Original*%
%TF.FileFunction,Legend,Bot*%
%TF.FilePolarity,Positive*%
%FSLAX46Y46*%
G04 Gerber Fmt 4.6, Leading zero omitted, Abs format (unit mm)*
G04 Created by KiCad (PCBNEW 9.0.6) date 2026-04-18 23:10:41*
%MOMM*%
%LPD*%
G01*
G04 APERTURE LIST*
G04 Aperture macros list*
%AMRoundRect*
0 Rectangle with rounded corners*
0 $1 Rounding radius*
0 $2 $3 $4 $5 $6 $7 $8 $9 X,Y pos of 4 corners*
0 Add a 4 corners polygon primitive as box body*
4,1,4,$2,$3,$4,$5,$6,$7,$8,$9,$2,$3,0*
0 Add four circle primitives for the rounded corners*
1,1,$1+$1,$2,$3*
1,1,$1+$1,$4,$5*
1,1,$1+$1,$6,$7*
1,1,$1+$1,$8,$9*
0 Add four rect primitives between the rounded corners*
20,1,$1+$1,$2,$3,$4,$5,0*
20,1,$1+$1,$4,$5,$6,$7,0*
20,1,$1+$1,$6,$7,$8,$9,0*
20,1,$1+$1,$8,$9,$2,$3,0*%
G04 Aperture macros list end*
%ADD10C,0.200000*%
%ADD11C,0.150000*%
%ADD12C,0.100000*%
%ADD13C,0.120000*%
%ADD14RoundRect,0.250000X-0.550000X0.550000X-0.550000X-0.550000X0.550000X-0.550000X0.550000X0.550000X0*%
%ADD15C,1.600000*%
%ADD16RoundRect,0.590551X-0.909449X0.909449X-0.909449X-0.909449X0.909449X-0.909449X0.909449X0.909449X0*%
%ADD17C,3.500000*%
%ADD18R,1.700000X1.700000*%
%ADD19C,1.700000*%
%ADD20RoundRect,0.150000X0.750000X-0.150000X0.750000X0.150000X-0.750000X0.150000X-0.750000X-0.150000X0*%
%ADD21RoundRect,0.250000X1.250000X-1.050000X1.250000X1.050000X-1.250000X1.050000X-1.250000X-1.050000X0*%
%ADD22RoundRect,0.590551X0.909449X-0.909449X0.909449X0.909449X-0.909449X0.909449X-0.909449X-0.909449X0*%
%ADD23C,2.000000*%
%ADD24RoundRect,0.250000X-0.550000X-0.550000X0.550000X-0.550000X0.550000X0.550000X-0.550000X0.550000X0*%
G04 APERTURE END LIST*
D10*
X172023809Y-98752219D02*
X172023809Y-97752219D01*
X172023809Y-97752219D02*
X171642857Y-97752219D01*
X171642857Y-97752219D02*
X171547619Y-97799838D01*
X171547619Y-97799838D02*
X171500000Y-97847457D01*
X171500000Y-97847457D02*
X171452381Y-97942695D01*
X171452381Y-97942695D02*
X171452381Y-98085552D01*
X171452381Y-98085552D02*
X171500000Y-98180790D01*
X171500000Y-98180790D02*
X171547619Y-98228409D01*
X171547619Y-98228409D02*
X171642857Y-98276028D01*
X171642857Y-98276028D02*
X172023809Y-98276028D01*
X171119047Y-98085552D02*
X170880952Y-98752219D01*
X170642857Y-98085552D02*
X170880952Y-98752219D01*
X170880952Y-98752219D02*
X170976190Y-98990314D01*
X170976190Y-98990314D02*
X171023809Y-99037933D01*
X171023809Y-99037933D02*
X171119047Y-99085552D01*
X170119047Y-98752219D02*
X170214285Y-98704600D01*
X170214285Y-98704600D02*
X170261904Y-98609361D01*
X170261904Y-98609361D02*
X170261904Y-97752219D01*
X169595237Y-98752219D02*
X169690475Y-98704600D01*
X169690475Y-98704600D02*
X169738094Y-98656980D01*
X169738094Y-98656980D02*
X169785713Y-98561742D01*
X169785713Y-98561742D02*
X169785713Y-98276028D01*
X169785713Y-98276028D02*
X169738094Y-98180790D01*
X169738094Y-98180790D02*
X169690475Y-98133171D01*
X169690475Y-98133171D02*
X169595237Y-98085552D01*
X169595237Y-98085552D02*
X169452380Y-98085552D01*
X169452380Y-98085552D02*
X169357142Y-98133171D01*
X169357142Y-98133171D02*
X169309523Y-98180790D01*
X169309523Y-98180790D02*
X169261904Y-98276028D01*
X169261904Y-98276028D02*
X169261904Y-98561742D01*
X169261904Y-98561742D02*
X169309523Y-98656980D01*
X169309523Y-98656980D02*
X169357142Y-98704600D01*
X169357142Y-98704600D02*
X169452380Y-98752219D01*
X169452380Y-98752219D02*
X169595237Y-98752219D01*
X168404761Y-98085552D02*
X168404761Y-98752219D01*
X168833332Y-98085552D02*
X168833332Y-98609361D01*
X168833332Y-98609361D02*
X168785713Y-98704600D01*
X168785713Y-98704600D02*
X168690475Y-98752219D01*
X168690475Y-98752219D02*
X168547618Y-98752219D01*
X168547618Y-98752219D02*
X168452380Y-98704600D01*
X168452380Y-98704600D02*
X168404761Y-98656980D01*
X167166665Y-98752219D02*
X167166665Y-98085552D01*
X167166665Y-98180790D02*
X167119046Y-98133171D01*
X167119046Y-98133171D02*
X167023808Y-98085552D01*
X167023808Y-98085552D02*
X166880951Y-98085552D01*
X166880951Y-98085552D02*
X166785713Y-98133171D01*
X166785713Y-98133171D02*
X166738094Y-98228409D01*
X166738094Y-98228409D02*
X166738094Y-98752219D01*
X166738094Y-98228409D02*
X166690475Y-98133171D01*
X166690475Y-98133171D02*
X166595237Y-98085552D01*
X166595237Y-98085552D02*
X166452380Y-98085552D01*
X166452380Y-98085552D02*
X166357141Y-98133171D01*
X166357141Y-98133171D02*
X166309522Y-98228409D01*
X166309522Y-98228409D02*
X166309522Y-98752219D01*
X165690475Y-98752219D02*
X165785713Y-98704600D01*
X165785713Y-98704600D02*
X165833332Y-98656980D01*
X165833332Y-98656980D02*
X165880951Y-98561742D01*
X165880951Y-98561742D02*
X165880951Y-98276028D01*
X165880951Y-98276028D02*
X165833332Y-98180790D01*
X165833332Y-98180790D02*
X165785713Y-98133171D01*
X165785713Y-98133171D02*
X165690475Y-98085552D01*
X165690475Y-98085552D02*
X165547618Y-98085552D01*
X165547618Y-98085552D02*
X165452380Y-98133171D01*
X165452380Y-98133171D02*
X165404761Y-98180790D01*
X165404761Y-98180790D02*
X165357142Y-98276028D01*
X165357142Y-98276028D02*
X165357142Y-98561742D01*
X165357142Y-98561742D02*
X165404761Y-98656980D01*
X165404761Y-98656980D02*
X165452380Y-98704600D01*
X165452380Y-98704600D02*
X165547618Y-98752219D01*
X165547618Y-98752219D02*
X165690475Y-98752219D01*
X164928570Y-98085552D02*
X164928570Y-98752219D01*
X164928570Y-98180790D02*
X164880951Y-98133171D01*
X164880951Y-98133171D02*
X164785713Y-98085552D01*
X164785713Y-98085552D02*
X164642856Y-98085552D01*
X164642856Y-98085552D02*
X164547618Y-98133171D01*
X164547618Y-98133171D02*
X164499999Y-98228409D01*
X164499999Y-98228409D02*
X164499999Y-98752219D01*
X162928570Y-98228409D02*
X162785713Y-98276028D01*
X162785713Y-98276028D02*
X162738094Y-98323647D01*
X162738094Y-98323647D02*
X162690475Y-98418885D01*
X162690475Y-98418885D02*
X162690475Y-98561742D01*
X162690475Y-98561742D02*
X162738094Y-98656980D01*
X162738094Y-98656980D02*
X162785713Y-98704600D01*
X162785713Y-98704600D02*
X162880951Y-98752219D01*
X162880951Y-98752219D02*
X163261903Y-98752219D01*
X163261903Y-98752219D02*
X163261903Y-97752219D01*
X163261903Y-97752219D02*
X162928570Y-97752219D01*
X162928570Y-97752219D02*
X162833332Y-97799838D01*
X162833332Y-97799838D02*
X162785713Y-97847457D01*
X162785713Y-97847457D02*
X162738094Y-97942695D01*
X162738094Y-97942695D02*
X162738094Y-98037933D01*
X162738094Y-98037933D02*
X162785713Y-98133171D01*
X162785713Y-98133171D02*
X162833332Y-98180790D01*
X162833332Y-98180790D02*
X162928570Y-98228409D01*
X162928570Y-98228409D02*
X163261903Y-98228409D01*
X161928570Y-98228409D02*
X161785713Y-98276028D01*
X161785713Y-98276028D02*
X161738094Y-98323647D01*
X161738094Y-98323647D02*
X161690475Y-98418885D01*
X161690475Y-98418885D02*
X161690475Y-98561742D01*
X161690475Y-98561742D02*
X161738094Y-98656980D01*
X161738094Y-98656980D02*
X161785713Y-98704600D01*
X161785713Y-98704600D02*
X161880951Y-98752219D01*
X161880951Y-98752219D02*
X162261903Y-98752219D01*
X162261903Y-98752219D02*
X162261903Y-97752219D01*
X162261903Y-97752219D02*
X161928570Y-97752219D01*
X161928570Y-97752219D02*
X161833332Y-97799838D01*
X161833332Y-97799838D02*
X161785713Y-97847457D01*
X161785713Y-97847457D02*
X161738094Y-97942695D01*
X161738094Y-97942695D02*
X161738094Y-98037933D01*
X161738094Y-98037933D02*
X161785713Y-98133171D01*
X161785713Y-98133171D02*
X161833332Y-98180790D01*
X161833332Y-98180790D02*
X161928570Y-98228409D01*
X161928570Y-98228409D02*
X162261903Y-98228409D01*
X160071427Y-98752219D02*
X160071427Y-97752219D01*
X160071427Y-98704600D02*
X160166665Y-98752219D01*
X160166665Y-98752219D02*
X160357141Y-98752219D01*
X160357141Y-98752219D02*
X160452379Y-98704600D01*
X160452379Y-98704600D02*
X160499998Y-98656980D01*
X160499998Y-98656980D02*
X160547617Y-98561742D01*
X160547617Y-98561742D02*
X160547617Y-98276028D01*
X160547617Y-98276028D02*
X160499998Y-98180790D01*
X160499998Y-98180790D02*
X160452379Y-98133171D01*
X160452379Y-98133171D02*
X160357141Y-98085552D01*
X160357141Y-98085552D02*
X160166665Y-98085552D01*
X160166665Y-98085552D02*
X160071427Y-98133171D01*
X159547617Y-97752219D02*
X159642855Y-97942695D01*
X158690475Y-98752219D02*
X158690475Y-98228409D01*
X158690475Y-98228409D02*
X158738094Y-98133171D01*
X158738094Y-98133171D02*
X158833332Y-98085552D01*
X158833332Y-98085552D02*
X159023808Y-98085552D01*
X159023808Y-98085552D02*
X159119046Y-98133171D01*
X158690475Y-98704600D02*
X158785713Y-98752219D01*
X158785713Y-98752219D02*
X159023808Y-98752219D01*
X159023808Y-98752219D02*
X159119046Y-98704600D01*
X159119046Y-98704600D02*
X159166665Y-98609361D01*
X159166665Y-98609361D02*
X159166665Y-98514123D01*
X159166665Y-98514123D02*
X159119046Y-98418885D01*
X159119046Y-98418885D02*
X159023808Y-98371266D01*
X159023808Y-98371266D02*
X158785713Y-98371266D01*
X158785713Y-98371266D02*
X158690475Y-98323647D01*
X158214284Y-98752219D02*
X158214284Y-98085552D01*
X158214284Y-98180790D02*
X158166665Y-98133171D01*
X158166665Y-98133171D02*
X158071427Y-98085552D01*
X158071427Y-98085552D02*
X157928570Y-98085552D01*
X157928570Y-98085552D02*
X157833332Y-98133171D01*
X157833332Y-98133171D02*
X157785713Y-98228409D01*
X157785713Y-98228409D02*
X157785713Y-98752219D01*
X157785713Y-98228409D02*
X157738094Y-98133171D01*
X157738094Y-98133171D02*
X157642856Y-98085552D01*
X157642856Y-98085552D02*
X157499999Y-98085552D01*
X157499999Y-98085552D02*
X157404760Y-98133171D01*
X157404760Y-98133171D02*
X157357141Y-98228409D01*
X157357141Y-98228409D02*
X157357141Y-98752219D01*
X156738094Y-98752219D02*
X156833332Y-98704600D01*
X156833332Y-98704600D02*
X156880951Y-98656980D01*
X156880951Y-98656980D02*
X156928570Y-98561742D01*
X156928570Y-98561742D02*
X156928570Y-98276028D01*
X156928570Y-98276028D02*
X156880951Y-98180790D01*
X156880951Y-98180790D02*
X156833332Y-98133171D01*
X156833332Y-98133171D02*
X156738094Y-98085552D01*
X156738094Y-98085552D02*
X156595237Y-98085552D01*
X156595237Y-98085552D02*
X156499999Y-98133171D01*
X156499999Y-98133171D02*
X156452380Y-98180790D01*
X156452380Y-98180790D02*
X156404761Y-98276028D01*
X156404761Y-98276028D02*
X156404761Y-98561742D01*
X156404761Y-98561742D02*
X156452380Y-98656980D01*
X156452380Y-98656980D02*
X156499999Y-98704600D01*
X156499999Y-98704600D02*
X156595237Y-98752219D01*
X156595237Y-98752219D02*
X156738094Y-98752219D01*
X155547618Y-98085552D02*
X155547618Y-98752219D01*
X155976189Y-98085552D02*
X155976189Y-98609361D01*
X155976189Y-98609361D02*
X155928570Y-98704600D01*
X155928570Y-98704600D02*
X155833332Y-98752219D01*
X155833332Y-98752219D02*
X155690475Y-98752219D01*
X155690475Y-98752219D02*
X155595237Y-98704600D01*
X155595237Y-98704600D02*
X155547618Y-98656980D01*
X155071427Y-98752219D02*
X155071427Y-98085552D01*
X155071427Y-98276028D02*
X155023808Y-98180790D01*
X155023808Y-98180790D02*
X154976189Y-98133171D01*
X154976189Y-98133171D02*
X154880951Y-98085552D01*
X154880951Y-98085552D02*
X154785713Y-98085552D01*
X152928570Y-98085552D02*
X153690474Y-98371266D01*
X153690474Y-98371266D02*
X152928570Y-98656980D01*
X152547617Y-97752219D02*
X151928570Y-97752219D01*
X151928570Y-97752219D02*
X152261903Y-98133171D01*
X152261903Y-98133171D02*
X152119046Y-98133171D01*
X152119046Y-98133171D02*
X152023808Y-98180790D01*
X152023808Y-98180790D02*
X151976189Y-98228409D01*
X151976189Y-98228409D02*
X151928570Y-98323647D01*
X151928570Y-98323647D02*
X151928570Y-98561742D01*
X151928570Y-98561742D02*
X151976189Y-98656980D01*
X151976189Y-98656980D02*
X152023808Y-98704600D01*
X152023808Y-98704600D02*
X152119046Y-98752219D01*
X152119046Y-98752219D02*
X152404760Y-98752219D01*
X152404760Y-98752219D02*
X152499998Y-98704600D01*
X152499998Y-98704600D02*
X152547617Y-98656980D01*
D11*
X204319048Y-54973866D02*
X205080953Y-54973866D01*
X204319048Y-61673866D02*
X205080953Y-61673866D01*
X204700000Y-62054819D02*
X204700000Y-61292914D01*
X204429819Y-73240476D02*
X205144104Y-73240476D01*
X205144104Y-73240476D02*
X205286961Y-73192857D01*
X205286961Y-73192857D02*
X205382200Y-73097619D01*
X205382200Y-73097619D02*
X205429819Y-72954762D01*
X205429819Y-72954762D02*
X205429819Y-72859524D01*
X205429819Y-74240476D02*
X205429819Y-73669048D01*
X205429819Y-73954762D02*
X204429819Y-73954762D01*
X204429819Y-73954762D02*
X204572676Y-73859524D01*
X204572676Y-73859524D02*
X204667914Y-73764286D01*
X204667914Y-73764286D02*
X204715533Y-73669048D01*
X205429819Y-75192857D02*
X205429819Y-74621429D01*
X205429819Y-74907143D02*
X204429819Y-74907143D01*
X204429819Y-74907143D02*
X204572676Y-74811905D01*
X204572676Y-74811905D02*
X204667914Y-74716667D01*
X204667914Y-74716667D02*
X204715533Y-74621429D01*
D12*
X124777332Y-43081800D02*
X124634475Y-43129419D01*
X124634475Y-43129419D02*
X124396380Y-43129419D01*
X124396380Y-43129419D02*
X124301142Y-43081800D01*
X124301142Y-43081800D02*
X124253523Y-43034180D01*
X124253523Y-43034180D02*
X124205904Y-42938942D01*
X124205904Y-42938942D02*
X124205904Y-42843704D01*
X124205904Y-42843704D02*
X124253523Y-42748466D01*
X124253523Y-42748466D02*
X124301142Y-42700847D01*
X124301142Y-42700847D02*
X124396380Y-42653228D01*
X124396380Y-42653228D02*
X124586856Y-42605609D01*
X124586856Y-42605609D02*
X124682094Y-42557990D01*
X124682094Y-42557990D02*
X124729713Y-42510371D01*
X124729713Y-42510371D02*
X124777332Y-42415133D01*
X124777332Y-42415133D02*
X124777332Y-42319895D01*
X124777332Y-42319895D02*
X124729713Y-42224657D01*
X124729713Y-42224657D02*
X124682094Y-42177038D01*
X124682094Y-42177038D02*
X124586856Y-42129419D01*
X124586856Y-42129419D02*
X124348761Y-42129419D01*
X124348761Y-42129419D02*
X124205904Y-42177038D01*
X123872570Y-42129419D02*
X123634475Y-43129419D01*
X123634475Y-43129419D02*
X123443999Y-42415133D01*
X123443999Y-42415133D02*
X123253523Y-43129419D01*
X123253523Y-43129419D02*
X123015428Y-42129419D01*
X122205904Y-42462752D02*
X122205904Y-43129419D01*
X122443999Y-42081800D02*
X122682094Y-42796085D01*
X122682094Y-42796085D02*
X122063047Y-42796085D01*
D11*
X185333333Y-93374819D02*
X185333333Y-94089104D01*
X185333333Y-94089104D02*
X185380952Y-94231961D01*
X185380952Y-94231961D02*
X185476190Y-94327200D01*
X185476190Y-94327200D02*
X185619047Y-94374819D01*
X185619047Y-94374819D02*
X185714285Y-94374819D01*
X184380952Y-93374819D02*
X184857142Y-93374819D01*
X184857142Y-93374819D02*
X184904761Y-93851009D01*
X184904761Y-93851009D02*
X184857142Y-93803390D01*
X184857142Y-93803390D02*
X184761904Y-93755771D01*
X184761904Y-93755771D02*
X184523809Y-93755771D01*
X184523809Y-93755771D02*
X184428571Y-93803390D01*
X184428571Y-93803390D02*
X184380952Y-93851009D01*
X184380952Y-93851009D02*
X184333333Y-93946247D01*
X184333333Y-93946247D02*
X184333333Y-94184342D01*
X184333333Y-94184342D02*
X184380952Y-94279580D01*
X184380952Y-94279580D02*
X184428571Y-94327200D01*
X184428571Y-94327200D02*
X184523809Y-94374819D01*
X184523809Y-94374819D02*
X184761904Y-94374819D01*
X184761904Y-94374819D02*
X184857142Y-94327200D01*
X184857142Y-94327200D02*
X184904761Y-94279580D01*
X202509523Y-93274819D02*
X202509523Y-93989104D01*
X202509523Y-93989104D02*
X202557142Y-94131961D01*
X202557142Y-94131961D02*
X202652380Y-94227200D01*
X202652380Y-94227200D02*
X202795237Y-94274819D01*
X202795237Y-94274819D02*
X202890475Y-94274819D01*
X201509523Y-94274819D02*
X202080951Y-94274819D01*
X201795237Y-94274819D02*
X201795237Y-93274819D01*
X201795237Y-93274819D02*
X201890475Y-93417676D01*
X201890475Y-93417676D02*
X201985713Y-93512914D01*
X201985713Y-93512914D02*
X202080951Y-93560533D01*
X200890475Y-93274819D02*
X200795237Y-93274819D01*
X200795237Y-93274819D02*
X200699999Y-93322438D01*
X200699999Y-93322438D02*
X200652380Y-93370057D01*
X200652380Y-93370057D02*
X200604761Y-93465295D01*
X200604761Y-93465295D02*
X200557142Y-93655771D01*
X200557142Y-93655771D02*
X200557142Y-93893866D01*
X200557142Y-93893866D02*
X200604761Y-94084342D01*
X200604761Y-94084342D02*
X200652380Y-94179580D01*
X200652380Y-94179580D02*
X200699999Y-94227200D01*
X200699999Y-94227200D02*
X200795237Y-94274819D01*
X200795237Y-94274819D02*
X200890475Y-94274819D01*
X200890475Y-94274819D02*
X200985713Y-94227200D01*
X200985713Y-94227200D02*
X201033332Y-94179580D01*
X201033332Y-94179580D02*
X201080951Y-94084342D01*
X201080951Y-94084342D02*
X201128570Y-93893866D01*
X201128570Y-93893866D02*
X201128570Y-93655771D01*
X201128570Y-93655771D02*
X201080951Y-93465295D01*
X201080951Y-93465295D02*
X201033332Y-93370057D01*
X201033332Y-93370057D02*
X200985713Y-93322438D01*
X200985713Y-93322438D02*
X200890475Y-93274819D01*
X164333332Y-39557200D02*
X164190475Y-39604819D01*
X164190475Y-39604819D02*
X163952380Y-39604819D01*
X163952380Y-39604819D02*
X163857142Y-39557200D01*
X163857142Y-39557200D02*
X163809523Y-39509580D01*
X163809523Y-39509580D02*
X163761904Y-39414342D01*
X163761904Y-39414342D02*
X163761904Y-39319104D01*
X163761904Y-39319104D02*
X163809523Y-39223866D01*
X163809523Y-39223866D02*
X163857142Y-39176247D01*
X163857142Y-39176247D02*
X163952380Y-39128628D01*
X163952380Y-39128628D02*
X164142856Y-39081009D01*
X164142856Y-39081009D02*
X164238094Y-39033390D01*
X164238094Y-39033390D02*
X164285713Y-38985771D01*
X164285713Y-38985771D02*
X164333332Y-38890533D01*
X164333332Y-38890533D02*
X164333332Y-38795295D01*
X164333332Y-38795295D02*
X164285713Y-38700057D01*
X164285713Y-38700057D02*
X164238094Y-38652438D01*
X164238094Y-38652438D02*
X164142856Y-38604819D01*
X164142856Y-38604819D02*
X163904761Y-38604819D01*
X163904761Y-38604819D02*
X163761904Y-38652438D01*
X163428570Y-38604819D02*
X163190475Y-39604819D01*
X163190475Y-39604819D02*
X162999999Y-38890533D01*
X162999999Y-38890533D02*
X162809523Y-39604819D01*
X162809523Y-39604819D02*
X162571428Y-38604819D01*
X161666666Y-39604819D02*
X162238094Y-39604819D01*
X161952380Y-39604819D02*
X161952380Y-38604819D01*
X161952380Y-38604819D02*
X162047618Y-38747676D01*
X162047618Y-38747676D02*
X162142856Y-38842914D01*
X162142856Y-38842914D02*
X162238094Y-38890533D01*
X205057333Y-62554819D02*
X205057333Y-63269104D01*
X205057333Y-63269104D02*
X205104952Y-63411961D01*
X205104952Y-63411961D02*
X205200190Y-63507200D01*
X205200190Y-63507200D02*
X205343047Y-63554819D01*
X205343047Y-63554819D02*
X205438285Y-63554819D01*
X204676380Y-62554819D02*
X204057333Y-62554819D01*
X204057333Y-62554819D02*
X204390666Y-62935771D01*
X204390666Y-62935771D02*
X204247809Y-62935771D01*
X204247809Y-62935771D02*
X204152571Y-62983390D01*
X204152571Y-62983390D02*
X204104952Y-63031009D01*
X204104952Y-63031009D02*
X204057333Y-63126247D01*
X204057333Y-63126247D02*
X204057333Y-63364342D01*
X204057333Y-63364342D02*
X204104952Y-63459580D01*
X204104952Y-63459580D02*
X204152571Y-63507200D01*
X204152571Y-63507200D02*
X204247809Y-63554819D01*
X204247809Y-63554819D02*
X204533523Y-63554819D01*
X204533523Y-63554819D02*
X204628761Y-63507200D01*
X204628761Y-63507200D02*
X204676380Y-63459580D01*
X194389333Y-92324819D02*
X194389333Y-93039104D01*
X194389333Y-93039104D02*
X194436952Y-93181961D01*
X194436952Y-93181961D02*
X194532190Y-93277200D01*
X194532190Y-93277200D02*
X194675047Y-93324819D01*
X194675047Y-93324819D02*
X194770285Y-93324819D01*
X193484571Y-92658152D02*
X193484571Y-93324819D01*
X193722666Y-92277200D02*
X193960761Y-92991485D01*
X193960761Y-92991485D02*
X193341714Y-92991485D01*
X117658819Y-61896666D02*
X118373104Y-61896666D01*
X118373104Y-61896666D02*
X118515961Y-61849047D01*
X118515961Y-61849047D02*
X118611200Y-61753809D01*
X118611200Y-61753809D02*
X118658819Y-61610952D01*
X118658819Y-61610952D02*
X118658819Y-61515714D01*
X117754057Y-62325238D02*
X117706438Y-62372857D01*
X117706438Y-62372857D02*
X117658819Y-62468095D01*
X117658819Y-62468095D02*
X117658819Y-62706190D01*
X117658819Y-62706190D02*
X117706438Y-62801428D01*
X117706438Y-62801428D02*
X117754057Y-62849047D01*
X117754057Y-62849047D02*
X117849295Y-62896666D01*
X117849295Y-62896666D02*
X117944533Y-62896666D01*
X117944533Y-62896666D02*
X118087390Y-62849047D01*
X118087390Y-62849047D02*
X118658819Y-62277619D01*
X118658819Y-62277619D02*
X118658819Y-62896666D01*
X197194819Y-31966666D02*
X197909104Y-31966666D01*
X197909104Y-31966666D02*
X198051961Y-31919047D01*
X198051961Y-31919047D02*
X198147200Y-31823809D01*
X198147200Y-31823809D02*
X198194819Y-31680952D01*
X198194819Y-31680952D02*
X198194819Y-31585714D01*
X198194819Y-32490476D02*
X198194819Y-32680952D01*
X198194819Y-32680952D02*
X198147200Y-32776190D01*
X198147200Y-32776190D02*
X198099580Y-32823809D01*
X198099580Y-32823809D02*
X197956723Y-32919047D01*
X197956723Y-32919047D02*
X197766247Y-32966666D01*
X197766247Y-32966666D02*
X197385295Y-32966666D01*
X197385295Y-32966666D02*
X197290057Y-32919047D01*
X197290057Y-32919047D02*
X197242438Y-32871428D01*
X197242438Y-32871428D02*
X197194819Y-32776190D01*
X197194819Y-32776190D02*
X197194819Y-32585714D01*
X197194819Y-32585714D02*
X197242438Y-32490476D01*
X197242438Y-32490476D02*
X197290057Y-32442857D01*
X197290057Y-32442857D02*
X197385295Y-32395238D01*
X197385295Y-32395238D02*
X197623390Y-32395238D01*
X197623390Y-32395238D02*
X197718628Y-32442857D01*
X197718628Y-32442857D02*
X197766247Y-32490476D01*
X197766247Y-32490476D02*
X197813866Y-32585714D01*
X197813866Y-32585714D02*
X197813866Y-32776190D01*
X197813866Y-32776190D02*
X197766247Y-32871428D01*
X197766247Y-32871428D02*
X197718628Y-32919047D01*
X197718628Y-32919047D02*
X197623390Y-32966666D01*
X202283332Y-43655200D02*
X202140475Y-43702819D01*
X202140475Y-43702819D02*
X201902380Y-43702819D01*
X201902380Y-43702819D02*
X201807142Y-43655200D01*
X201807142Y-43655200D02*
X201759523Y-43607580D01*
X201759523Y-43607580D02*
X201711904Y-43512342D01*
X201711904Y-43512342D02*
X201711904Y-43417104D01*
X201711904Y-43417104D02*
X201759523Y-43321866D01*
X201759523Y-43321866D02*
X201807142Y-43274247D01*
X201807142Y-43274247D02*
X201902380Y-43226628D01*
X201902380Y-43226628D02*
X202092856Y-43179009D01*
X202092856Y-43179009D02*
X202188094Y-43131390D01*
X202188094Y-43131390D02*
X202235713Y-43083771D01*
X202235713Y-43083771D02*
X202283332Y-42988533D01*
X202283332Y-42988533D02*
X202283332Y-42893295D01*
X202283332Y-42893295D02*
X202235713Y-42798057D01*
X202235713Y-42798057D02*
X202188094Y-42750438D01*
X202188094Y-42750438D02*
X202092856Y-42702819D01*
X202092856Y-42702819D02*
X201854761Y-42702819D01*
X201854761Y-42702819D02*
X201711904Y-42750438D01*
X201378570Y-42702819D02*
X201140475Y-43702819D01*
X201140475Y-43702819D02*
X200949999Y-42988533D01*
X200949999Y-42988533D02*
X200759523Y-43702819D01*
X200759523Y-43702819D02*
X200521428Y-42702819D01*
X200188094Y-42798057D02*
X200140475Y-42750438D01*
X200140475Y-42750438D02*
X200045237Y-42702819D01*
X200045237Y-42702819D02*
X199807142Y-42702819D01*
X199807142Y-42702819D02*
X199711904Y-42750438D01*
X199711904Y-42750438D02*
X199664285Y-42798057D01*
X199664285Y-42798057D02*
X199616666Y-42893295D01*
X199616666Y-42893295D02*
X199616666Y-42988533D01*
X199616666Y-42988533D02*
X199664285Y-43131390D01*
X199664285Y-43131390D02*
X200235713Y-43702819D01*
X200235713Y-43702819D02*
X199616666Y-43702819D01*
X191416857Y-62671580D02*
X191464476Y-62719200D01*
X191464476Y-62719200D02*
X191607333Y-62766819D01*
X191607333Y-62766819D02*
X191702571Y-62766819D01*
X191702571Y-62766819D02*
X191845428Y-62719200D01*
X191845428Y-62719200D02*
X191940666Y-62623961D01*
X191940666Y-62623961D02*
X191988285Y-62528723D01*
X191988285Y-62528723D02*
X192035904Y-62338247D01*
X192035904Y-62338247D02*
X192035904Y-62195390D01*
X192035904Y-62195390D02*
X191988285Y-62004914D01*
X191988285Y-62004914D02*
X191940666Y-61909676D01*
X191940666Y-61909676D02*
X191845428Y-61814438D01*
X191845428Y-61814438D02*
X191702571Y-61766819D01*
X191702571Y-61766819D02*
X191607333Y-61766819D01*
X191607333Y-61766819D02*
X191464476Y-61814438D01*
X191464476Y-61814438D02*
X191416857Y-61862057D01*
X190464476Y-62766819D02*
X191035904Y-62766819D01*
X190750190Y-62766819D02*
X190750190Y-61766819D01*
X190750190Y-61766819D02*
X190845428Y-61909676D01*
X190845428Y-61909676D02*
X190940666Y-62004914D01*
X190940666Y-62004914D02*
X191035904Y-62052533D01*
X189845428Y-61766819D02*
X189750190Y-61766819D01*
X189750190Y-61766819D02*
X189654952Y-61814438D01*
X189654952Y-61814438D02*
X189607333Y-61862057D01*
X189607333Y-61862057D02*
X189559714Y-61957295D01*
X189559714Y-61957295D02*
X189512095Y-62147771D01*
X189512095Y-62147771D02*
X189512095Y-62385866D01*
X189512095Y-62385866D02*
X189559714Y-62576342D01*
X189559714Y-62576342D02*
X189607333Y-62671580D01*
X189607333Y-62671580D02*
X189654952Y-62719200D01*
X189654952Y-62719200D02*
X189750190Y-62766819D01*
X189750190Y-62766819D02*
X189845428Y-62766819D01*
X189845428Y-62766819D02*
X189940666Y-62719200D01*
X189940666Y-62719200D02*
X189988285Y-62671580D01*
X189988285Y-62671580D02*
X190035904Y-62576342D01*
X190035904Y-62576342D02*
X190083523Y-62385866D01*
X190083523Y-62385866D02*
X190083523Y-62147771D01*
X190083523Y-62147771D02*
X190035904Y-61957295D01*
X190035904Y-61957295D02*
X189988285Y-61862057D01*
X189988285Y-61862057D02*
X189940666Y-61814438D01*
X189940666Y-61814438D02*
X189845428Y-61766819D01*
D13*
%TO.C,J11*%
X196560000Y-66440000D02*
X196560000Y-81660000D01*
X196560000Y-81660000D02*
X197670000Y-81660000D01*
X197670000Y-66440000D02*
X196560000Y-66440000D01*
X197670000Y-81660000D02*
X199170000Y-81310000D01*
X199170000Y-66790000D02*
X197670000Y-66440000D01*
X202080000Y-69990000D02*
X202080000Y-69760000D01*
X203140000Y-78570000D02*
X202660000Y-78570000D01*
X202900000Y-78240000D01*
X203140000Y-78570000D01*
G36*
X203140000Y-78570000D02*
G01*
X202660000Y-78570000D01*
X202900000Y-78240000D01*
X203140000Y-78570000D01*
G37*
%TO.C,SW4*%
D12*
X129476000Y-40918000D02*
X121476000Y-40918000D01*
X121476000Y-27918000D01*
X129476000Y-27918000D01*
X129476000Y-40918000D01*
D13*
%TO.C,J5*%
X183620000Y-97570000D02*
X183620000Y-100220000D01*
X186380000Y-94920000D02*
X185000000Y-94920000D01*
X186380000Y-96300000D02*
X186380000Y-94920000D01*
X186380000Y-97570000D02*
X183620000Y-97570000D01*
X186380000Y-97570000D02*
X186380000Y-100220000D01*
X186380000Y-100220000D02*
X183620000Y-100220000D01*
%TO.C,J10*%
X200320000Y-97470000D02*
X200320000Y-102660000D01*
X203080000Y-94820000D02*
X201700000Y-94820000D01*
X203080000Y-96200000D02*
X203080000Y-94820000D01*
X203080000Y-97470000D02*
X200320000Y-97470000D01*
X203080000Y-97470000D02*
X203080000Y-102660000D01*
X203080000Y-102660000D02*
X200320000Y-102660000D01*
%TO.C,SW1*%
X159500000Y-44150000D02*
X159500000Y-42650000D01*
X160750000Y-40150000D02*
X165250000Y-40150000D01*
X165250000Y-46650000D02*
X160750000Y-46650000D01*
X166500000Y-42650000D02*
X166500000Y-44150000D01*
%TO.C,J3*%
X203344000Y-55770000D02*
X206104000Y-55770000D01*
X203344000Y-58420000D02*
X203344000Y-55770000D01*
X203344000Y-58420000D02*
X206104000Y-58420000D01*
X203344000Y-59690000D02*
X203344000Y-61070000D01*
X203344000Y-61070000D02*
X204724000Y-61070000D01*
X206104000Y-58420000D02*
X206104000Y-55770000D01*
%TO.C,J4*%
X192676000Y-96520000D02*
X192676000Y-101710000D01*
X195436000Y-93870000D02*
X194056000Y-93870000D01*
X195436000Y-95250000D02*
X195436000Y-93870000D01*
X195436000Y-96520000D02*
X192676000Y-96520000D01*
X195436000Y-96520000D02*
X195436000Y-101710000D01*
X195436000Y-101710000D02*
X192676000Y-101710000D01*
%TO.C,J2*%
X111904000Y-63610000D02*
X111904000Y-60850000D01*
X114554000Y-60850000D02*
X111904000Y-60850000D01*
X114554000Y-63610000D02*
X111904000Y-63610000D01*
X114554000Y-63610000D02*
X114554000Y-60850000D01*
X115824000Y-63610000D02*
X117204000Y-63610000D01*
X117204000Y-63610000D02*
X117204000Y-62230000D01*
%TO.C,J9*%
X198740000Y-30920000D02*
X198740000Y-32300000D01*
X200120000Y-30920000D02*
X198740000Y-30920000D01*
X201390000Y-30920000D02*
X201390000Y-33680000D01*
X201390000Y-30920000D02*
X206580000Y-30920000D01*
X201390000Y-33680000D02*
X206580000Y-33680000D01*
X206580000Y-30920000D02*
X206580000Y-33680000D01*
%TO.C,SW2*%
X197450000Y-48248000D02*
X197450000Y-46748000D01*
X198700000Y-44248000D02*
X203200000Y-44248000D01*
X203200000Y-50748000D02*
X198700000Y-50748000D01*
X204450000Y-46748000D02*
X204450000Y-48248000D01*
%TO.C,C10*%
X187273759Y-59751000D02*
X187903759Y-59751000D01*
X187588759Y-60066000D02*
X187588759Y-59436000D01*
X190774000Y-61142000D02*
X190774000Y-54682000D01*
X190814000Y-61142000D02*
X190814000Y-54682000D01*
X190854000Y-61141000D02*
X190854000Y-54683000D01*
X190894000Y-61140000D02*
X190894000Y-54684000D01*
X190934000Y-61138000D02*
X190934000Y-54686000D01*
X190974000Y-61136000D02*
X190974000Y-54688000D01*
X191014000Y-56872000D02*
X191014000Y-54691000D01*
X191014000Y-61133000D02*
X191014000Y-58952000D01*
X191054000Y-56872000D02*
X191054000Y-54694000D01*
X191054000Y-61130000D02*
X191054000Y-58952000D01*
X191094000Y-56872000D02*
X191094000Y-54698000D01*
X191094000Y-61126000D02*
X191094000Y-58952000D01*
X191134000Y-56872000D02*
X191134000Y-54702000D01*
X191134000Y-61122000D02*
X191134000Y-58952000D01*
X191174000Y-56872000D02*
X191174000Y-54707000D01*
X191174000Y-61117000D02*
X191174000Y-58952000D01*
X191214000Y-56872000D02*
X191214000Y-54712000D01*
X191214000Y-61112000D02*
X191214000Y-58952000D01*
X191254000Y-56872000D02*
X191254000Y-54717000D01*
X191254000Y-61107000D02*
X191254000Y-58952000D01*
X191294000Y-56872000D02*
X191294000Y-54724000D01*
X191294000Y-61100000D02*
X191294000Y-58952000D01*
X191334000Y-56872000D02*
X191334000Y-54730000D01*
X191334000Y-61094000D02*
X191334000Y-58952000D01*
X191374000Y-56872000D02*
X191374000Y-54738000D01*
X191374000Y-61086000D02*
X191374000Y-58952000D01*
X191414000Y-56872000D02*
X191414000Y-54745000D01*
X191414000Y-61079000D02*
X191414000Y-58952000D01*
X191454000Y-56872000D02*
X191454000Y-54753000D01*
X191454000Y-61071000D02*
X191454000Y-58952000D01*
X191494000Y-56872000D02*
X191494000Y-54762000D01*
X191494000Y-61062000D02*
X191494000Y-58952000D01*
X191534000Y-56872000D02*
X191534000Y-54772000D01*
X191534000Y-61052000D02*
X191534000Y-58952000D01*
X191574000Y-56872000D02*
X191574000Y-54781000D01*
X191574000Y-61043000D02*
X191574000Y-58952000D01*
X191614000Y-56872000D02*
X191614000Y-54792000D01*
X191614000Y-61032000D02*
X191614000Y-58952000D01*
X191654000Y-56872000D02*
X191654000Y-54803000D01*
X191654000Y-61021000D02*
X191654000Y-58952000D01*
X191694000Y-56872000D02*
X191694000Y-54814000D01*
X191694000Y-61010000D02*
X191694000Y-58952000D01*
X191734000Y-56872000D02*
X191734000Y-54826000D01*
X191734000Y-60998000D02*
X191734000Y-58952000D01*
X191774000Y-56872000D02*
X191774000Y-54839000D01*
X191774000Y-60985000D02*
X191774000Y-58952000D01*
X191814000Y-56872000D02*
X191814000Y-54852000D01*
X191814000Y-60972000D02*
X191814000Y-58952000D01*
X191854000Y-56872000D02*
X191854000Y-54865000D01*
X191854000Y-60959000D02*
X191854000Y-58952000D01*
X191894000Y-56872000D02*
X191894000Y-54880000D01*
X191894000Y-60944000D02*
X191894000Y-58952000D01*
X191934000Y-56872000D02*
X191934000Y-54895000D01*
X191934000Y-60929000D02*
X191934000Y-58952000D01*
X191974000Y-56872000D02*
X191974000Y-54910000D01*
X191974000Y-60914000D02*
X191974000Y-58952000D01*
X192014000Y-56872000D02*
X192014000Y-54926000D01*
X192014000Y-60898000D02*
X192014000Y-58952000D01*
X192054000Y-56872000D02*
X192054000Y-54943000D01*
X192054000Y-60881000D02*
X192054000Y-58952000D01*
X192094000Y-56872000D02*
X192094000Y-54960000D01*
X192094000Y-60864000D02*
X192094000Y-58952000D01*
X192134000Y-56872000D02*
X192134000Y-54978000D01*
X192134000Y-60846000D02*
X192134000Y-58952000D01*
X192174000Y-56872000D02*
X192174000Y-54997000D01*
X192174000Y-60827000D02*
X192174000Y-58952000D01*
X192214000Y-56872000D02*
X192214000Y-55016000D01*
X192214000Y-60808000D02*
X192214000Y-58952000D01*
X192254000Y-56872000D02*
X192254000Y-55036000D01*
X192254000Y-60788000D02*
X192254000Y-58952000D01*
X192294000Y-56872000D02*
X192294000Y-55057000D01*
X192294000Y-60767000D02*
X192294000Y-58952000D01*
X192334000Y-56872000D02*
X192334000Y-55078000D01*
X192334000Y-60746000D02*
X192334000Y-58952000D01*
X192374000Y-56872000D02*
X192374000Y-55100000D01*
X192374000Y-60724000D02*
X192374000Y-58952000D01*
X192414000Y-56872000D02*
X192414000Y-55123000D01*
X192414000Y-60701000D02*
X192414000Y-58952000D01*
X192454000Y-56872000D02*
X192454000Y-55147000D01*
X192454000Y-60677000D02*
X192454000Y-58952000D01*
X192494000Y-56872000D02*
X192494000Y-55171000D01*
X192494000Y-60653000D02*
X192494000Y-58952000D01*
X192534000Y-56872000D02*
X192534000Y-55196000D01*
X192534000Y-60628000D02*
X192534000Y-58952000D01*
X192574000Y-56872000D02*
X192574000Y-55222000D01*
X192574000Y-60602000D02*
X192574000Y-58952000D01*
X192614000Y-56872000D02*
X192614000Y-55249000D01*
X192614000Y-60575000D02*
X192614000Y-58952000D01*
X192654000Y-56872000D02*
X192654000Y-55276000D01*
X192654000Y-60548000D02*
X192654000Y-58952000D01*
X192694000Y-56872000D02*
X192694000Y-55305000D01*
X192694000Y-60519000D02*
X192694000Y-58952000D01*
X192734000Y-56872000D02*
X192734000Y-55335000D01*
X192734000Y-60489000D02*
X192734000Y-58952000D01*
X192774000Y-56872000D02*
X192774000Y-55365000D01*
X192774000Y-60459000D02*
X192774000Y-58952000D01*
X192814000Y-56872000D02*
X192814000Y-55396000D01*
X192814000Y-60428000D02*
X192814000Y-58952000D01*
X192854000Y-56872000D02*
X192854000Y-55429000D01*
X192854000Y-60395000D02*
X192854000Y-58952000D01*
X192894000Y-56872000D02*
X192894000Y-55462000D01*
X192894000Y-60362000D02*
X192894000Y-58952000D01*
X192934000Y-56872000D02*
X192934000Y-55497000D01*
X192934000Y-60327000D02*
X192934000Y-58952000D01*
X192974000Y-56872000D02*
X192974000Y-55533000D01*
X192974000Y-60291000D02*
X192974000Y-58952000D01*
X193014000Y-56872000D02*
X193014000Y-55570000D01*
X193014000Y-60254000D02*
X193014000Y-58952000D01*
X193054000Y-56872000D02*
X193054000Y-55608000D01*
X193054000Y-60216000D02*
X193054000Y-58952000D01*
X193094000Y-60176000D02*
X193094000Y-55648000D01*
X193134000Y-60135000D02*
X193134000Y-55689000D01*
X193174000Y-60093000D02*
X193174000Y-55731000D01*
X193214000Y-60049000D02*
X193214000Y-55775000D01*
X193254000Y-60003000D02*
X193254000Y-55821000D01*
X193294000Y-59956000D02*
X193294000Y-55868000D01*
X193334000Y-59907000D02*
X193334000Y-55917000D01*
X193374000Y-59855000D02*
X193374000Y-55969000D01*
X193414000Y-59802000D02*
X193414000Y-56022000D01*
X193454000Y-59746000D02*
X193454000Y-56078000D01*
X193494000Y-59687000D02*
X193494000Y-56137000D01*
X193534000Y-59626000D02*
X193534000Y-56198000D01*
X193574000Y-59561000D02*
X193574000Y-56263000D01*
X193614000Y-59493000D02*
X193614000Y-56331000D01*
X193654000Y-59421000D02*
X193654000Y-56403000D01*
X193694000Y-59344000D02*
X193694000Y-56480000D01*
X193734000Y-59262000D02*
X193734000Y-56562000D01*
X193774000Y-59173000D02*
X193774000Y-56651000D01*
X193814000Y-59077000D02*
X193814000Y-56747000D01*
X193854000Y-58970000D02*
X193854000Y-56854000D01*
X193894000Y-58851000D02*
X193894000Y-56973000D01*
X193934000Y-58713000D02*
X193934000Y-57111000D01*
X193974000Y-58545000D02*
X193974000Y-57279000D01*
X194014000Y-58314000D02*
X194014000Y-57510000D01*
X194044000Y-57912000D02*
G75*
G02*
X187504000Y-57912000I-3270000J0D01*
G01*
X187504000Y-57912000D02*
G75*
G02*
X194044000Y-57912000I3270000J0D01*
G01*
%TD*%
%LPC*%
D14*
%TO.C,D15*%
X129186000Y-65278000D03*
D15*
X129186000Y-72898000D03*
%TD*%
D14*
%TO.C,D15*%
X133250000Y-65278000D03*
D15*
X133250000Y-72898000D03*
%TD*%
D16*
%TO.C,SW3*%
X114554000Y-48006000D03*
D17*
X114554000Y-52706000D03*
X114554000Y-57406000D03*
%TD*%
D14*
%TO.C,D15*%
X114200000Y-65532000D03*
D15*
X114200000Y-73152000D03*
%TD*%
D14*
%TO.C,D15*%
X118518000Y-65532000D03*
D15*
X118518000Y-73152000D03*
%TD*%
D18*
%TO.C,J6*%
X140100000Y-46680000D03*
D19*
X140100000Y-49220000D03*
X140100000Y-51760000D03*
X140100000Y-54300000D03*
X140100000Y-56840000D03*
X140100000Y-59380000D03*
X140100000Y-61920000D03*
X140100000Y-64460000D03*
X140100000Y-67000000D03*
X140100000Y-69540000D03*
X140100000Y-72080000D03*
X140100000Y-74620000D03*
X140100000Y-77160000D03*
X140100000Y-79700000D03*
%TD*%
D20*
%TO.C,J11*%
X202870000Y-77550000D03*
X202870000Y-76550000D03*
X202870000Y-75550000D03*
X202870000Y-74550000D03*
X202870000Y-73550000D03*
X202870000Y-72550000D03*
X202870000Y-71550000D03*
X202870000Y-70550000D03*
D21*
X200700000Y-79900000D03*
X200700000Y-68200000D03*
%TD*%
D22*
%TO.C,SW4*%
X125476000Y-39118000D03*
D17*
X125476000Y-34418000D03*
X125476000Y-29718000D03*
%TD*%
D18*
%TO.C,J5*%
X185000000Y-96300000D03*
D19*
X185000000Y-98840000D03*
%TD*%
D18*
%TO.C,J10*%
X201700000Y-96200000D03*
D19*
X201700000Y-98740000D03*
X201700000Y-101280000D03*
%TD*%
D23*
%TO.C,SW1*%
X166250000Y-41150000D03*
X159750000Y-41150000D03*
X166250000Y-45650000D03*
X159750000Y-45650000D03*
%TD*%
D18*
%TO.C,J3*%
X204724000Y-59690000D03*
D19*
X204724000Y-57150000D03*
%TD*%
D18*
%TO.C,J4*%
X194056000Y-95250000D03*
D19*
X194056000Y-97790000D03*
X194056000Y-100330000D03*
%TD*%
D18*
%TO.C,J2*%
X115824000Y-62230000D03*
D19*
X113284000Y-62230000D03*
%TD*%
D18*
%TO.C,J9*%
X200120000Y-32300000D03*
D19*
X202660000Y-32300000D03*
X205200000Y-32300000D03*
%TD*%
D23*
%TO.C,SW2*%
X204200000Y-45248000D03*
X197700000Y-45248000D03*
X204200000Y-49748000D03*
X197700000Y-49748000D03*
%TD*%
D24*
%TO.C,C10*%
X189524000Y-57912000D03*
D15*
X192024000Y-57912000D03*
%TD*%
%LPD*%
M02*
