M48
; DRILL file {KiCad 9.0.6} date 2026-04-18T22:44:36+0200
; FORMAT={-:-/ absolute / inch / decimal}
; #@! TF.CreationDate,2026-04-18T22:44:36+02:00
; #@! TF.GenerationSoftware,Kicad,Pcbnew,9.0.6
; #@! TF.FileFunction,Plated,1,2,PTH
FMAT,2
INCH
; #@! TA.AperFunction,Plated,PTH,ViaDrill
T1C0.0118
; #@! TA.AperFunction,Plated,PTH,ViaDrill
T2C0.0157
; #@! TA.AperFunction,Plated,PTH,ComponentDrill
T3C0.0236
; #@! TA.AperFunction,Plated,PTH,ComponentDrill
T4C0.0394
; #@! TA.AperFunction,Plated,PTH,ComponentDrill
T5C0.0433
; #@! TA.AperFunction,Plated,PTH,ComponentDrill
T6C0.0591
%
G90
G05
T1
X0.685Y-4.1063
X0.7677Y-3.4016
X1.0039Y-1.7323
X1.1102Y-3.2402
X1.1693Y-3.0669
X1.2067Y-3.0354
X1.2598Y-1.0236
X1.2756Y-3.0315
X1.7323Y-0.6024
X1.7598Y-2.5276
X1.8189Y-0.685
X1.9252Y-2.7244
X2.0315Y-2.3228
X2.0748Y-2.4685
X2.0906Y-2.1457
X2.1181Y-2.4409
X2.1299Y-1.3386
X2.1457Y-2.4173
X2.1496Y-2.3583
X2.1535Y-1.7283
X2.1575Y-1.5433
X2.2047Y-2.2953
X2.2205Y-1.8661
X2.2228Y-2.3646
X2.248Y-2.1575
X2.2638Y-2.1969
X2.2827Y-2.5244
X2.2835Y-2.0748
X2.3031Y-2.7126
X2.3189Y-3.8209
X2.3228Y-2.1417
X2.3228Y-2.2677
X2.3228Y-2.9213
X2.3307Y-1.5039
X2.3425Y-3.1024
X2.3527Y-2.3685
X2.3622Y-1.9606
X2.374Y-2.189
X2.3839Y-1.8701
X2.3976Y-2.6693
X2.4134Y-2.2008
X2.4173Y-2.2677
X2.437Y-2.126
X2.4488Y-1.9921
X2.4567Y-2.2677
X2.4606Y-2.7717
X2.4941Y-2.5
X2.4961Y-2.2047
X2.5197Y-2.5354
X2.5276Y-1.9921
X2.5315Y-1.8465
X2.5433Y-2.563
X2.5512Y-2.4134
X2.5512Y-2.5079
X2.5551Y-2.189
X2.563Y-2.2618
X2.565Y-3.7028
X2.5709Y-1.7205
X2.5789Y-3.9573
X2.5828Y-3.8471
X2.5866Y-2.4488
X2.5906Y-2.122
X2.5945Y-2.6417
X2.5945Y-4.1752
X2.6043Y-3.5059
X2.6065Y-3.8904
X2.6163Y-3.7191
X2.6181Y-2.937
X2.622Y-1.9961
X2.6339Y-1.7953
X2.6339Y-2.7795
X2.6417Y-2.3465
X2.6417Y-2.5079
X2.6634Y-3.624
X2.6693Y-2.4173
X2.6693Y-3.0157
X2.6732Y-2.252
X2.6732Y-4.1063
X2.6772Y-1.8268
X2.7205Y-2.9055
X2.7285Y-4.0164
X2.7323Y-2.9685
X2.7324Y-3.6306
X2.7364Y-3.8077
X2.7441Y-1.6142
X2.748Y-2.7795
X2.7598Y-2.4803
X2.7598Y-2.7283
X2.7756Y-2.0079
X2.7756Y-2.2362
X2.7795Y-1.3661
X2.7953Y-2.378
X2.7992Y-0.5591
X2.811Y-2.7953
X2.8622Y-2.3465
X2.9685Y-3.8209
X3.1102Y-1.2205
X3.1142Y-0.7126
X3.1181Y-1.6732
X3.122Y-2.1654
X3.122Y-2.6378
X3.2205Y-3.2283
X3.3701Y-3.1496
X3.3858Y-1.0197
X3.4213Y-1.5
X3.5906Y-1.2087
X3.5906Y-2.1614
X3.5945Y-2.6299
X3.6142Y-1.6969
X3.6339Y-3.248
X3.7559Y-2.4724
X3.7638Y-3.0787
X3.7638Y-3.2205
X3.7953Y-2.5748
X3.8898Y-3.063
X4.063Y-1.2087
X4.063Y-1.6732
X4.063Y-2.1654
X4.0748Y-2.6299
T2
X0.685Y-2.8898
X0.8307Y-3.9134
X0.8976Y-3.3268
X1.2323Y-3.7598
X1.7205Y-3.0866
T4
X1.0669Y-1.5614
X1.0669Y-1.6614
X1.7992Y-0.8173
X1.7992Y-0.9173
X2.0Y-1.435
X2.0Y-2.0059
X2.0984Y-1.435
X2.1969Y-1.435
X2.1969Y-2.0059
T5
X3.0276Y-0.6535
X3.0276Y-0.9094
X3.0276Y-1.126
X3.0276Y-1.3819
X3.0276Y-1.5984
X3.0276Y-1.8543
X3.0276Y-2.0709
X3.0276Y-2.3268
X3.0276Y-2.5433
X3.0276Y-2.7992
X3.2047Y-0.6535
X3.2047Y-0.9094
X3.2047Y-1.126
X3.2047Y-1.3819
X3.2047Y-1.5984
X3.2047Y-1.8543
X3.2047Y-2.0709
X3.2047Y-2.3268
X3.2047Y-2.5433
X3.2047Y-2.7992
X3.5Y-0.6535
X3.5Y-0.9094
X3.5Y-1.126
X3.5Y-1.3819
X3.5Y-1.5984
X3.5Y-1.8543
X3.5Y-2.0709
X3.5Y-2.3268
X3.5Y-2.5433
X3.5Y-2.7992
X3.6772Y-0.6535
X3.6772Y-0.9094
X3.6772Y-1.126
X3.6772Y-1.3819
X3.6772Y-1.5984
X3.6772Y-1.8543
X3.6772Y-2.0709
X3.6772Y-2.3268
X3.6772Y-2.5433
X3.6772Y-2.7992
X3.9724Y-0.6535
X3.9724Y-0.9094
X3.9724Y-1.126
X3.9724Y-1.3819
X3.9724Y-1.5984
X3.9724Y-1.8543
X3.9724Y-2.0709
X3.9724Y-2.3268
X3.9724Y-2.5433
X3.9724Y-2.7992
X4.1496Y-0.6535
X4.1496Y-0.9094
X4.1496Y-1.126
X4.1496Y-1.3819
X4.1496Y-1.5984
X4.1496Y-1.8543
X4.1496Y-2.0709
X4.1496Y-2.3268
X4.1496Y-2.5433
X4.1496Y-2.7992
T6
X0.8984Y-0.9236
X0.9984Y-1.1736
T3
G00X2.8297Y-3.6502
M15
G01X2.873Y-3.6502
M16
G05
G00X2.8297Y-3.9904
M15
G01X2.873Y-3.9904
M16
G05
G00X3.0041Y-3.6502
M15
G01X3.0277Y-3.6502
M16
G05
G00X3.0041Y-3.9904
M15
G01X3.0277Y-3.9904
M16
G05
T6
G00X1.878Y-1.7047
M15
G01X1.878Y-1.7559
M16
G05
G00X2.3189Y-1.7047
M15
G01X2.3189Y-1.7559
M16
G05
M30
