%TF.GenerationSoftware,KiCad,Pcbnew,9.0.6*%
%TF.CreationDate,2026-04-18T23:10:41+02:00*%
%TF.ProjectId,alarm_clock,616c6172-6d5f-4636-9c6f-636b2e6b6963,rev?*%
%TF.SameCoordinates,Original*%
%TF.FileFunction,Soldermask,Top*%
%TF.FilePolarity,Negative*%
%FSLAX46Y46*%
G04 Gerber Fmt 4.6, Leading zero omitted, Abs format (unit mm)*
G04 Created by KiCad (PCBNEW 9.0.6) date 2026-04-18 23:10:41*
%MOMM*%
%LPD*%
G01*
G04 APERTURE LIST*
G04 Aperture macros list*
%AMRoundRect*
0 Rectangle with rounded corners*
0 $1 Rounding radius*
0 $2 $3 $4 $5 $6 $7 $8 $9 X,Y pos of 4 corners*
0 Add a 4 corners polygon primitive as box body*
4,1,4,$2,$3,$4,$5,$6,$7,$8,$9,$2,$3,0*
0 Add four circle primitives for the rounded corners*
1,1,$1+$1,$2,$3*
1,1,$1+$1,$4,$5*
1,1,$1+$1,$6,$7*
1,1,$1+$1,$8,$9*
0 Add four rect primitives between the rounded corners*
20,1,$1+$1,$2,$3,$4,$5,0*
20,1,$1+$1,$4,$5,$6,$7,0*
20,1,$1+$1,$6,$7,$8,$9,0*
20,1,$1+$1,$8,$9,$2,$3,0*%
G04 Aperture macros list end*
%ADD10C,0.000000*%
%ADD11RoundRect,0.225000X0.225000X0.250000X-0.225000X0.250000X-0.225000X-0.250000X0.225000X-0.250000X0*%
%ADD12RoundRect,0.250000X0.250000X0.475000X-0.250000X0.475000X-0.250000X-0.475000X0.250000X-0.475000X0*%
%ADD13RoundRect,0.200000X0.275000X-0.200000X0.275000X0.200000X-0.275000X0.200000X-0.275000X-0.200000X0*%
%ADD14RoundRect,0.250000X-0.475000X0.250000X-0.475000X-0.250000X0.475000X-0.250000X0.475000X0.250000X0*%
%ADD15R,2.159000X5.511800*%
%ADD16RoundRect,0.102000X-0.700000X-0.350000X0.700000X-0.350000X0.700000X0.350000X-0.700000X0.350000X0*%
%ADD17RoundRect,0.250000X-0.650000X0.325000X-0.650000X-0.325000X0.650000X-0.325000X0.650000X0.325000X0*%
%ADD18RoundRect,0.250000X1.000000X0.650000X-1.000000X0.650000X-1.000000X-0.650000X1.000000X-0.650000X0*%
%ADD19RoundRect,0.062500X0.350000X0.062500X-0.350000X0.062500X-0.350000X-0.062500X0.350000X-0.062500X0*%
%ADD20RoundRect,0.062500X0.062500X0.350000X-0.062500X0.350000X-0.062500X-0.350000X0.062500X-0.350000X0*%
%ADD21R,2.500000X2.500000*%
%ADD22RoundRect,0.200000X-0.275000X0.200000X-0.275000X-0.200000X0.275000X-0.200000X0.275000X0.200000X0*%
%ADD23RoundRect,0.250000X0.475000X-0.250000X0.475000X0.250000X-0.475000X0.250000X-0.475000X-0.250000X0*%
%ADD24RoundRect,0.250000X-0.550000X0.550000X-0.550000X-0.550000X0.550000X-0.550000X0.550000X0.550000X0*%
%ADD25C,1.600000*%
%ADD26RoundRect,0.150000X0.750000X-0.150000X0.750000X0.150000X-0.750000X0.150000X-0.750000X-0.150000X0*%
%ADD27RoundRect,0.250000X1.250000X-1.050000X1.250000X1.050000X-1.250000X1.050000X-1.250000X-1.050000X0*%
%ADD28RoundRect,0.062500X-0.350000X-0.062500X0.350000X-0.062500X0.350000X0.062500X-0.350000X0.062500X0*%
%ADD29RoundRect,0.062500X-0.062500X-0.350000X0.062500X-0.350000X0.062500X0.350000X-0.062500X0.350000X0*%
%ADD30R,1.230000X1.230000*%
%ADD31RoundRect,0.218750X0.256250X-0.218750X0.256250X0.218750X-0.256250X0.218750X-0.256250X-0.218750X0*%
%ADD32RoundRect,0.225000X0.250000X-0.225000X0.250000X0.225000X-0.250000X0.225000X-0.250000X-0.225000X0*%
%ADD33RoundRect,0.590551X-0.909449X0.909449X-0.909449X-0.909449X0.909449X-0.909449X0.909449X0.909449X0*%
%ADD34C,3.500000*%
%ADD35RoundRect,0.375000X-0.625000X-0.375000X0.625000X-0.375000X0.625000X0.375000X-0.625000X0.375000X0*%
%ADD36RoundRect,0.500000X-0.500000X-1.400000X0.500000X-1.400000X0.500000X1.400000X-0.500000X1.400000X0*%
%ADD37RoundRect,0.200000X0.200000X0.275000X-0.200000X0.275000X-0.200000X-0.275000X0.200000X-0.275000X0*%
%ADD38RoundRect,0.150000X-0.150000X0.587500X-0.150000X-0.587500X0.150000X-0.587500X0.150000X0.587500X0*%
%ADD39RoundRect,0.150000X0.512500X0.150000X-0.512500X0.150000X-0.512500X-0.150000X0.512500X-0.150000X0*%
%ADD40RoundRect,0.150000X-0.750000X0.150000X-0.750000X-0.150000X0.750000X-0.150000X0.750000X0.150000X0*%
%ADD41RoundRect,0.250000X-1.250000X1.050000X-1.250000X-1.050000X1.250000X-1.050000X1.250000X1.050000X0*%
%ADD42RoundRect,0.225000X-0.250000X0.225000X-0.250000X-0.225000X0.250000X-0.225000X0.250000X0.225000X0*%
%ADD43RoundRect,0.100000X-0.637500X-0.100000X0.637500X-0.100000X0.637500X0.100000X-0.637500X0.100000X0*%
%ADD44R,1.700000X1.700000*%
%ADD45C,1.700000*%
%ADD46RoundRect,0.225000X-0.225000X-0.250000X0.225000X-0.250000X0.225000X0.250000X-0.225000X0.250000X0*%
%ADD47R,1.500000X0.900000*%
%ADD48R,0.900000X1.500000*%
%ADD49C,0.600000*%
%ADD50R,3.900000X3.900000*%
%ADD51RoundRect,0.590551X0.909449X-0.909449X0.909449X0.909449X-0.909449X0.909449X-0.909449X-0.909449X0*%
%ADD52C,2.000000*%
%ADD53RoundRect,0.250000X-0.550000X-0.550000X0.550000X-0.550000X0.550000X0.550000X-0.550000X0.550000X0*%
G04 APERTURE END LIST*
D10*
%TO.C,G\u002A\u002A\u002A*%
G36*
X129785695Y-78942880D02*
G01*
X129842594Y-78961488D01*
X129853152Y-78967512D01*
X129881973Y-78991355D01*
X129934270Y-79039451D01*
X130006931Y-79108669D01*
X130096844Y-79195877D01*
X130200896Y-79297942D01*
X130315976Y-79411732D01*
X130438972Y-79534114D01*
X130566770Y-79661958D01*
X130696260Y-79792129D01*
X130824328Y-79921497D01*
X130947864Y-80046929D01*
X131063754Y-80165292D01*
X131168886Y-80273454D01*
X131260149Y-80368283D01*
X131334430Y-80446647D01*
X131388617Y-80505414D01*
X131419598Y-80541450D01*
X131425381Y-80549898D01*
X131453149Y-80649265D01*
X131442571Y-80746386D01*
X131394369Y-80838061D01*
X131349314Y-80887610D01*
X131283157Y-80926143D01*
X131198618Y-80944221D01*
X131111344Y-80940601D01*
X131036981Y-80914039D01*
X131034692Y-80912607D01*
X131010043Y-80892042D01*
X130960491Y-80846521D01*
X130888784Y-80778703D01*
X130797670Y-80691246D01*
X130689896Y-80586806D01*
X130568210Y-80468042D01*
X130435358Y-80337612D01*
X130294089Y-80198173D01*
X130210496Y-80115327D01*
X130042640Y-79948504D01*
X129900583Y-79806740D01*
X129782198Y-79687764D01*
X129685356Y-79589300D01*
X129607929Y-79509077D01*
X129547789Y-79444821D01*
X129502808Y-79394259D01*
X129470858Y-79355118D01*
X129449811Y-79325125D01*
X129437538Y-79302007D01*
X129431954Y-79283719D01*
X129429383Y-79174655D01*
X129460218Y-79080123D01*
X129520172Y-79005303D01*
X129604957Y-78955375D01*
X129710285Y-78935519D01*
X129720297Y-78935384D01*
X129785695Y-78942880D01*
G37*
G36*
X128235761Y-78996039D02*
G01*
X128263932Y-79003325D01*
X128297449Y-79019005D01*
X128337948Y-79044473D01*
X128387065Y-79081123D01*
X128446437Y-79130348D01*
X128517700Y-79193542D01*
X128602490Y-79272099D01*
X128702443Y-79367412D01*
X128819195Y-79480875D01*
X128954382Y-79613883D01*
X129109641Y-79767829D01*
X129286607Y-79944106D01*
X129486917Y-80144108D01*
X129712207Y-80369230D01*
X129886717Y-80543575D01*
X130098531Y-80755450D01*
X130300758Y-80958360D01*
X130491726Y-81150596D01*
X130669762Y-81330452D01*
X130833196Y-81496218D01*
X130980356Y-81646189D01*
X131109570Y-81778655D01*
X131219166Y-81891909D01*
X131307472Y-81984244D01*
X131372818Y-82053952D01*
X131413530Y-82099325D01*
X131427579Y-82117606D01*
X131452358Y-82209022D01*
X131443846Y-82297090D01*
X131407731Y-82376410D01*
X131349701Y-82441584D01*
X131275444Y-82487213D01*
X131190646Y-82507898D01*
X131100996Y-82498241D01*
X131049238Y-82476730D01*
X131024699Y-82457184D01*
X130974999Y-82412193D01*
X130902346Y-82343954D01*
X130808948Y-82254665D01*
X130697014Y-82146523D01*
X130568750Y-82021725D01*
X130426365Y-81882468D01*
X130272067Y-81730949D01*
X130108064Y-81569366D01*
X129936563Y-81399917D01*
X129759772Y-81224797D01*
X129579899Y-81046205D01*
X129399153Y-80866337D01*
X129219741Y-80687392D01*
X129043870Y-80511565D01*
X128873749Y-80341055D01*
X128711586Y-80178058D01*
X128559588Y-80024772D01*
X128419964Y-79883394D01*
X128294921Y-79756121D01*
X128186667Y-79645151D01*
X128097410Y-79552680D01*
X128029359Y-79480907D01*
X127984719Y-79432027D01*
X127965701Y-79408239D01*
X127965538Y-79407911D01*
X127943414Y-79320195D01*
X127950542Y-79225523D01*
X127985334Y-79140941D01*
X127991161Y-79132460D01*
X128030711Y-79093494D01*
X128088811Y-79052821D01*
X128117835Y-79036735D01*
X128143817Y-79022958D01*
X128166965Y-79010606D01*
X128188914Y-79001073D01*
X128211300Y-78995753D01*
X128235761Y-78996039D01*
G37*
G36*
X120813153Y-81461380D02*
G01*
X121080253Y-81525667D01*
X121184133Y-81561405D01*
X121403697Y-81664575D01*
X121607952Y-81801752D01*
X121793408Y-81969695D01*
X121956571Y-82165165D01*
X122093949Y-82384919D01*
X122114743Y-82424966D01*
X122148149Y-82496850D01*
X122181120Y-82577349D01*
X122210693Y-82657828D01*
X122233901Y-82729652D01*
X122247779Y-82784184D01*
X122249361Y-82812789D01*
X122248415Y-82814251D01*
X122229147Y-82824024D01*
X122184755Y-82838442D01*
X122112183Y-82858332D01*
X122008373Y-82884517D01*
X121870267Y-82917823D01*
X121824849Y-82928581D01*
X121622237Y-82976424D01*
X121600249Y-82914635D01*
X121582534Y-82871593D01*
X121551992Y-82803969D01*
X121513368Y-82722085D01*
X121482671Y-82658982D01*
X121370375Y-82470047D01*
X121235144Y-82312664D01*
X121076404Y-82186334D01*
X120893582Y-82090564D01*
X120777000Y-82049040D01*
X120671086Y-82026901D01*
X120539059Y-82014260D01*
X120392676Y-82010983D01*
X120243696Y-82016934D01*
X120103876Y-82031978D01*
X119984974Y-82055979D01*
X119976803Y-82058257D01*
X119760433Y-82138425D01*
X119569014Y-82248162D01*
X119402442Y-82387620D01*
X119260616Y-82556953D01*
X119143433Y-82756313D01*
X119050791Y-82985852D01*
X118982587Y-83245723D01*
X118938719Y-83536078D01*
X118931406Y-83615120D01*
X118921572Y-83901884D01*
X118938828Y-84177616D01*
X118982140Y-84438663D01*
X119050473Y-84681373D01*
X119142792Y-84902091D01*
X119258064Y-85097165D01*
X119395253Y-85262943D01*
X119399167Y-85266895D01*
X119561204Y-85406054D01*
X119739438Y-85512971D01*
X119937121Y-85589017D01*
X120157506Y-85635563D01*
X120308432Y-85650296D01*
X120542275Y-85647314D01*
X120758196Y-85609790D01*
X120955361Y-85538324D01*
X121132937Y-85433515D01*
X121290091Y-85295964D01*
X121425990Y-85126271D01*
X121539801Y-84925035D01*
X121628451Y-84699817D01*
X121654565Y-84625276D01*
X121678917Y-84566446D01*
X121697648Y-84532244D01*
X121703095Y-84527301D01*
X121728450Y-84529250D01*
X121784777Y-84539196D01*
X121865120Y-84555735D01*
X121962523Y-84577466D01*
X122027015Y-84592593D01*
X122329858Y-84664911D01*
X122318594Y-84716263D01*
X122244647Y-84971932D01*
X122139088Y-85215191D01*
X122005141Y-85440913D01*
X121846027Y-85643970D01*
X121664968Y-85819234D01*
X121587088Y-85880434D01*
X121374601Y-86013234D01*
X121139219Y-86116536D01*
X120884579Y-86189532D01*
X120614316Y-86231413D01*
X120332068Y-86241371D01*
X120056710Y-86220600D01*
X119786181Y-86169304D01*
X119530976Y-86087754D01*
X119297299Y-85978074D01*
X119226111Y-85936158D01*
X119114850Y-85857216D01*
X118994523Y-85755600D01*
X118875800Y-85641589D01*
X118769354Y-85525463D01*
X118685854Y-85417501D01*
X118682395Y-85412384D01*
X118543981Y-85174478D01*
X118428612Y-84910646D01*
X118338068Y-84627748D01*
X118274129Y-84332643D01*
X118238576Y-84032190D01*
X118233190Y-83733248D01*
X118235079Y-83689246D01*
X118267569Y-83354899D01*
X118329370Y-83044418D01*
X118420096Y-82758456D01*
X118539364Y-82497665D01*
X118686789Y-82262698D01*
X118861984Y-82054207D01*
X119064567Y-81872846D01*
X119294151Y-81719266D01*
X119442645Y-81641698D01*
X119701274Y-81539662D01*
X119973682Y-81470334D01*
X120253826Y-81433992D01*
X120535663Y-81430914D01*
X120813153Y-81461380D01*
G37*
G36*
X126892572Y-81538884D02*
G01*
X126905954Y-81570124D01*
X126932455Y-81633434D01*
X126970385Y-81724722D01*
X127018052Y-81839898D01*
X127073763Y-81974869D01*
X127135827Y-82125545D01*
X127202552Y-82287835D01*
X127242003Y-82383923D01*
X127343988Y-82632003D01*
X127458095Y-82908801D01*
X127581294Y-83207013D01*
X127710558Y-83519336D01*
X127842856Y-83838466D01*
X127975161Y-84157101D01*
X128104444Y-84467937D01*
X128227675Y-84763671D01*
X128341825Y-85037000D01*
X128396716Y-85168153D01*
X128475925Y-85357530D01*
X128550717Y-85536883D01*
X128619734Y-85702918D01*
X128681618Y-85852344D01*
X128735012Y-85981869D01*
X128778558Y-86088201D01*
X128810899Y-86168047D01*
X128830677Y-86218116D01*
X128836615Y-86234991D01*
X128818076Y-86237401D01*
X128766437Y-86239005D01*
X128687672Y-86239751D01*
X128587751Y-86239585D01*
X128472645Y-86238455D01*
X128461866Y-86238306D01*
X128087117Y-86233000D01*
X127818910Y-85558923D01*
X127550702Y-84884846D01*
X126518955Y-84884846D01*
X125487209Y-84884846D01*
X125357000Y-85246307D01*
X125306019Y-85387396D01*
X125249358Y-85543483D01*
X125192213Y-85700299D01*
X125139780Y-85843574D01*
X125111534Y-85920384D01*
X124996276Y-86233000D01*
X124640215Y-86238325D01*
X124527145Y-86239356D01*
X124428881Y-86238992D01*
X124351550Y-86237360D01*
X124301276Y-86234585D01*
X124284154Y-86230962D01*
X124288900Y-86215122D01*
X124303446Y-86174755D01*
X124328255Y-86108669D01*
X124363789Y-86015671D01*
X124410512Y-85894569D01*
X124468885Y-85744171D01*
X124539371Y-85563286D01*
X124622434Y-85350720D01*
X124718535Y-85105281D01*
X124828137Y-84825778D01*
X124939173Y-84542923D01*
X125031215Y-84308461D01*
X125710797Y-84308461D01*
X126513023Y-84308461D01*
X127315248Y-84308461D01*
X127302031Y-84264500D01*
X127291194Y-84233721D01*
X127268394Y-84172610D01*
X127235934Y-84087212D01*
X127196118Y-83983575D01*
X127151248Y-83867744D01*
X127135482Y-83827253D01*
X127024914Y-83542683D01*
X126928193Y-83291606D01*
X126844333Y-83071366D01*
X126772346Y-82879306D01*
X126711244Y-82712768D01*
X126660040Y-82569095D01*
X126617747Y-82445629D01*
X126586585Y-82349901D01*
X126555746Y-82254567D01*
X126528344Y-82174114D01*
X126506737Y-82115144D01*
X126493280Y-82084259D01*
X126490688Y-82081247D01*
X126481402Y-82098740D01*
X126466577Y-82145352D01*
X126449006Y-82212021D01*
X126444102Y-82232500D01*
X126423239Y-82315381D01*
X126396548Y-82410104D01*
X126363161Y-82519135D01*
X126322211Y-82644941D01*
X126272832Y-82789989D01*
X126214157Y-82956745D01*
X126145318Y-83147677D01*
X126065448Y-83365251D01*
X125973681Y-83611935D01*
X125869149Y-83890194D01*
X125760818Y-84176576D01*
X125710797Y-84308461D01*
X125031215Y-84308461D01*
X125069915Y-84209880D01*
X125187935Y-83908964D01*
X125294875Y-83635961D01*
X125392377Y-83386658D01*
X125482084Y-83156841D01*
X125565639Y-82942297D01*
X125644685Y-82738812D01*
X125720865Y-82542171D01*
X125795820Y-82348163D01*
X125871194Y-82152572D01*
X125879911Y-82129923D01*
X125935482Y-81985903D01*
X125987207Y-81852595D01*
X126033257Y-81734649D01*
X126071806Y-81636717D01*
X126101027Y-81563452D01*
X126119093Y-81519503D01*
X126123579Y-81509576D01*
X126133409Y-81497445D01*
X126151792Y-81488547D01*
X126184163Y-81482393D01*
X126235957Y-81478493D01*
X126312610Y-81476357D01*
X126419557Y-81475494D01*
X126502773Y-81475384D01*
X126863863Y-81475384D01*
X126892572Y-81538884D01*
G37*
G36*
X120835184Y-88367576D02*
G01*
X120866674Y-88442347D01*
X120911105Y-88547999D01*
X120966313Y-88679377D01*
X121030132Y-88831323D01*
X121100396Y-88998681D01*
X121174941Y-89176294D01*
X121251600Y-89359007D01*
X121304930Y-89486153D01*
X121435025Y-89796165D01*
X121566112Y-90108167D01*
X121696583Y-90418354D01*
X121824834Y-90722922D01*
X121949257Y-91018065D01*
X122068248Y-91299980D01*
X122180200Y-91564861D01*
X122283507Y-91808902D01*
X122376563Y-92028301D01*
X122457763Y-92219251D01*
X122525456Y-92377846D01*
X122577466Y-92499534D01*
X122625071Y-92611212D01*
X122665856Y-92707191D01*
X122697408Y-92781783D01*
X122717311Y-92829299D01*
X122722438Y-92841884D01*
X122739648Y-92885846D01*
X122354247Y-92885168D01*
X121968846Y-92884491D01*
X121703656Y-92215976D01*
X121438465Y-91547461D01*
X120382113Y-91542409D01*
X119325761Y-91537357D01*
X119297355Y-91610794D01*
X119283735Y-91646744D01*
X119258402Y-91714326D01*
X119223226Y-91808531D01*
X119180072Y-91924347D01*
X119130808Y-92056766D01*
X119077303Y-92200778D01*
X119046052Y-92284974D01*
X118823154Y-92885718D01*
X118466577Y-92885782D01*
X118353409Y-92884923D01*
X118255048Y-92882496D01*
X118177615Y-92878792D01*
X118127233Y-92874099D01*
X118110000Y-92868913D01*
X118116772Y-92842399D01*
X118134111Y-92792944D01*
X118148193Y-92756567D01*
X118178357Y-92680830D01*
X118220732Y-92573867D01*
X118274164Y-92438615D01*
X118337501Y-92278015D01*
X118409589Y-92095007D01*
X118489276Y-91892529D01*
X118575407Y-91673521D01*
X118666830Y-91440923D01*
X118762392Y-91197674D01*
X118857597Y-90955226D01*
X119543797Y-90955226D01*
X119560548Y-90958577D01*
X119612429Y-90961686D01*
X119695492Y-90964478D01*
X119805791Y-90966877D01*
X119939379Y-90968805D01*
X120092309Y-90970189D01*
X120260634Y-90970950D01*
X120365539Y-90971076D01*
X120541538Y-90970698D01*
X120704844Y-90969616D01*
X120851447Y-90967911D01*
X120977337Y-90965663D01*
X121078506Y-90962953D01*
X121150942Y-90959861D01*
X121190636Y-90956468D01*
X121197077Y-90954394D01*
X121190048Y-90932775D01*
X121170136Y-90879444D01*
X121139102Y-90798917D01*
X121098709Y-90695712D01*
X121050719Y-90574346D01*
X120996892Y-90439334D01*
X120970350Y-90373125D01*
X120837722Y-90040393D01*
X120721307Y-89743100D01*
X120621113Y-89481265D01*
X120537146Y-89254907D01*
X120469414Y-89064044D01*
X120417923Y-88908694D01*
X120406152Y-88870692D01*
X120378018Y-88779973D01*
X120358334Y-88722665D01*
X120344984Y-88694556D01*
X120335850Y-88691436D01*
X120328816Y-88709095D01*
X120327557Y-88714384D01*
X120288906Y-88870555D01*
X120239558Y-89048065D01*
X120183778Y-89232156D01*
X120134018Y-89384183D01*
X120111793Y-89447609D01*
X120079490Y-89537223D01*
X120038870Y-89648340D01*
X119991693Y-89776273D01*
X119939721Y-89916334D01*
X119884714Y-90063836D01*
X119828433Y-90214093D01*
X119772639Y-90362417D01*
X119719093Y-90504121D01*
X119669555Y-90634519D01*
X119625786Y-90748924D01*
X119589548Y-90842647D01*
X119562601Y-90911004D01*
X119546706Y-90949305D01*
X119543797Y-90955226D01*
X118857597Y-90955226D01*
X118860940Y-90946713D01*
X118961320Y-90690981D01*
X119062379Y-90433417D01*
X119162965Y-90176959D01*
X119261924Y-89924549D01*
X119358103Y-89679124D01*
X119450348Y-89443625D01*
X119537507Y-89220992D01*
X119618427Y-89014163D01*
X119691954Y-88826078D01*
X119756936Y-88659677D01*
X119812219Y-88517899D01*
X119856649Y-88403684D01*
X119889075Y-88319970D01*
X119908272Y-88269884D01*
X119972870Y-88098923D01*
X120347377Y-88098923D01*
X120721884Y-88098923D01*
X120835184Y-88367576D01*
G37*
G36*
X128641231Y-90491359D02*
G01*
X128641231Y-92885846D01*
X128299308Y-92885846D01*
X127957384Y-92885846D01*
X127957384Y-91869846D01*
X127957384Y-90853846D01*
X127532423Y-90853993D01*
X127351635Y-90855076D01*
X127203985Y-90858700D01*
X127083576Y-90865633D01*
X126984508Y-90876647D01*
X126900884Y-90892510D01*
X126826806Y-90913994D01*
X126756375Y-90941866D01*
X126716470Y-90960484D01*
X126590776Y-91035835D01*
X126469582Y-91138497D01*
X126348952Y-91272278D01*
X126234723Y-91426645D01*
X126179628Y-91508283D01*
X126107638Y-91616873D01*
X126022699Y-91746314D01*
X125928760Y-91890504D01*
X125829769Y-92043342D01*
X125729675Y-92198727D01*
X125632425Y-92350557D01*
X125541969Y-92492730D01*
X125462252Y-92619147D01*
X125439037Y-92656269D01*
X125295827Y-92885846D01*
X124885592Y-92885846D01*
X124748100Y-92885557D01*
X124645103Y-92884464D01*
X124572021Y-92882223D01*
X124524273Y-92878493D01*
X124497281Y-92872932D01*
X124486464Y-92865197D01*
X124486791Y-92856050D01*
X124501000Y-92829580D01*
X124533556Y-92774555D01*
X124581728Y-92695322D01*
X124642779Y-92596228D01*
X124713977Y-92481618D01*
X124792587Y-92355840D01*
X124875875Y-92223241D01*
X124961107Y-92088167D01*
X125045549Y-91954965D01*
X125126466Y-91827981D01*
X125201125Y-91711563D01*
X125266791Y-91610057D01*
X125320730Y-91527809D01*
X125346778Y-91488846D01*
X125482068Y-91304005D01*
X125621350Y-91142493D01*
X125760362Y-91008714D01*
X125894840Y-90907076D01*
X125931036Y-90885014D01*
X126063687Y-90808721D01*
X125882190Y-90763304D01*
X125779660Y-90732747D01*
X125663082Y-90690506D01*
X125552474Y-90644041D01*
X125516961Y-90627218D01*
X125328283Y-90513279D01*
X125164444Y-90371343D01*
X125028434Y-90204992D01*
X124923243Y-90017811D01*
X124858306Y-89837846D01*
X124838386Y-89734155D01*
X124826218Y-89604770D01*
X124821941Y-89466204D01*
X125524846Y-89466204D01*
X125525764Y-89574349D01*
X125529304Y-89652776D01*
X125536647Y-89710819D01*
X125548971Y-89757810D01*
X125567426Y-89803013D01*
X125628080Y-89903545D01*
X125711936Y-90001683D01*
X125807242Y-90085340D01*
X125893607Y-90138501D01*
X125955174Y-90166239D01*
X126014888Y-90189545D01*
X126076761Y-90208814D01*
X126144802Y-90224442D01*
X126223025Y-90236823D01*
X126315440Y-90246352D01*
X126426059Y-90253425D01*
X126558893Y-90258435D01*
X126717953Y-90261779D01*
X126907250Y-90263850D01*
X127130797Y-90265044D01*
X127180731Y-90265214D01*
X127957384Y-90267692D01*
X127957384Y-89464633D01*
X127957384Y-88661575D01*
X127083038Y-88670897D01*
X126860673Y-88673438D01*
X126673480Y-88676156D01*
X126517554Y-88679410D01*
X126388990Y-88683560D01*
X126283883Y-88688966D01*
X126198328Y-88695986D01*
X126128421Y-88704980D01*
X126070257Y-88716308D01*
X126019931Y-88730329D01*
X125973539Y-88747403D01*
X125927175Y-88767888D01*
X125902752Y-88779537D01*
X125766596Y-88864935D01*
X125658922Y-88976498D01*
X125589167Y-89090909D01*
X125562331Y-89147156D01*
X125544233Y-89193485D01*
X125533154Y-89239923D01*
X125527376Y-89296495D01*
X125525180Y-89373226D01*
X125524846Y-89466204D01*
X124821941Y-89466204D01*
X124821821Y-89462300D01*
X124825216Y-89319355D01*
X124836424Y-89188544D01*
X124855467Y-89082477D01*
X124857050Y-89076464D01*
X124932663Y-88863382D01*
X125037159Y-88676615D01*
X125170561Y-88516140D01*
X125332888Y-88381932D01*
X125498956Y-88285886D01*
X125565848Y-88253666D01*
X125626678Y-88225686D01*
X125684654Y-88201630D01*
X125742984Y-88181182D01*
X125804874Y-88164028D01*
X125873532Y-88149851D01*
X125952166Y-88138335D01*
X126043982Y-88129166D01*
X126152189Y-88122027D01*
X126279992Y-88116603D01*
X126430600Y-88112577D01*
X126607221Y-88109636D01*
X126813060Y-88107462D01*
X127051326Y-88105740D01*
X127325225Y-88104155D01*
X127346808Y-88104035D01*
X128641231Y-88096872D01*
X128641231Y-90491359D01*
G37*
G36*
X121675769Y-79134920D02*
G01*
X126482231Y-79140555D01*
X126628769Y-79185472D01*
X126767671Y-79235240D01*
X126915912Y-79300547D01*
X127060095Y-79374727D01*
X127186823Y-79451117D01*
X127244231Y-79491660D01*
X127271649Y-79515787D01*
X127324608Y-79565594D01*
X127401081Y-79639064D01*
X127499043Y-79734180D01*
X127616468Y-79848924D01*
X127751331Y-79981278D01*
X127901606Y-80129226D01*
X128065268Y-80290751D01*
X128240292Y-80463834D01*
X128424651Y-80646459D01*
X128616320Y-80836609D01*
X128813274Y-81032265D01*
X129013487Y-81231411D01*
X129214934Y-81432029D01*
X129415588Y-81632103D01*
X129613425Y-81829614D01*
X129806419Y-82022545D01*
X129992545Y-82208879D01*
X130169776Y-82386600D01*
X130336088Y-82553688D01*
X130489455Y-82708128D01*
X130627851Y-82847901D01*
X130749251Y-82970991D01*
X130851629Y-83075381D01*
X130932959Y-83159052D01*
X130991217Y-83219987D01*
X131024377Y-83256170D01*
X131026107Y-83258197D01*
X131166491Y-83452621D01*
X131281141Y-83670187D01*
X131332671Y-83800461D01*
X131344333Y-83832944D01*
X131355161Y-83862195D01*
X131365187Y-83889688D01*
X131374441Y-83916899D01*
X131382954Y-83945303D01*
X131390757Y-83976375D01*
X131397881Y-84011589D01*
X131404356Y-84052421D01*
X131410213Y-84100346D01*
X131415483Y-84156839D01*
X131420197Y-84223375D01*
X131424385Y-84301429D01*
X131428078Y-84392475D01*
X131431308Y-84497989D01*
X131434104Y-84619447D01*
X131436499Y-84758322D01*
X131438521Y-84916090D01*
X131440203Y-85094226D01*
X131441574Y-85294206D01*
X131442667Y-85517503D01*
X131443510Y-85765593D01*
X131444137Y-86039951D01*
X131444576Y-86342053D01*
X131444859Y-86673372D01*
X131445017Y-87035384D01*
X131445080Y-87429565D01*
X131445079Y-87857389D01*
X131445046Y-88320331D01*
X131445010Y-88819866D01*
X131445000Y-89183307D01*
X131445000Y-94126538D01*
X131401136Y-94292615D01*
X131319573Y-94529021D01*
X131206242Y-94743285D01*
X131062438Y-94934091D01*
X130889458Y-95100123D01*
X130688598Y-95240065D01*
X130461155Y-95352602D01*
X130300232Y-95410258D01*
X130155461Y-95455151D01*
X123531923Y-95457767D01*
X123013120Y-95457921D01*
X122505278Y-95457974D01*
X122009792Y-95457927D01*
X121528056Y-95457784D01*
X121061465Y-95457547D01*
X120611414Y-95457221D01*
X120179298Y-95456806D01*
X119766511Y-95456308D01*
X119374448Y-95455728D01*
X119004504Y-95455070D01*
X118658074Y-95454336D01*
X118336552Y-95453531D01*
X118041333Y-95452655D01*
X117773812Y-95451714D01*
X117535384Y-95450709D01*
X117327443Y-95449643D01*
X117151384Y-95448521D01*
X117008602Y-95447343D01*
X116900491Y-95446115D01*
X116828447Y-95444838D01*
X116793864Y-95443515D01*
X116791914Y-95443302D01*
X116607515Y-95405275D01*
X116432748Y-95344504D01*
X116313744Y-95289079D01*
X116207314Y-95232252D01*
X116120619Y-95177828D01*
X116040473Y-95116267D01*
X115953688Y-95038031D01*
X115914578Y-95000338D01*
X115757860Y-94820313D01*
X115631364Y-94616072D01*
X115536066Y-94389314D01*
X115505411Y-94287143D01*
X115462538Y-94126538D01*
X115462538Y-89538093D01*
X116038801Y-89538093D01*
X116038812Y-90009826D01*
X116038877Y-90448631D01*
X116039017Y-90855737D01*
X116039248Y-91232375D01*
X116039592Y-91579775D01*
X116040066Y-91899165D01*
X116040690Y-92191776D01*
X116041483Y-92458838D01*
X116042463Y-92701581D01*
X116043651Y-92921233D01*
X116045064Y-93119026D01*
X116046723Y-93296188D01*
X116048645Y-93453950D01*
X116050851Y-93593541D01*
X116053358Y-93716191D01*
X116056187Y-93823131D01*
X116059356Y-93915588D01*
X116062884Y-93994795D01*
X116066791Y-94061979D01*
X116071094Y-94118372D01*
X116075814Y-94165202D01*
X116080969Y-94203700D01*
X116086579Y-94235095D01*
X116092662Y-94260617D01*
X116099238Y-94281496D01*
X116106325Y-94298962D01*
X116113942Y-94314244D01*
X116122110Y-94328572D01*
X116130846Y-94343176D01*
X116140169Y-94359286D01*
X116148492Y-94374928D01*
X116216989Y-94482075D01*
X116310258Y-94589770D01*
X116416181Y-94685666D01*
X116522638Y-94757420D01*
X116525463Y-94758937D01*
X116544291Y-94769584D01*
X116560390Y-94779569D01*
X116575003Y-94788913D01*
X116589376Y-94797639D01*
X116604752Y-94805767D01*
X116622378Y-94813320D01*
X116643497Y-94820317D01*
X116669354Y-94826781D01*
X116701193Y-94832732D01*
X116740261Y-94838193D01*
X116787800Y-94843184D01*
X116845056Y-94847726D01*
X116913274Y-94851842D01*
X116993698Y-94855552D01*
X117087573Y-94858878D01*
X117196144Y-94861841D01*
X117320655Y-94864463D01*
X117462351Y-94866764D01*
X117622477Y-94868766D01*
X117802277Y-94870490D01*
X118002996Y-94871958D01*
X118225879Y-94873191D01*
X118472171Y-94874211D01*
X118743116Y-94875038D01*
X119039958Y-94875694D01*
X119363944Y-94876200D01*
X119716316Y-94876578D01*
X120098321Y-94876849D01*
X120511202Y-94877034D01*
X120956204Y-94877154D01*
X121434573Y-94877232D01*
X121947552Y-94877288D01*
X122496386Y-94877343D01*
X123082321Y-94877420D01*
X123444779Y-94877483D01*
X124052896Y-94877588D01*
X124623155Y-94877655D01*
X125156775Y-94877678D01*
X125654973Y-94877652D01*
X126118970Y-94877573D01*
X126549984Y-94877435D01*
X126949234Y-94877232D01*
X127317938Y-94876960D01*
X127657316Y-94876614D01*
X127968585Y-94876187D01*
X128252965Y-94875675D01*
X128511675Y-94875074D01*
X128745933Y-94874376D01*
X128956958Y-94873578D01*
X129145969Y-94872674D01*
X129314184Y-94871660D01*
X129462823Y-94870528D01*
X129593104Y-94869276D01*
X129706246Y-94867897D01*
X129803468Y-94866386D01*
X129885988Y-94864737D01*
X129955026Y-94862947D01*
X130011799Y-94861009D01*
X130057528Y-94858918D01*
X130093429Y-94856670D01*
X130120723Y-94854259D01*
X130140629Y-94851679D01*
X130154364Y-94848926D01*
X130154649Y-94848852D01*
X130334130Y-94782871D01*
X130494119Y-94685324D01*
X130630854Y-94559920D01*
X130740574Y-94410368D01*
X130819517Y-94240376D01*
X130840233Y-94172816D01*
X130843224Y-94157308D01*
X130846001Y-94133168D01*
X130848570Y-94099018D01*
X130850940Y-94053476D01*
X130853119Y-93995163D01*
X130855113Y-93922699D01*
X130856932Y-93834704D01*
X130858581Y-93729799D01*
X130860071Y-93606604D01*
X130861407Y-93463739D01*
X130862598Y-93299823D01*
X130863652Y-93113477D01*
X130864575Y-92903322D01*
X130865377Y-92667977D01*
X130866065Y-92406063D01*
X130866646Y-92116200D01*
X130867128Y-91797007D01*
X130867520Y-91447105D01*
X130867828Y-91065115D01*
X130868060Y-90649655D01*
X130868225Y-90199348D01*
X130868329Y-89712811D01*
X130868382Y-89188667D01*
X130868383Y-89153607D01*
X130868406Y-88636185D01*
X130868414Y-88156374D01*
X130868397Y-87712711D01*
X130868343Y-87303731D01*
X130868240Y-86927968D01*
X130868077Y-86583957D01*
X130867841Y-86270235D01*
X130867523Y-85985335D01*
X130867108Y-85727793D01*
X130866587Y-85496145D01*
X130865948Y-85288925D01*
X130865178Y-85104669D01*
X130864267Y-84941911D01*
X130863202Y-84799187D01*
X130861972Y-84675032D01*
X130860565Y-84567981D01*
X130858970Y-84476569D01*
X130857175Y-84399332D01*
X130855169Y-84334804D01*
X130852939Y-84281521D01*
X130850475Y-84238018D01*
X130847764Y-84202830D01*
X130844794Y-84174492D01*
X130841556Y-84151539D01*
X130838035Y-84132507D01*
X130834222Y-84115930D01*
X130830104Y-84100345D01*
X130828205Y-84093464D01*
X130815757Y-84047504D01*
X130804470Y-84005990D01*
X130792937Y-83967340D01*
X130779749Y-83929975D01*
X130763497Y-83892311D01*
X130742773Y-83852769D01*
X130716169Y-83809767D01*
X130682276Y-83761724D01*
X130639686Y-83707059D01*
X130586990Y-83644191D01*
X130522781Y-83571539D01*
X130445649Y-83487521D01*
X130354187Y-83390556D01*
X130246985Y-83279063D01*
X130122636Y-83151462D01*
X129979732Y-83006171D01*
X129816863Y-82841608D01*
X129632621Y-82656193D01*
X129425598Y-82448344D01*
X129194386Y-82216481D01*
X128937577Y-81959022D01*
X128838279Y-81859457D01*
X128614868Y-81635645D01*
X128397524Y-81418339D01*
X128188006Y-81209278D01*
X127988072Y-81010197D01*
X127799480Y-80822832D01*
X127623987Y-80648921D01*
X127463353Y-80490200D01*
X127319335Y-80348406D01*
X127193691Y-80225274D01*
X127088179Y-80122543D01*
X127004558Y-80041947D01*
X126944585Y-79985224D01*
X126910018Y-79954110D01*
X126906069Y-79950929D01*
X126755179Y-79854050D01*
X126585319Y-79776810D01*
X126412196Y-79725973D01*
X126362959Y-79717032D01*
X126329699Y-79714515D01*
X126263860Y-79712210D01*
X126165015Y-79710118D01*
X126032739Y-79708236D01*
X125866606Y-79706564D01*
X125666188Y-79705100D01*
X125431059Y-79703842D01*
X125160794Y-79702790D01*
X124854967Y-79701941D01*
X124513150Y-79701296D01*
X124134918Y-79700851D01*
X123719844Y-79700606D01*
X123267502Y-79700560D01*
X122777467Y-79700711D01*
X122249310Y-79701058D01*
X121682608Y-79701599D01*
X121539000Y-79701760D01*
X116849769Y-79707153D01*
X116704333Y-79760242D01*
X116519963Y-79846258D01*
X116363689Y-79959432D01*
X116235547Y-80099726D01*
X116135575Y-80267099D01*
X116070410Y-80438507D01*
X116067550Y-80450458D01*
X116064867Y-80467235D01*
X116062356Y-80490054D01*
X116060010Y-80520129D01*
X116057824Y-80558678D01*
X116055793Y-80606915D01*
X116053912Y-80666056D01*
X116052173Y-80737317D01*
X116050573Y-80821912D01*
X116049105Y-80921059D01*
X116047763Y-81035971D01*
X116046543Y-81167866D01*
X116045438Y-81317958D01*
X116044443Y-81487463D01*
X116043553Y-81677596D01*
X116042761Y-81889574D01*
X116042063Y-82124611D01*
X116041452Y-82383924D01*
X116040923Y-82668728D01*
X116040471Y-82980238D01*
X116040090Y-83319671D01*
X116039774Y-83688241D01*
X116039518Y-84087164D01*
X116039316Y-84517656D01*
X116039162Y-84980933D01*
X116039052Y-85478209D01*
X116038979Y-86010701D01*
X116038938Y-86579624D01*
X116038923Y-87186194D01*
X116038923Y-87297287D01*
X116038906Y-87913029D01*
X116038867Y-88490925D01*
X116038826Y-89032203D01*
X116038801Y-89538093D01*
X115462538Y-89538093D01*
X115462538Y-87297846D01*
X115462538Y-80469153D01*
X115507354Y-80312846D01*
X115564684Y-80147252D01*
X115639651Y-79982129D01*
X115725459Y-79831098D01*
X115800191Y-79726021D01*
X115961488Y-79555483D01*
X116149594Y-79408024D01*
X116357196Y-79288221D01*
X116576984Y-79200650D01*
X116687048Y-79170863D01*
X116869308Y-79129285D01*
X121675769Y-79134920D01*
G37*
%TD*%
D11*
%TO.C,C16*%
X170650000Y-65800000D03*
X169100000Y-65800000D03*
%TD*%
D12*
%TO.C,C15*%
X170700000Y-68500000D03*
X168800000Y-68500000D03*
%TD*%
D13*
%TO.C,R10*%
X125476000Y-54736000D03*
X125476000Y-53086000D03*
%TD*%
%TO.C,R6*%
X143800000Y-31700000D03*
X143800000Y-30050000D03*
%TD*%
D14*
%TO.C,C1*%
X133350000Y-29972000D03*
X133350000Y-31872000D03*
%TD*%
D15*
%TO.C,L2*%
X152360000Y-86360000D03*
X156210000Y-86360000D03*
%TD*%
D13*
%TO.C,R16*%
X189992000Y-84899000D03*
X189992000Y-83249000D03*
%TD*%
D16*
%TO.C,U10*%
X125135000Y-67056000D03*
X125135000Y-68326000D03*
X125135000Y-69596000D03*
X125135000Y-70866000D03*
%TD*%
D17*
%TO.C,C13*%
X152146000Y-92046000D03*
X152146000Y-94996000D03*
%TD*%
D18*
%TO.C,D5*%
X166370000Y-85852000D03*
X162370000Y-85852000D03*
%TD*%
D19*
%TO.C,U1*%
X139097500Y-37322000D03*
X139097500Y-36822000D03*
X139097500Y-36322000D03*
X139097500Y-35822000D03*
X139097500Y-35322000D03*
D20*
X138160000Y-34384500D03*
X137660000Y-34384500D03*
X137160000Y-34384500D03*
X136660000Y-34384500D03*
X136160000Y-34384500D03*
D19*
X135222500Y-35322000D03*
X135222500Y-35822000D03*
X135222500Y-36322000D03*
X135222500Y-36822000D03*
X135222500Y-37322000D03*
D20*
X136160000Y-38259500D03*
X136660000Y-38259500D03*
X137160000Y-38259500D03*
X137660000Y-38259500D03*
X138160000Y-38259500D03*
D21*
X137160000Y-36322000D03*
%TD*%
D22*
%TO.C,R9*%
X134874000Y-53214000D03*
X134874000Y-54864000D03*
%TD*%
D23*
%TO.C,C4*%
X152500000Y-42900000D03*
X152500000Y-41000000D03*
%TD*%
D24*
%TO.C,D15*%
X129186000Y-65278000D03*
D25*
X129186000Y-72898000D03*
%TD*%
D26*
%TO.C,J8*%
X198301000Y-78430000D03*
X198301000Y-77430000D03*
X198301000Y-76430000D03*
X198301000Y-75430000D03*
X198301000Y-74430000D03*
X198301000Y-73430000D03*
X198301000Y-72430000D03*
X198301000Y-71430000D03*
D27*
X200471000Y-80780000D03*
X200471000Y-69080000D03*
%TD*%
D28*
%TO.C,U6*%
X198404500Y-57980000D03*
X198404500Y-58480000D03*
X198404500Y-58980000D03*
X198404500Y-59480000D03*
D29*
X199092000Y-60167500D03*
X199592000Y-60167500D03*
X200092000Y-60167500D03*
X200592000Y-60167500D03*
D28*
X201279500Y-59480000D03*
X201279500Y-58980000D03*
X201279500Y-58480000D03*
X201279500Y-57980000D03*
D29*
X200592000Y-57292500D03*
X200092000Y-57292500D03*
X199592000Y-57292500D03*
X199092000Y-57292500D03*
D30*
X199842000Y-58730000D03*
%TD*%
D31*
%TO.C,D3*%
X141500000Y-28300000D03*
X141500000Y-26725000D03*
%TD*%
D32*
%TO.C,C37*%
X121158000Y-69850000D03*
X121158000Y-68300000D03*
%TD*%
D23*
%TO.C,C2*%
X146500000Y-37050000D03*
X146500000Y-35150000D03*
%TD*%
D24*
%TO.C,D15*%
X133250000Y-65278000D03*
D25*
X133250000Y-72898000D03*
%TD*%
D33*
%TO.C,SW3*%
X114554000Y-48006000D03*
D34*
X114554000Y-52706000D03*
X114554000Y-57406000D03*
%TD*%
D11*
%TO.C,C9*%
X191529000Y-53086000D03*
X189979000Y-53086000D03*
%TD*%
D35*
%TO.C,U2*%
X153314000Y-33514000D03*
X153314000Y-35814000D03*
D36*
X159614000Y-35814000D03*
D35*
X153314000Y-38114000D03*
%TD*%
D13*
%TO.C,R15*%
X194818000Y-84836000D03*
X194818000Y-83186000D03*
%TD*%
D22*
%TO.C,R18*%
X169418000Y-93346000D03*
X169418000Y-94996000D03*
%TD*%
D37*
%TO.C,R12*%
X196722000Y-58166000D03*
X195072000Y-58166000D03*
%TD*%
D22*
%TO.C,R23*%
X113284000Y-80138000D03*
X113284000Y-81788000D03*
%TD*%
D37*
%TO.C,R21*%
X176450000Y-53200000D03*
X174800000Y-53200000D03*
%TD*%
D15*
%TO.C,L1*%
X152106000Y-72644000D03*
X155956000Y-72644000D03*
%TD*%
D38*
%TO.C,Q1*%
X194752000Y-87200500D03*
X192852000Y-87200500D03*
X193802000Y-89075500D03*
%TD*%
D12*
%TO.C,C3*%
X131318000Y-43180000D03*
X129418000Y-43180000D03*
%TD*%
D24*
%TO.C,D15*%
X114200000Y-65532000D03*
D25*
X114200000Y-73152000D03*
%TD*%
D39*
%TO.C,U8*%
X160274000Y-94742000D03*
X160274000Y-93792000D03*
X160274000Y-92842000D03*
X157999000Y-92842000D03*
X157999000Y-93792000D03*
X157999000Y-94742000D03*
%TD*%
D24*
%TO.C,D15*%
X118518000Y-65532000D03*
D25*
X118518000Y-73152000D03*
%TD*%
D22*
%TO.C,R13*%
X168148000Y-75312000D03*
X168148000Y-76962000D03*
%TD*%
%TO.C,R22*%
X133604000Y-80201000D03*
X133604000Y-81851000D03*
%TD*%
%TO.C,R4*%
X135382000Y-30100000D03*
X135382000Y-31750000D03*
%TD*%
D40*
%TO.C,J1*%
X117929000Y-29552000D03*
X117929000Y-30552000D03*
X117929000Y-31552000D03*
X117929000Y-32552000D03*
X117929000Y-33552000D03*
X117929000Y-34552000D03*
X117929000Y-35552000D03*
X117929000Y-36552000D03*
X117929000Y-37552000D03*
X117929000Y-38552000D03*
X117929000Y-39552000D03*
X117929000Y-40552000D03*
D41*
X115759000Y-27202000D03*
X115759000Y-42902000D03*
%TD*%
D17*
%TO.C,C12*%
X170942000Y-75282000D03*
X170942000Y-78232000D03*
%TD*%
D22*
%TO.C,R19*%
X185166000Y-54356000D03*
X185166000Y-56006000D03*
%TD*%
%TO.C,R17*%
X169418000Y-89536000D03*
X169418000Y-91186000D03*
%TD*%
D42*
%TO.C,C7*%
X165600000Y-35800000D03*
X165600000Y-37350000D03*
%TD*%
D22*
%TO.C,R14*%
X168148000Y-78868000D03*
X168148000Y-80518000D03*
%TD*%
D23*
%TO.C,C5*%
X163300000Y-37600000D03*
X163300000Y-35700000D03*
%TD*%
D13*
%TO.C,R11*%
X168000000Y-37350000D03*
X168000000Y-35700000D03*
%TD*%
D43*
%TO.C,U4*%
X127947500Y-59985000D03*
X127947500Y-60635000D03*
X127947500Y-61285000D03*
X127947500Y-61935000D03*
X133672500Y-61935000D03*
X133672500Y-61285000D03*
X133672500Y-60635000D03*
X133672500Y-59985000D03*
%TD*%
D44*
%TO.C,J6*%
X140100000Y-46680000D03*
D45*
X140100000Y-49220000D03*
X140100000Y-51760000D03*
X140100000Y-54300000D03*
X140100000Y-56840000D03*
X140100000Y-59380000D03*
X140100000Y-61920000D03*
X140100000Y-64460000D03*
X140100000Y-67000000D03*
X140100000Y-69540000D03*
X140100000Y-72080000D03*
X140100000Y-74620000D03*
X140100000Y-77160000D03*
X140100000Y-79700000D03*
%TD*%
D22*
%TO.C,R5*%
X137160000Y-30100000D03*
X137160000Y-31750000D03*
%TD*%
D18*
%TO.C,D4*%
X165608000Y-72644000D03*
X161608000Y-72644000D03*
%TD*%
D31*
%TO.C,D1*%
X143800000Y-28300000D03*
X143800000Y-26725000D03*
%TD*%
D38*
%TO.C,Q2*%
X189926000Y-87279000D03*
X188026000Y-87279000D03*
X188976000Y-89154000D03*
%TD*%
D31*
%TO.C,D2*%
X139200000Y-28300000D03*
X139200000Y-26725000D03*
%TD*%
D14*
%TO.C,C8*%
X169164000Y-39116000D03*
X169164000Y-41016000D03*
%TD*%
D17*
%TO.C,C14*%
X172720000Y-89506000D03*
X172720000Y-92456000D03*
%TD*%
%TO.C,C11*%
X152146000Y-77314000D03*
X152146000Y-80264000D03*
%TD*%
D37*
%TO.C,R3*%
X147300000Y-33300000D03*
X145650000Y-33300000D03*
%TD*%
D42*
%TO.C,C17*%
X131318000Y-31737000D03*
X131318000Y-33287000D03*
%TD*%
D39*
%TO.C,U3*%
X131815000Y-55748000D03*
X131815000Y-54798000D03*
X131815000Y-53848000D03*
X129540000Y-53848000D03*
X129540000Y-54798000D03*
X129540000Y-55748000D03*
%TD*%
D46*
%TO.C,C6*%
X125450000Y-56642000D03*
X127000000Y-56642000D03*
%TD*%
D47*
%TO.C,U5*%
X174650000Y-31570000D03*
X174650000Y-32840000D03*
X174650000Y-34110000D03*
X174650000Y-35380000D03*
X174650000Y-36650000D03*
X174650000Y-37920000D03*
X174650000Y-39190000D03*
X174650000Y-40460000D03*
X174650000Y-41730000D03*
X174650000Y-43000000D03*
X174650000Y-44270000D03*
X174650000Y-45540000D03*
X174650000Y-46810000D03*
X174650000Y-48080000D03*
D48*
X176415000Y-49330000D03*
X177685000Y-49330000D03*
X178955000Y-49330000D03*
X180225000Y-49330000D03*
X181495000Y-49330000D03*
X182765000Y-49330000D03*
X184035000Y-49330000D03*
X185305000Y-49330000D03*
X186575000Y-49330000D03*
X187845000Y-49330000D03*
X189115000Y-49330000D03*
X190385000Y-49330000D03*
D47*
X192150000Y-48080000D03*
X192150000Y-46810000D03*
X192150000Y-45540000D03*
X192150000Y-44270000D03*
X192150000Y-43000000D03*
X192150000Y-41730000D03*
X192150000Y-40460000D03*
X192150000Y-39190000D03*
X192150000Y-37920000D03*
X192150000Y-36650000D03*
X192150000Y-35380000D03*
X192150000Y-34110000D03*
X192150000Y-32840000D03*
X192150000Y-31570000D03*
D49*
X180500000Y-38590000D03*
X180500000Y-39990000D03*
X181200000Y-37890000D03*
X181200000Y-39290000D03*
X181200000Y-40690000D03*
X181900000Y-38590000D03*
D50*
X181900000Y-39290000D03*
D49*
X181900000Y-39990000D03*
X182600000Y-37890000D03*
X182600000Y-39290000D03*
X182600000Y-40690000D03*
X183300000Y-38590000D03*
X183300000Y-39990000D03*
%TD*%
D13*
%TO.C,R8*%
X141500000Y-31700000D03*
X141500000Y-30050000D03*
%TD*%
%TO.C,R7*%
X139192000Y-31750000D03*
X139192000Y-30100000D03*
%TD*%
D39*
%TO.C,U7*%
X159887500Y-80452000D03*
X159887500Y-79502000D03*
X159887500Y-78552000D03*
X157612500Y-78552000D03*
X157612500Y-79502000D03*
X157612500Y-80452000D03*
%TD*%
D51*
%TO.C,SW4*%
X125476000Y-39118000D03*
D34*
X125476000Y-34418000D03*
X125476000Y-29718000D03*
%TD*%
D44*
%TO.C,J5*%
X185000000Y-96300000D03*
D45*
X185000000Y-98840000D03*
%TD*%
D44*
%TO.C,J10*%
X201700000Y-96200000D03*
D45*
X201700000Y-98740000D03*
X201700000Y-101280000D03*
%TD*%
D52*
%TO.C,SW1*%
X166250000Y-41150000D03*
X159750000Y-41150000D03*
X166250000Y-45650000D03*
X159750000Y-45650000D03*
%TD*%
D44*
%TO.C,J3*%
X204724000Y-59690000D03*
D45*
X204724000Y-57150000D03*
%TD*%
D44*
%TO.C,J4*%
X194056000Y-95250000D03*
D45*
X194056000Y-97790000D03*
X194056000Y-100330000D03*
%TD*%
D44*
%TO.C,J2*%
X115824000Y-62230000D03*
D45*
X113284000Y-62230000D03*
%TD*%
D44*
%TO.C,J9*%
X200120000Y-32300000D03*
D45*
X202660000Y-32300000D03*
X205200000Y-32300000D03*
%TD*%
D52*
%TO.C,SW2*%
X204200000Y-45248000D03*
X197700000Y-45248000D03*
X204200000Y-49748000D03*
X197700000Y-49748000D03*
%TD*%
D53*
%TO.C,C10*%
X189524000Y-57912000D03*
D25*
X192024000Y-57912000D03*
%TD*%
M02*
