%TF.GenerationSoftware,KiCad,Pcbnew,9.0.6*%
%TF.CreationDate,2026-04-18T22:44:36+02:00*%
%TF.ProjectId,alarm_btn,616c6172-6d5f-4627-946e-2e6b69636164,rev?*%
%TF.SameCoordinates,Original*%
%TF.FileFunction,Legend,Bot*%
%TF.FilePolarity,Positive*%
%FSLAX46Y46*%
G04 Gerber Fmt 4.6, Leading zero omitted, Abs format (unit mm)*
G04 Created by KiCad (PCBNEW 9.0.6) date 2026-04-18 22:44:36*
%MOMM*%
%LPD*%
G01*
G04 APERTURE LIST*
G04 Aperture macros list*
%AMRoundRect*
0 Rectangle with rounded corners*
0 $1 Rounding radius*
0 $2 $3 $4 $5 $6 $7 $8 $9 X,Y pos of 4 corners*
0 Add a 4 corners polygon primitive as box body*
4,1,4,$2,$3,$4,$5,$6,$7,$8,$9,$2,$3,0*
0 Add four circle primitives for the rounded corners*
1,1,$1+$1,$2,$3*
1,1,$1+$1,$4,$5*
1,1,$1+$1,$6,$7*
1,1,$1+$1,$8,$9*
0 Add four rect primitives between the rounded corners*
20,1,$1+$1,$2,$3,$4,$5,0*
20,1,$1+$1,$4,$5,$6,$7,0*
20,1,$1+$1,$6,$7,$8,$9,0*
20,1,$1+$1,$8,$9,$2,$3,0*%
G04 Aperture macros list end*
%ADD10C,0.150000*%
%ADD11C,0.120000*%
%ADD12C,2.000000*%
%ADD13C,1.300000*%
%ADD14R,2.000000X2.000000*%
%ADD15R,2.000000X3.200000*%
%ADD16C,0.650000*%
%ADD17O,2.100000X1.000000*%
%ADD18O,1.600000X1.000000*%
%ADD19C,1.700000*%
%ADD20C,4.000000*%
%ADD21C,2.200000*%
%ADD22RoundRect,0.225000X-0.225000X-0.250000X0.225000X-0.250000X0.225000X0.250000X-0.225000X0.250000X0*%
%ADD23RoundRect,0.150000X0.150000X0.750000X-0.150000X0.750000X-0.150000X-0.750000X0.150000X-0.750000X0*%
%ADD24RoundRect,0.250000X1.050000X1.250000X-1.050000X1.250000X-1.050000X-1.250000X1.050000X-1.250000X0*%
%ADD25R,1.700000X1.700000*%
%ADD26RoundRect,0.225000X0.250000X-0.225000X0.250000X0.225000X-0.250000X0.225000X-0.250000X-0.225000X0*%
G04 APERTURE END LIST*
D10*
X46991666Y-55889580D02*
X47039285Y-55937200D01*
X47039285Y-55937200D02*
X47182142Y-55984819D01*
X47182142Y-55984819D02*
X47277380Y-55984819D01*
X47277380Y-55984819D02*
X47420237Y-55937200D01*
X47420237Y-55937200D02*
X47515475Y-55841961D01*
X47515475Y-55841961D02*
X47563094Y-55746723D01*
X47563094Y-55746723D02*
X47610713Y-55556247D01*
X47610713Y-55556247D02*
X47610713Y-55413390D01*
X47610713Y-55413390D02*
X47563094Y-55222914D01*
X47563094Y-55222914D02*
X47515475Y-55127676D01*
X47515475Y-55127676D02*
X47420237Y-55032438D01*
X47420237Y-55032438D02*
X47277380Y-54984819D01*
X47277380Y-54984819D02*
X47182142Y-54984819D01*
X47182142Y-54984819D02*
X47039285Y-55032438D01*
X47039285Y-55032438D02*
X46991666Y-55080057D01*
X46134523Y-55318152D02*
X46134523Y-55984819D01*
X46372618Y-54937200D02*
X46610713Y-55651485D01*
X46610713Y-55651485D02*
X45991666Y-55651485D01*
X95633333Y-77674819D02*
X95633333Y-78389104D01*
X95633333Y-78389104D02*
X95680952Y-78531961D01*
X95680952Y-78531961D02*
X95776190Y-78627200D01*
X95776190Y-78627200D02*
X95919047Y-78674819D01*
X95919047Y-78674819D02*
X96014285Y-78674819D01*
X94633333Y-78674819D02*
X95204761Y-78674819D01*
X94919047Y-78674819D02*
X94919047Y-77674819D01*
X94919047Y-77674819D02*
X95014285Y-77817676D01*
X95014285Y-77817676D02*
X95109523Y-77912914D01*
X95109523Y-77912914D02*
X95204761Y-77960533D01*
X46033333Y-25134819D02*
X46033333Y-25849104D01*
X46033333Y-25849104D02*
X46080952Y-25991961D01*
X46080952Y-25991961D02*
X46176190Y-26087200D01*
X46176190Y-26087200D02*
X46319047Y-26134819D01*
X46319047Y-26134819D02*
X46414285Y-26134819D01*
X45652380Y-25134819D02*
X45033333Y-25134819D01*
X45033333Y-25134819D02*
X45366666Y-25515771D01*
X45366666Y-25515771D02*
X45223809Y-25515771D01*
X45223809Y-25515771D02*
X45128571Y-25563390D01*
X45128571Y-25563390D02*
X45080952Y-25611009D01*
X45080952Y-25611009D02*
X45033333Y-25706247D01*
X45033333Y-25706247D02*
X45033333Y-25944342D01*
X45033333Y-25944342D02*
X45080952Y-26039580D01*
X45080952Y-26039580D02*
X45128571Y-26087200D01*
X45128571Y-26087200D02*
X45223809Y-26134819D01*
X45223809Y-26134819D02*
X45509523Y-26134819D01*
X45509523Y-26134819D02*
X45604761Y-26087200D01*
X45604761Y-26087200D02*
X45652380Y-26039580D01*
X46641666Y-63289580D02*
X46689285Y-63337200D01*
X46689285Y-63337200D02*
X46832142Y-63384819D01*
X46832142Y-63384819D02*
X46927380Y-63384819D01*
X46927380Y-63384819D02*
X47070237Y-63337200D01*
X47070237Y-63337200D02*
X47165475Y-63241961D01*
X47165475Y-63241961D02*
X47213094Y-63146723D01*
X47213094Y-63146723D02*
X47260713Y-62956247D01*
X47260713Y-62956247D02*
X47260713Y-62813390D01*
X47260713Y-62813390D02*
X47213094Y-62622914D01*
X47213094Y-62622914D02*
X47165475Y-62527676D01*
X47165475Y-62527676D02*
X47070237Y-62432438D01*
X47070237Y-62432438D02*
X46927380Y-62384819D01*
X46927380Y-62384819D02*
X46832142Y-62384819D01*
X46832142Y-62384819D02*
X46689285Y-62432438D01*
X46689285Y-62432438D02*
X46641666Y-62480057D01*
X46308332Y-62384819D02*
X45689285Y-62384819D01*
X45689285Y-62384819D02*
X46022618Y-62765771D01*
X46022618Y-62765771D02*
X45879761Y-62765771D01*
X45879761Y-62765771D02*
X45784523Y-62813390D01*
X45784523Y-62813390D02*
X45736904Y-62861009D01*
X45736904Y-62861009D02*
X45689285Y-62956247D01*
X45689285Y-62956247D02*
X45689285Y-63194342D01*
X45689285Y-63194342D02*
X45736904Y-63289580D01*
X45736904Y-63289580D02*
X45784523Y-63337200D01*
X45784523Y-63337200D02*
X45879761Y-63384819D01*
X45879761Y-63384819D02*
X46165475Y-63384819D01*
X46165475Y-63384819D02*
X46260713Y-63337200D01*
X46260713Y-63337200D02*
X46308332Y-63289580D01*
X63789580Y-41658333D02*
X63837200Y-41610714D01*
X63837200Y-41610714D02*
X63884819Y-41467857D01*
X63884819Y-41467857D02*
X63884819Y-41372619D01*
X63884819Y-41372619D02*
X63837200Y-41229762D01*
X63837200Y-41229762D02*
X63741961Y-41134524D01*
X63741961Y-41134524D02*
X63646723Y-41086905D01*
X63646723Y-41086905D02*
X63456247Y-41039286D01*
X63456247Y-41039286D02*
X63313390Y-41039286D01*
X63313390Y-41039286D02*
X63122914Y-41086905D01*
X63122914Y-41086905D02*
X63027676Y-41134524D01*
X63027676Y-41134524D02*
X62932438Y-41229762D01*
X62932438Y-41229762D02*
X62884819Y-41372619D01*
X62884819Y-41372619D02*
X62884819Y-41467857D01*
X62884819Y-41467857D02*
X62932438Y-41610714D01*
X62932438Y-41610714D02*
X62980057Y-41658333D01*
X62980057Y-42039286D02*
X62932438Y-42086905D01*
X62932438Y-42086905D02*
X62884819Y-42182143D01*
X62884819Y-42182143D02*
X62884819Y-42420238D01*
X62884819Y-42420238D02*
X62932438Y-42515476D01*
X62932438Y-42515476D02*
X62980057Y-42563095D01*
X62980057Y-42563095D02*
X63075295Y-42610714D01*
X63075295Y-42610714D02*
X63170533Y-42610714D01*
X63170533Y-42610714D02*
X63313390Y-42563095D01*
X63313390Y-42563095D02*
X63884819Y-41991667D01*
X63884819Y-41991667D02*
X63884819Y-42610714D01*
X27433333Y-44034819D02*
X27433333Y-44749104D01*
X27433333Y-44749104D02*
X27480952Y-44891961D01*
X27480952Y-44891961D02*
X27576190Y-44987200D01*
X27576190Y-44987200D02*
X27719047Y-45034819D01*
X27719047Y-45034819D02*
X27814285Y-45034819D01*
X27052380Y-44034819D02*
X26385714Y-44034819D01*
X26385714Y-44034819D02*
X26814285Y-45034819D01*
D11*
%TO.C,C4*%
X46684420Y-53590000D02*
X46965580Y-53590000D01*
X46684420Y-54610000D02*
X46965580Y-54610000D01*
%TO.C,J1*%
X87690000Y-85525000D02*
X87690000Y-86635000D01*
X87690000Y-86635000D02*
X102910000Y-86635000D01*
X88040000Y-84025000D02*
X87690000Y-85525000D01*
X91240000Y-81115000D02*
X91010000Y-81115000D01*
X102910000Y-85525000D02*
X102560000Y-84025000D01*
X102910000Y-86635000D02*
X102910000Y-85525000D01*
X99820000Y-80535000D02*
X99490000Y-80295000D01*
X99820000Y-80055000D01*
X99820000Y-80535000D01*
G36*
X99820000Y-80535000D02*
G01*
X99490000Y-80295000D01*
X99820000Y-80055000D01*
X99820000Y-80535000D01*
G37*
%TO.C,J3*%
X44320000Y-19380000D02*
X47080000Y-19380000D01*
X44320000Y-22030000D02*
X44320000Y-19380000D01*
X44320000Y-22030000D02*
X47080000Y-22030000D01*
X44320000Y-23300000D02*
X44320000Y-24680000D01*
X44320000Y-24680000D02*
X45700000Y-24680000D01*
X47080000Y-22030000D02*
X47080000Y-19380000D01*
%TO.C,C3*%
X46334420Y-60990000D02*
X46615580Y-60990000D01*
X46334420Y-62010000D02*
X46615580Y-62010000D01*
%TO.C,C2*%
X61490000Y-41965580D02*
X61490000Y-41684420D01*
X62510000Y-41965580D02*
X62510000Y-41684420D01*
%TO.C,J7*%
X25720000Y-38280000D02*
X28480000Y-38280000D01*
X25720000Y-40930000D02*
X25720000Y-38280000D01*
X25720000Y-40930000D02*
X28480000Y-40930000D01*
X25720000Y-42200000D02*
X25720000Y-43580000D01*
X25720000Y-43580000D02*
X27100000Y-43580000D01*
X28480000Y-40930000D02*
X28480000Y-38280000D01*
%TD*%
%LPC*%
D12*
%TO.C,SW8*%
X93400000Y-16600000D03*
X93400000Y-23100000D03*
X88900000Y-16600000D03*
X88900000Y-23100000D03*
%TD*%
%TO.C,SW12*%
X93400000Y-64600000D03*
X93400000Y-71100000D03*
X88900000Y-64600000D03*
X88900000Y-71100000D03*
%TD*%
%TO.C,SW15*%
X105400000Y-40600000D03*
X105400000Y-47100000D03*
X100900000Y-40600000D03*
X100900000Y-47100000D03*
%TD*%
%TO.C,SW16*%
X105400000Y-28600000D03*
X105400000Y-35100000D03*
X100900000Y-28600000D03*
X100900000Y-35100000D03*
%TD*%
%TO.C,SW14*%
X105400000Y-52600000D03*
X105400000Y-59100000D03*
X100900000Y-52600000D03*
X100900000Y-59100000D03*
%TD*%
%TO.C,SW9*%
X93400000Y-28600000D03*
X93400000Y-35100000D03*
X88900000Y-28600000D03*
X88900000Y-35100000D03*
%TD*%
%TO.C,SW4*%
X81400000Y-40600000D03*
X81400000Y-47100000D03*
X76900000Y-40600000D03*
X76900000Y-47100000D03*
%TD*%
%TO.C,SW10*%
X93400000Y-40600000D03*
X93400000Y-47100000D03*
X88900000Y-40600000D03*
X88900000Y-47100000D03*
%TD*%
%TO.C,SW6*%
X81400000Y-16600000D03*
X81400000Y-23100000D03*
X76900000Y-16600000D03*
X76900000Y-23100000D03*
%TD*%
%TO.C,SW5*%
X81400000Y-28600000D03*
X81400000Y-35100000D03*
X76900000Y-28600000D03*
X76900000Y-35100000D03*
%TD*%
%TO.C,SW13*%
X105400000Y-64600000D03*
X105400000Y-71100000D03*
X100900000Y-64600000D03*
X100900000Y-71100000D03*
%TD*%
%TO.C,SW17*%
X105400000Y-16600000D03*
X105400000Y-23100000D03*
X100900000Y-16600000D03*
X100900000Y-23100000D03*
%TD*%
D13*
%TO.C,J2*%
X17600000Y-107400000D03*
X17600000Y-85000000D03*
%TD*%
D12*
%TO.C,SW11*%
X93400000Y-52600000D03*
X93400000Y-59100000D03*
X88900000Y-52600000D03*
X88900000Y-59100000D03*
%TD*%
D14*
%TO.C,SW7*%
X55800000Y-36450000D03*
D12*
X50800000Y-36450000D03*
X53300000Y-36450000D03*
D15*
X58900000Y-43950000D03*
X47700000Y-43950000D03*
D12*
X50800000Y-50950000D03*
X55800000Y-50950000D03*
%TD*%
%TO.C,SW3*%
X81400000Y-52600000D03*
X81400000Y-59100000D03*
X76900000Y-52600000D03*
X76900000Y-59100000D03*
%TD*%
%TO.C,SW2*%
X76900000Y-71100000D03*
X76900000Y-64600000D03*
X81400000Y-71100000D03*
X81400000Y-64600000D03*
%TD*%
D16*
%TO.C,J4*%
X72954081Y-99926073D03*
X72954081Y-94146073D03*
D17*
X72424081Y-101356073D03*
D18*
X76604081Y-101356073D03*
D17*
X72424081Y-92716073D03*
D18*
X76604081Y-92716073D03*
%TD*%
D19*
%TO.C,SW1*%
X27900000Y-31080000D03*
D20*
X27900000Y-26000000D03*
D19*
X27900000Y-20920000D03*
D21*
X22820000Y-23460000D03*
X25360000Y-29810000D03*
%TD*%
D22*
%TO.C,C4*%
X46050000Y-54100000D03*
X47600000Y-54100000D03*
%TD*%
D23*
%TO.C,J1*%
X98800000Y-80325000D03*
X97800000Y-80325000D03*
X96800000Y-80325000D03*
X95800000Y-80325000D03*
X94800000Y-80325000D03*
X93800000Y-80325000D03*
X92800000Y-80325000D03*
X91800000Y-80325000D03*
D24*
X101150000Y-82495000D03*
X89450000Y-82495000D03*
%TD*%
D25*
%TO.C,J3*%
X45700000Y-23300000D03*
D19*
X45700000Y-20760000D03*
%TD*%
D22*
%TO.C,C3*%
X45700000Y-61500000D03*
X47250000Y-61500000D03*
%TD*%
D26*
%TO.C,C2*%
X62000000Y-42600000D03*
X62000000Y-41050000D03*
%TD*%
D25*
%TO.C,J7*%
X27100000Y-42200000D03*
D19*
X27100000Y-39660000D03*
%TD*%
%LPD*%
M02*
