M48
; DRILL file {KiCad 9.0.6} date 2026-04-18T23:10:41+0200
; FORMAT={-:-/ absolute / inch / decimal}
; #@! TF.CreationDate,2026-04-18T23:10:41+02:00
; #@! TF.GenerationSoftware,Kicad,Pcbnew,9.0.6
; #@! TF.FileFunction,Plated,1,2,PTH
FMAT,2
INCH
; #@! TA.AperFunction,Plated,PTH,ViaDrill
T1C0.0118
; #@! TA.AperFunction,Plated,PTH,ComponentDrill
T2C0.0118
; #@! TA.AperFunction,Plated,PTH,ViaDrill
T3C0.0157
; #@! TA.AperFunction,Plated,PTH,ViaDrill
T4C0.0197
; #@! TA.AperFunction,Plated,PTH,ComponentDrill
T5C0.0315
; #@! TA.AperFunction,Plated,PTH,ComponentDrill
T6C0.0394
; #@! TA.AperFunction,Plated,PTH,ComponentDrill
T7C0.0433
; #@! TA.AperFunction,Plated,PTH,ComponentDrill
T8C0.0984
%
G90
G05
T1
X4.46Y-3.3307
X4.46Y-3.97
X4.7198Y-1.4002
X4.72Y-1.36
X4.76Y-2.54
X4.78Y-2.87
X4.83Y-2.64
X4.97Y-2.54
X5.18Y-2.49
X5.2244Y-1.4094
X5.27Y-3.35
X5.3898Y-3.3268
X5.41Y-1.95
X5.42Y-2.68
X5.42Y-2.9803
X5.4882Y-1.3189
X5.5157Y-3.4606
X5.54Y-3.66
X5.58Y-2.41
X5.61Y-2.93
X5.64Y-2.41
X5.7244Y-1.248
X5.8Y-2.41
X5.8819Y-1.1969
X6.12Y-2.58
X6.1811Y-1.2992
X6.1811Y-1.6496
X6.2Y-3.03
X6.21Y-2.58
X6.22Y-3.6
X6.2211Y-2.1011
X6.23Y-2.8
X6.31Y-3.04
X6.31Y-3.79
X6.3268Y-1.8858
X6.39Y-1.89
X6.41Y-3.48
X6.42Y-1.9175
X6.4449Y-2.7441
X6.54Y-3.04
X6.58Y-2.53
X6.69Y-2.41
X6.6969Y-1.3425
X6.71Y-1.7
X6.71Y-1.74
X6.72Y-2.49
X6.74Y-1.49
X6.748Y-2.1811
X6.7598Y-1.6063
X6.76Y-2.45
X6.78Y-1.65
X6.78Y-2.63
X6.7835Y-2.5591
X6.79Y-2.71
X6.85Y-1.99
X6.94Y-1.4
X6.9449Y-2.1732
X6.9449Y-2.748
X6.95Y-1.5
X6.95Y-1.87
X6.9803Y-2.4528
X7.0039Y-2.0945
X7.015Y-2.985
X7.02Y-1.44
X7.02Y-2.86
X7.0236Y-2.6693
X7.0354Y-1.8386
X7.04Y-2.04
X7.08Y-2.16
X7.0827Y-2.2402
X7.0866Y-2.3307
X7.1102Y-2.1299
X7.1181Y-2.5866
X7.12Y-1.35
X7.12Y-2.4921
X7.14Y-2.01
X7.14Y-2.21
X7.1496Y-2.2717
X7.15Y-3.12
X7.1772Y-2.063
X7.18Y-2.21
X7.1811Y-2.5591
X7.19Y-2.78
X7.1929Y-2.1339
X7.2047Y-2.3543
X7.2165Y-2.4291
X7.2165Y-2.5039
X7.22Y-2.02
X7.22Y-2.3079
X7.2362Y-1.2835
X7.2441Y-2.1693
X7.252Y-2.0709
X7.2598Y-2.3071
X7.2756Y-2.7283
X7.29Y-2.248
X7.2913Y-2.8425
X7.3189Y-2.3346
X7.33Y-2.42
X7.33Y-2.78
X7.3307Y-2.8898
X7.3386Y-2.6693
X7.3465Y-2.2402
X7.3661Y-2.0079
X7.3661Y-2.1142
X7.4Y-2.4
X7.401Y-2.851
X7.4211Y-2.16
X7.4331Y-3.0276
X7.44Y-2.36
X7.4646Y-2.1969
X7.4685Y-2.6063
X7.4749Y-3.0851
X7.4803Y-2.0315
X7.485Y-1.615
X7.4921Y-2.8858
X7.51Y-2.66
X7.5433Y-2.7953
X7.5551Y-2.5197
X7.5591Y-2.7126
X7.563Y-2.0
X7.563Y-2.5866
X7.5669Y-2.6496
X7.58Y-2.44
X7.5945Y-3.189
X7.6Y-2.15
X7.61Y-2.11
X7.61Y-2.52
X7.6102Y-2.8701
X7.6299Y-3.0484
X7.63Y-1.66
X7.64Y-1.55
X7.64Y-2.08
X7.6654Y-2.2126
X7.6693Y-2.6811
X7.7004Y-2.8153
X7.7205Y-2.5354
X7.7323Y-2.7283
X7.76Y-1.55
X7.77Y-1.66
X7.7717Y-1.4724
X7.7756Y-2.0906
X7.8583Y-2.5315
X7.87Y-1.59
X7.874Y-2.9528
X7.8937Y-1.8465
X7.9272Y-2.9232
X7.9528Y-2.2283
X7.9882Y-2.5394
X7.9961Y-1.4252
X8.0118Y-3.1181
X8.04Y-2.11
X8.0906Y-1.4213
X8.0984Y-2.7874
T2
X7.1063Y-1.5193
X7.1063Y-1.5744
X7.1339Y-1.4917
X7.1339Y-1.5469
X7.1339Y-1.602
X7.1614Y-1.5193
X7.1614Y-1.5744
X7.189Y-1.4917
X7.189Y-1.5469
X7.189Y-1.602
X7.2165Y-1.5193
X7.2165Y-1.5744
T3
X4.3268Y-2.4528
X4.7913Y-2.2638
X5.11Y-2.44
X5.1417Y-2.0079
X5.15Y-2.29
X5.1817Y-2.4106
X5.19Y-2.25
X5.36Y-2.4
X5.7402Y-2.5276
X5.84Y-1.7
X5.8465Y-2.8661
X5.86Y-3.55
X5.8661Y-2.2835
X6.0157Y-2.0669
X6.0354Y-1.0551
X6.08Y-3.23
X6.1024Y-1.7835
X6.11Y-3.82
X6.29Y-2.97
X6.32Y-3.54
X6.36Y-3.08
X6.42Y-1.69
X6.42Y-3.19
X6.4488Y-2.2874
X6.46Y-3.13
X6.48Y-3.7
X6.72Y-2.54
X6.73Y-2.88
X6.76Y-3.33
X6.8307Y-2.0591
X6.87Y-2.87
X6.96Y-3.76
X6.96Y-3.92
X7.12Y-3.17
X7.29Y-2.0906
X7.3701Y-1.7244
X7.4449Y-1.8268
X7.8678Y-2.3122
T4
X4.7441Y-1.0039
X4.79Y-1.73
X4.79Y-1.87
X4.79Y-1.99
X4.9488Y-1.0079
X5.1417Y-1.0039
X5.26Y-1.66
X5.27Y-1.47
X5.4Y-1.43
X5.51Y-1.53
X5.7638Y-1.53
X5.9Y-1.41
X5.99Y-2.67
X6.67Y-2.8
X7.3031Y-2.9646
X7.3031Y-3.0709
X7.44Y-3.57
X7.4409Y-2.752
X7.51Y-3.94
X7.7Y-2.02
X7.9921Y-3.4173
X8.0827Y-3.8622
T5
X4.4961Y-2.58
X4.4961Y-2.88
X4.6661Y-2.58
X4.6661Y-2.88
X5.0861Y-2.57
X5.0861Y-2.87
X5.2461Y-2.57
X5.2461Y-2.87
X7.4616Y-2.28
X7.56Y-2.28
T6
X4.46Y-2.45
X4.56Y-2.45
X5.5157Y-1.8378
X5.5157Y-1.9378
X5.5157Y-2.0378
X5.5157Y-2.1378
X5.5157Y-2.2378
X5.5157Y-2.3378
X5.5157Y-2.4378
X5.5157Y-2.5378
X5.5157Y-2.6378
X5.5157Y-2.7378
X5.5157Y-2.8378
X5.5157Y-2.9378
X5.5157Y-3.0378
X5.5157Y-3.1378
X7.2835Y-3.7913
X7.2835Y-3.8913
X7.64Y-3.75
X7.64Y-3.85
X7.64Y-3.95
X7.8787Y-1.2717
X7.9409Y-3.7874
X7.9409Y-3.8874
X7.9409Y-3.9874
X7.9787Y-1.2717
X8.06Y-2.25
X8.06Y-2.35
X8.0787Y-1.2717
T7
X6.2894Y-1.6201
X6.2894Y-1.7972
X6.5453Y-1.6201
X6.5453Y-1.7972
X7.7835Y-1.7814
X7.7835Y-1.9586
X8.0394Y-1.7814
X8.0394Y-1.9586
T8
X4.51Y-1.89
X4.51Y-2.075
X4.51Y-2.2601
X4.94Y-1.17
X4.94Y-1.355
X4.94Y-1.5401
M30
